<svg width="269" height="190" viewBox="0 0 269 190" fill="none" xmlns="http://www.w3.org/2000/svg">
<path d="M236.118 149.855C219.677 164.129 200.028 174.592 179.045 181.239C168.037 184.727 156.663 187.164 145.193 188.552C138.027 189.416 130.823 189.873 123.647 189.918C123.515 189.918 123.382 189.918 123.249 189.918C122.813 189.922 122.382 189.922 121.948 189.92C118.909 188.837 115.771 188.003 112.564 187.398C111.009 187.105 109.453 186.855 107.894 186.635L115.255 178.022L134.039 156.038L143.086 145.452L163.889 121.103L211.972 64.8306L232.61 35.7445C232.61 35.7445 233.5 35.7055 235.334 37.1598C237.254 38.6824 240.211 41.8507 244.26 48.4272C246.718 52.4251 249.595 56.1048 252.478 59.7786C256.255 64.5924 260.04 69.3945 262.907 74.8877C262.911 74.8975 262.917 74.9053 262.921 74.915C264.663 78.257 265.973 81.5306 266.895 84.7359C267.221 85.8681 267.497 86.9906 267.727 88.1033C272.817 112.682 255.343 133.163 236.118 149.853V149.855Z" fill="#86A896"/>
<path d="M125.206 181.227C124.747 183.076 124.43 184.964 124.122 186.843C123.956 187.86 123.829 188.897 123.647 189.918C123.515 189.918 123.382 189.918 123.249 189.918C123.438 188.862 123.571 187.79 123.743 186.738C124.052 184.856 124.366 182.969 124.825 181.122C124.886 180.878 125.266 180.981 125.206 181.225V181.227Z" fill="#3D201B"/>
<path d="M217.292 131.855C216.15 125.855 207.004 129.023 203.92 131.198C201.002 133.253 197.178 133.038 194.089 134.809C192.511 135.713 191.104 136.939 189.931 138.323C188.855 139.591 188.044 141.044 186.851 142.211C184.538 144.474 181.791 146.266 180.906 149.576C180.24 152.069 180.115 155.315 181.599 157.554C182.542 158.978 183.953 159.544 185.595 159.762C186.501 159.883 187.429 159.926 188.294 160.246C189.2 160.584 190.028 161.119 190.909 161.515C192.595 162.271 194.339 162.556 196.091 161.843C197.706 161.187 198.969 159.975 200.018 158.611C201.063 157.256 201.969 155.745 202.371 154.068C202.807 152.249 202.713 150.351 203.119 148.532C203.971 144.71 207.711 143.234 210.703 141.337C211.951 140.544 213.172 139.636 214.052 138.453C215.849 136.495 217.863 134.848 217.292 131.855Z" fill="#6A7F6F"/>
<path d="M245.816 126.639C244.49 122.421 235.403 121.654 232.483 124.117C231.557 124.898 230.956 125.968 230.087 126.801C228.362 128.457 225.798 129.306 223.665 130.301C221.409 131.356 219.706 133.114 219.476 135.691C219.255 138.178 221.109 140.06 223.233 141.003C228.221 143.216 234.274 141.862 238.299 138.354C239.344 137.442 240.27 136.408 241.27 135.449C242.195 134.563 243.17 133.72 243.982 132.726C245.305 131.112 246.488 128.779 245.816 126.639Z" fill="#6A7F6F"/>
<path d="M252.478 59.7806C250.833 60.3018 249.236 61.1315 247.847 61.8323C246.107 62.7127 244.805 64.0713 243.666 65.6252C242.625 67.0463 241.746 68.5787 240.426 69.7714C239.047 71.0149 237.246 71.745 235.668 72.6937C233.94 73.7341 232.377 75.0264 231.368 76.7989C229.532 80.0257 228.927 84.371 229.815 87.9843C230.546 90.9573 232.885 93.985 236.291 92.64C239.401 91.4122 241.574 88.0585 243.549 85.5286C244.586 84.1992 245.66 83.0397 247.228 82.3389C248.812 81.6342 250.585 81.3902 252.279 81.0935C256.146 80.4161 259.591 79.1316 262.128 75.979C262.411 75.6276 262.671 75.2626 262.907 74.8898C260.04 69.3966 256.255 64.5945 252.478 59.7806Z" fill="#6A7F6F"/>
<path d="M233.786 97.5396C233.014 96.7275 231.747 96.0111 231.276 94.9687C230.995 94.344 230.923 93.6725 230.52 93.0967C229.96 92.2924 229.007 91.8981 228.038 91.9254C226.95 91.9547 226.142 92.5071 225.626 93.2938C225.612 93.3094 225.599 93.3231 225.585 93.3387C222.224 97.2116 225.327 103.288 229.956 104.427C232.26 104.993 234.805 103.757 235.246 101.276C235.504 99.8196 234.754 98.5605 233.786 97.5396Z" fill="#6A7F6F"/>
<path d="M164.284 175.996C162.712 175.953 161.2 176.294 159.645 176.435C156.964 176.677 153.804 176.585 151.527 178.241C150.32 179.119 149.536 180.322 148.988 181.69C148.521 182.859 148.41 184.22 147.828 185.329C147.191 186.539 146.05 187.476 145.193 188.552C156.663 187.164 168.037 184.727 179.045 181.239C176.435 177.028 168.569 176.117 164.284 175.996Z" fill="#6A7F6F"/>
<path d="M143.804 174.278C142.929 172.794 141.281 172.14 139.637 171.998C137.623 171.822 135.354 172.347 133.766 173.628C133.36 173.956 133.016 174.344 132.735 174.774C132.26 174.862 131.832 175.176 131.661 175.777C131.08 177.798 130.569 180.082 131.491 182.082C132.387 184.029 134.487 185.003 136.557 184.987C140.256 184.958 143.277 182.17 144.213 178.688C144.603 177.231 144.588 175.607 143.804 174.28V174.278Z" fill="#6A7F6F"/>
<path d="M232.61 35.7465C232.61 35.7465 227.509 43.4416 216.968 63.1655C215.365 66.1678 213.634 69.4473 211.777 73.0215C209.183 78.013 199.704 83.7306 185.968 89.7372C177.578 93.4052 167.6 97.1805 156.634 100.964C152.489 102.394 148.203 103.825 143.806 105.25C99.221 119.723 43.4253 133.757 10.1713 141.733C10.1616 141.735 10.1518 141.737 10.142 141.739C9.91938 141.35 9.70064 140.956 9.48581 140.564C9.00732 139.689 8.55031 138.807 8.11479 137.918C7.86871 137.415 7.62849 136.909 7.39413 136.402C6.2106 133.827 5.28683 131.473 4.58569 129.259C3.41974 125.57 1.98682 121.6 1.98682 121.6C1.98682 121.6 4.73998 112.276 9.9975 98.8085C14.4719 87.342 21.3445 70.9972 31.4475 49.7781C34.5391 43.2855 38.6619 34.6748 43.1382 26.4429C44.3452 24.2234 45.5775 22.0312 46.8216 19.9171C50.9913 12.8291 55.2996 6.60194 59.2467 3.07258C61.4243 1.1244 63.4906 0 65.3655 0C66.8927 0.00195208 68.7246 1.43088 70.8124 3.06282C75.775 6.9377 81.9837 13.8071 87.374 20.3973C89.1844 22.611 90.9031 24.7914 92.4479 26.8177C92.487 26.8685 92.5241 26.9192 92.5631 26.968C95.4067 30.6965 97.6586 33.8803 98.8284 35.7465C98.9222 35.8949 99.0257 36.0159 99.1409 36.1057C99.3206 36.2482 99.5237 36.3204 99.7502 36.3282C100.231 36.3478 100.82 36.0823 101.504 35.5845C101.879 35.3112 102.283 34.9696 102.715 34.5655C105.81 31.6647 110.298 25.6074 115.49 19.5989C120.37 13.9515 125.876 8.3471 131.432 5.45216C133.543 4.35119 135.662 3.64258 137.758 3.4708C141.289 3.17994 151.113 10.6701 159.887 17.8635C167.047 23.7354 173.512 29.4081 175.285 30.4935C175.445 30.5911 175.566 30.6516 175.646 30.6711C175.746 30.6965 175.875 30.6906 176.025 30.6574C176.853 30.4896 178.381 29.5428 179.968 28.5121C182.142 27.1027 185.792 24.362 186.497 24.1629C191.921 22.6305 193.761 27.9343 196.255 27.5614C196.426 27.5361 196.602 27.4834 196.782 27.3994C197.018 27.2882 197.264 27.1242 197.52 26.8958C202.338 22.6012 210.801 13.7524 214.447 14.9237C217.396 15.8704 227.462 28.9142 231.198 33.8608C232.081 35.0301 232.61 35.7465 232.61 35.7465Z" fill="#86A896"/>
<path d="M46.5677 38.0558C46.5189 41.064 46.0267 44.0409 45.8197 47.0393C45.8041 47.254 45.7904 47.4687 45.7787 47.6835C45.6127 50.7385 46.0072 53.7876 45.3353 56.8094C44.2807 61.5374 40.9762 66.6382 37.3163 69.7869C33.8633 72.7599 29.5472 74.8564 26.5552 78.2394C23.0612 82.1904 24.3814 88.2477 21.1434 92.3881C18.5439 95.7125 14.2687 97.9418 9.9975 98.8085C14.4719 87.342 21.3445 70.9972 31.4475 49.7781C34.5391 43.2854 38.6619 34.6748 43.1382 26.4429C45.1752 30.144 46.64 33.7144 46.5677 38.0558Z" fill="#6A7F6F"/>
<path d="M183.886 38.901C181.267 36.3028 178.609 33.3063 175.775 30.6866C175.728 30.6847 175.685 30.6808 175.646 30.671C174.666 30.425 167.69 24.2623 159.887 17.8634C159.136 20.1669 158.888 22.7417 159.581 25.0119C159.991 26.355 160.7 27.6355 161.428 28.8302C162.212 30.1186 163.346 31.4265 163.567 32.9647C163.68 33.7514 163.581 34.5615 163.647 35.3541C163.713 36.1427 163.879 36.9177 164.131 37.6692C164.592 39.0376 165.28 40.2889 166.205 41.3977C167.151 42.5299 168.399 43.4571 169.766 44.0135C171.252 44.6186 172.84 44.5054 174.394 44.2946C175.963 44.0799 177.486 43.8534 179.072 44.0916C180.843 44.3571 182.396 45.3233 184.189 45.5107C185.906 45.6884 188.337 45.3643 189.585 43.9842C187.384 42.1024 185.255 40.2596 183.886 38.901Z" fill="#6A7F6F"/>
<path d="M118.712 61.553C114.665 56.6065 110.765 51.535 106.879 46.4752C104.309 43.1313 101.762 39.8127 99.4807 36.2853C99.2268 36.2072 99.0081 36.0315 98.8284 35.7465C97.6585 33.8803 95.4067 30.6965 92.5631 26.97C92.5104 28.6624 91.6569 30.3842 91.1765 31.9693C90.5418 34.0599 89.6746 36.2092 89.6902 38.4267C89.7039 40.3281 90.5789 42.5261 89.7156 44.3357C88.9344 45.9754 87.5087 47.3341 86.4267 48.7747C84.089 51.8941 81.7727 55.6675 83.63 59.6049C84.3292 61.0865 85.5225 62.2987 87.0986 62.816C89.034 63.4544 91.2605 62.8805 93.2291 62.7048C95.4985 62.4998 97.7328 62.164 99.9924 61.8732C100.977 61.7463 101.926 61.7248 102.902 61.9337C104.021 62.1738 105.107 62.5467 106.238 62.7438C108.349 63.1128 110.531 63.4661 112.664 63.6847C114.583 63.8799 116.407 63.6027 118.167 62.816C118.544 62.6462 118.913 62.4471 119.259 62.2168C119.075 61.9962 118.894 61.7756 118.712 61.553Z" fill="#6A7F6F"/>
<path d="M231.198 33.8608C229.469 33.8628 227.745 34.0072 226.034 34.2474C223.468 34.6065 220.857 34.3352 218.277 34.4972C216.714 34.5968 215.212 34.9755 213.744 35.4869C212.277 36.0003 210.685 36.1565 209.318 36.9373C206.994 38.2706 205.256 40.3984 202.795 41.5208C200.866 42.3992 198.594 42.2899 196.819 43.5315C195.161 44.691 193.944 46.5006 193.52 48.4819C193.014 50.8537 193.108 53.3329 192.712 55.7222C192.182 58.9021 189.276 60.577 186.431 61.4555C182.306 62.7302 177.779 62.9527 173.494 63.1343C170.932 63.2416 168.354 63.306 165.793 63.1655C163.409 63.0327 161.038 62.7438 158.667 62.4959C153.825 61.9864 148.849 61.6409 144.101 62.9703C139.885 64.1532 136.428 66.9486 132.328 68.3775C129.997 69.1916 127.489 69.5429 125.079 70.0602C122.624 70.5873 120.181 71.1827 117.814 72.0279C115.206 72.9591 112.689 74.1303 110.209 75.3562C107.728 76.5841 105.215 77.7768 102.805 79.1413C100.424 80.4883 98.2152 82.0577 95.9399 83.5686C94.7818 84.3378 93.5162 84.941 92.1667 85.2826C90.8035 85.6281 81.0814 89.9383 79.8197 90.6567C76.689 92.435 87.3681 90.7562 89.7567 91.6346C91.1531 92.15 92.3346 93.0792 93.651 93.7546C95.2681 94.5842 96.9008 94.6955 98.6507 95.0371C102.256 95.7418 105.711 97.0712 109.283 97.9145C111.111 98.3459 112.951 98.7402 114.745 99.2946C116.503 99.8392 118.13 100.649 119.821 101.36C123.323 102.834 127.005 103.07 130.77 102.916C134.772 102.75 138.773 102.313 142.758 101.914C146.818 101.508 150.849 101.05 154.935 100.981C155.501 100.971 156.067 100.966 156.636 100.964C167.602 97.1805 177.58 93.4052 185.97 89.7372C199.706 83.7307 209.185 78.013 211.779 73.0215C213.636 69.4473 215.367 66.1678 216.97 63.1655C227.511 43.4417 232.612 35.7465 232.612 35.7465C232.612 35.7465 232.083 35.0301 231.2 33.8608H231.198Z" fill="#86A896"/>
<path d="M70.8124 3.06281C68.629 4.69279 67.6192 7.81417 67.5411 10.4631C67.4884 12.2864 67.9259 14.1877 69.0352 15.6635C70.4921 17.6 72.7713 18.0158 74.9899 18.6033C76.2066 18.9254 77.4156 19.0913 78.6714 19.1538C79.8666 19.2143 81.2161 19.1753 82.3274 19.6809C83.3 20.124 84.1457 20.7545 85.2374 20.8697C86.003 20.9497 86.7334 20.7662 87.374 20.3973C81.9837 13.8071 75.775 6.93769 70.8124 3.06281Z" fill="#86A896"/>
<path d="M63.0843 4.87825C61.852 3.46103 60.5962 2.99058 59.2466 3.07257C55.2996 6.60193 50.9912 12.8291 46.8216 19.9171C46.8802 20.0674 46.9505 20.2216 47.0344 20.3758C49.132 24.278 54.2957 22.8472 57.2839 21.0376C58.9615 20.0205 60.4243 18.7419 61.4145 17.028C62.4847 15.1774 63.0433 13.0672 63.4515 10.9844C63.8421 8.98347 64.5803 6.59803 63.0843 4.87825Z" fill="#6A7F6F"/>
<path d="M87.3134 28.6839C86.9853 26.9056 84.9932 26.0271 83.5968 25.1662C81.845 24.0867 79.6537 23.7568 77.6304 23.7783C76.3648 23.792 74.7946 23.8876 73.3904 24.2605C72.3123 24.4811 71.2987 24.9437 70.4726 25.7226C69.1152 27.0012 68.2051 29.3515 69.9335 30.7336C71.8494 32.2679 74.693 31.2821 76.896 31.3778C79.1889 31.4773 81.3333 32.6661 83.6261 32.711C85.6924 32.752 87.7138 30.8409 87.3173 28.6839H87.3134Z" fill="#6A7F6F"/>
<path d="M133.041 6.62931C132.557 6.12763 132.014 5.74112 131.432 5.45221C125.876 8.34715 120.37 13.9516 115.49 19.5989C115.857 20.4774 116.615 21.2465 117.441 21.7345C119.085 22.7028 121.399 22.8511 123.216 22.3572C125.132 21.836 126.307 20.2041 128.038 19.3647C129.84 18.4902 131.768 17.9084 133.073 16.2824C135.182 13.649 135.488 9.16312 133.041 6.62931Z" fill="#6A7F6F"/>
<path d="M149.615 17.9494C148.111 16.5127 145.779 16.0695 143.568 16.2999C143.043 16.296 142.51 16.4014 141.99 16.5829C141.234 16.7781 140.521 17.0495 139.9 17.3852C139.084 17.8245 138.523 18.5448 138.322 19.31C138.207 19.4525 138.1 19.597 137.998 19.7414C137.055 21.0844 136.83 23.1244 138.408 24.1141C139.125 24.563 139.998 24.686 140.828 24.6001C141.865 24.4928 142.838 23.9657 143.873 23.9364C145.921 23.8779 148.121 24.403 149.773 22.7984C151.195 21.4182 150.99 19.2631 149.615 17.9494Z" fill="#6A7F6F"/>
<path d="M142.763 92.1715C140.998 90.4751 139.537 88.5152 138.127 86.5221C136.658 84.4451 135.152 82.4306 133.565 80.4433C132.153 78.6767 130.891 76.7969 129.584 74.9521C128.167 72.9513 126.631 71.0948 125.007 69.2618C121.751 65.588 118.624 61.801 115.566 57.9593C112.416 54.0044 109.338 49.9928 106.258 45.9832C103.785 42.7643 101.336 39.5238 99.1428 36.1077C99.3205 36.2482 99.5237 36.3204 99.7502 36.3283C102.217 40.1192 104.992 43.7013 107.748 47.2872C113.833 55.2049 120.034 62.982 126.624 70.4877C129.651 73.9332 132.022 77.9095 134.914 81.4701C137.695 84.8921 139.838 88.8178 143.039 91.8943C143.22 92.0699 142.945 92.3452 142.763 92.1715Z" fill="#3D201B"/>
<path d="M202.336 55.7963C201.487 55.0389 200.666 54.2522 199.846 53.4616C195.516 49.292 190.919 45.4737 186.415 41.4973C182.507 38.0499 179.156 33.9798 175.285 30.4934C175.445 30.591 175.566 30.6515 175.646 30.671C175.746 30.6964 175.875 30.6906 176.025 30.6574C177.592 32.1058 179.078 33.648 180.554 35.1882C182.748 37.4799 184.958 39.7111 187.349 41.7979C189.962 44.0799 192.641 46.2838 195.237 48.5872C197.762 50.8263 200.092 53.2742 202.612 55.5191C202.801 55.687 202.524 55.9622 202.336 55.7963Z" fill="#3D201B"/>
<path d="M217.997 45.6924C216.292 43.9805 214.472 42.3837 212.631 40.82C207.293 36.2912 201.594 32.1177 196.255 27.5615C196.426 27.5361 196.602 27.4834 196.782 27.3995C200.467 30.4916 204.252 33.4607 207.99 36.4864C211.513 39.3404 215.072 42.2021 218.275 45.4172C218.453 45.5948 218.175 45.872 217.997 45.6924Z" fill="#3D201B"/>
<path d="M235.334 37.1617C233.95 38.1846 230.245 41.2064 229.159 44.9856C225.774 56.7625 227.923 59.431 224.667 68.477C222.167 75.4225 213.308 80.7614 215.742 88.9699C216.408 91.2168 217.613 93.2587 218.609 95.3806C219.993 98.3341 220.993 101.53 220.97 104.792C220.863 119.014 199.229 128.015 187.974 131.365C178.945 134.053 170.631 139.386 164.182 146.232C157.446 153.381 152.669 162.118 145.873 169.216C138.189 177.239 128.725 180.179 119.616 185.84C118.976 186.238 117.341 183.213 115.255 178.024C106.89 157.217 91.2449 101.639 103.125 92.595C112.253 87.5039 122.079 83.3128 132.02 80.1192C139.801 77.6186 147.464 76.4142 155.544 75.6763C164.801 74.8291 174.137 75.1668 183.376 74.0873C188.218 73.5212 214.695 69.0997 205.58 60.4012C204.383 59.2593 202.918 58.4413 201.614 57.4243C201.123 57.0436 200.631 56.6005 200.452 56.0051C200.227 55.2594 200.559 54.4318 201.094 53.8657C202.901 51.9585 205.838 51.7516 207.816 49.9439C209.988 47.9606 210.922 44.9739 213.078 42.9984C215.023 41.2181 217.785 40.0391 220.22 39.1001C224.19 37.5658 228.421 36.5019 232.61 35.7464C232.61 35.7464 233.5 35.7074 235.334 37.1617Z" fill="#EEF1EF"/>
<path d="M165.295 128.884C162.85 134.508 148.89 141.713 143.086 145.453C142.4 145.895 141.83 146.289 141.404 146.625C140.984 146.957 140.492 147.415 139.951 147.985C139.66 148.29 139.355 148.628 139.039 148.995C138.855 149.207 138.666 149.432 138.475 149.664C137.088 151.351 135.531 153.537 134.039 156.04C131.735 159.915 129.59 164.549 128.489 169.271C128.295 169.716 128.106 170.161 127.924 170.612C127.383 171.951 126.895 173.31 126.456 174.682C126.405 174.838 126.356 174.992 126.307 175.149C124.802 179.951 123.86 184.925 123.249 189.92C123.245 189.943 123.243 189.969 123.239 189.992C122.895 189.992 122.536 189.998 122.169 190C122.095 189.973 122.022 189.947 121.948 189.922C118.909 188.839 115.771 188.005 112.564 187.4C111.009 187.107 109.453 186.857 107.894 186.637C103.387 185.996 100.858 183.336 98.2249 180.942C98.1116 180.839 97.9984 180.735 97.8831 180.634C95.6508 178.637 93.2779 176.898 89.5164 176.794C89.3699 176.788 89.2196 176.788 89.0692 176.788C88.9266 176.788 88.784 176.79 88.6395 176.79C77.0972 176.864 62.7015 176.946 53.54 173.185C42.2535 168.547 29.7893 166.358 19.7098 159.216C13.927 155.118 8.92529 149.924 5.03879 143.999C1.67766 138.877 0.0430079 129.875 1.35348 123.5C2.34171 118.698 4.01541 118.341 7.83941 116.483C14.7629 113.115 21.8289 110.041 28.9691 107.148C33.1388 105.459 37.3338 103.833 41.5387 102.246C74.154 89.948 93.7467 85.9365 101.822 87.4903C109.23 88.9153 133.123 99.0623 143.806 105.25C144.769 105.809 145.625 106.334 146.351 106.818C151.146 110.013 154.661 111.854 157.056 113.352C159.054 114.601 160.27 115.61 160.803 116.965C161.309 118.251 162.688 119.563 163.889 121.105C165.467 123.135 166.737 125.57 165.295 128.884Z" fill="#86A896"/>
<path d="M123.874 136.123C127.112 133.825 130.174 131.276 132.862 128.347C135.692 125.265 138.07 121.773 140.635 118.472C143.312 115.024 146.119 111.71 149.161 108.633C148.277 108.079 147.343 107.48 146.351 106.818C145.625 106.334 144.769 105.809 143.806 105.25C133.123 99.0623 109.23 88.9153 101.822 87.4903C93.7467 85.9365 74.154 89.948 41.5387 102.246C37.3338 103.833 33.1388 105.459 28.9691 107.148C25.7935 111.13 23.4147 115.712 22.2468 120.726C21.3426 124.607 20.6883 129.247 23.4225 132.56C25.6724 135.287 29.3401 136.454 32.6896 137.093C36.6229 137.842 40.6598 137.942 44.6518 137.924C49.13 137.903 53.7138 137.546 58.0807 138.75C60.8325 139.507 63.2738 140.891 65.8518 142.067C74.8337 146.162 82.2473 140.396 91.1531 141.666C94.1685 142.098 96.8129 143.185 99.8596 143.052C103.193 142.906 106.14 143.991 109.476 143.183C111.919 142.592 114.32 141.768 116.673 140.854C119.109 139.33 121.53 137.784 123.872 136.123H123.874Z" fill="#6A7F6F"/>
<path d="M139.951 147.985C139.66 148.29 139.355 148.628 139.039 148.995C133.242 152.502 127.43 155.987 121.727 159.647C118.548 161.687 115.386 163.67 112.042 165.437C108.677 167.217 105.379 169.119 102.01 170.887C98.5862 172.687 95.0396 174.237 91.528 175.853C90.8562 176.164 90.1844 176.476 89.5164 176.794C89.37 176.788 89.2196 176.788 89.0692 176.788C88.9266 176.788 88.784 176.79 88.6395 176.79C90.4265 175.945 92.2174 175.11 94.0162 174.29C97.5453 172.683 101.065 171.049 104.426 169.111C107.691 167.229 111.074 165.564 114.37 163.739C117.71 161.888 120.856 159.721 124.085 157.687C129.331 154.382 134.651 151.198 139.951 147.985Z" fill="#3D201B"/>
<path d="M128.946 160.225C127.407 160.92 126.112 162.019 124.868 163.141C123.69 164.207 122.462 165.257 121.362 166.405C119.472 168.377 117.886 170.591 115.587 172.129C113.089 173.798 110.279 174.916 107.599 176.252C104.744 177.675 101.975 179.254 99.0667 180.575C98.7874 180.702 98.5061 180.823 98.2249 180.942C98.1116 180.839 97.9983 180.736 97.8831 180.634C98.6155 180.339 99.342 180.027 100.057 179.685C102.897 178.331 105.625 176.757 108.463 175.397C111.214 174.081 114.15 172.896 116.532 170.952C118.71 169.175 120.274 166.77 122.37 164.902C124.372 163.116 126.264 161.012 128.749 159.887C128.975 159.786 129.174 160.122 128.946 160.225Z" fill="#3D201B"/>
<path d="M126.456 174.682C126.405 174.838 126.356 174.992 126.307 175.149C123.028 176.464 119.821 177.895 117.261 180.425C117.081 180.601 116.804 180.325 116.984 180.148C119.661 177.505 123.03 176.05 126.456 174.682Z" fill="#3D201B"/>
<path d="M73.0057 67.261L72.7752 67.9872L72.6541 68.3678L71.0312 73.4647C71.0312 73.4647 70.8632 74.1577 67.6485 74.0718C64.4339 73.9859 62.4379 71.1437 62.4379 71.1437L65.2795 63.9542L73.0057 67.261Z" fill="#F2A688"/>
<path d="M72.5155 51.8922C74.4001 53.1494 75.2926 54.1976 75.7008 59.1501C75.8688 61.1763 76.4644 63.2045 76.1227 65.2464C75.986 66.0643 75.6344 66.9467 74.9489 67.4581C73.8904 68.2468 72.2635 67.8446 70.5937 67.7256C69.1992 67.626 67.8009 67.9559 66.4142 67.136C63.3695 65.3362 60.0103 62.4159 61.1255 57.6567C62.2426 52.8995 68.6114 49.2881 72.5135 51.8922H72.5155Z" fill="#F2A688"/>
<path d="M75.1442 59.111C75.1442 59.111 77.1382 60.6844 77.2066 61.0514C77.2749 61.4203 75.5231 62.33 75.5231 62.33L75.1422 59.111H75.1442Z" fill="#F2A688"/>
<path d="M72.7732 59.2536C73.0994 59.0291 73.4314 58.9822 73.8239 58.9061C74.5973 58.7577 75.5934 59.8841 74.6872 60.4678C73.988 60.9167 73.2673 60.864 72.66 60.6883C72.5252 60.6493 72.4002 60.5732 72.2967 60.4756C72.1932 60.3799 72.117 60.2491 72.1112 60.1066C72.0975 59.7182 72.492 59.4429 72.7732 59.2516V59.2536Z" fill="white"/>
<path d="M74.113 58.8787C74.3474 58.8416 74.4489 58.7362 74.6852 58.8767C74.8708 58.986 75.0114 59.1676 75.0798 59.3706C75.2594 59.8859 75.0934 60.5145 74.4724 60.5926C73.4627 60.7195 73.1365 59.0329 74.113 58.8787Z" fill="#3D201B"/>
<path d="M74.9079 58.6718C73.7849 58.5449 72.4705 59.2047 71.7362 60.0324C71.5702 60.2198 71.8455 60.497 72.0115 60.3077C72.6834 59.5483 73.8786 58.9451 74.9059 59.0603C75.1559 59.0876 75.1539 58.6972 74.9059 58.6699L74.9079 58.6718Z" fill="#3D201B"/>
<path d="M76.4176 51.0723C76.3219 49.8894 75.82 48.7825 74.7771 48.0993C73.0115 46.9456 70.166 47.0218 68.502 48.3394C67.9649 48.765 67.5197 49.4248 66.7931 49.5263C66.0783 49.6258 65.3167 49.3779 64.5882 49.4248C63.9378 49.4677 63.2855 49.6551 62.6957 49.9362C62.6156 49.9753 62.5375 50.0143 62.4613 50.0553C62.4164 50.0787 62.3715 50.1041 62.3285 50.1295C61.3833 50.6663 60.9497 51.3066 60.7446 52.2514C60.7056 52.4271 60.6743 52.6125 60.6509 52.8097C60.647 52.8097 60.6411 52.8097 60.6372 52.8097C60.0962 52.88 59.5748 52.9483 59.0729 53.2235C59.067 53.2255 59.0631 53.2294 59.0572 53.2333C58.942 53.2958 58.8287 53.366 58.7174 53.4402C58.2116 53.774 57.7546 54.2015 57.3972 54.6817C56.5632 55.8081 56.3601 57.3307 57.1316 58.541C57.2663 58.7538 57.4323 58.947 57.6042 59.1325C57.6921 59.2262 57.7819 59.3179 57.8679 59.4097C58.1217 59.6752 58.3678 59.9465 58.5397 60.2666C58.9654 61.0611 58.7291 62.045 59.0963 62.8941C59.1256 62.9625 59.1588 63.0288 59.192 63.0932C59.2662 63.2377 59.3502 63.3685 59.442 63.4856C60.0279 64.243 60.9282 64.5319 61.8793 64.7642C61.8833 64.8033 61.893 64.8443 61.9067 64.8853C61.9672 65.0473 62.0239 65.2152 62.0786 65.3869C62.1196 65.5119 62.1606 65.6388 62.2035 65.7656C62.4477 66.4918 62.7387 67.216 63.3617 67.6826C63.8324 68.0359 64.3929 68.1101 64.9671 68.0984C65.2795 68.0906 65.6428 67.9539 65.9436 67.9715C66.301 67.991 66.5119 68.1296 66.8439 68.2428C68.002 68.6391 69.086 68.3307 69.5664 67.1575C69.7988 66.5855 69.8476 65.955 69.8027 65.344C69.7656 64.8306 69.5898 64.3387 69.4824 63.837C69.3555 63.2514 69.3731 62.576 69.4492 61.963C69.4805 61.7014 69.4531 61.4359 69.4356 61.1744C69.3965 60.5614 69.4434 60.6161 69.998 60.3896C70.3925 60.2295 70.7148 59.9582 70.9628 59.6283C71.0527 59.5092 71.1327 59.3823 71.203 59.2496C71.2694 59.1266 71.328 58.9978 71.3769 58.865C71.6171 58.2326 71.5975 57.4927 71.9706 56.911C72.4725 56.1282 73.4978 56.2453 74.2576 55.8901C74.7341 55.6656 75.1091 55.2654 75.4118 54.832C75.9547 54.0512 76.316 53.0439 76.4098 52.0249C76.4274 51.8336 76.4371 51.6404 76.4352 51.4491C76.4352 51.3241 76.4274 51.1953 76.4176 51.0704V51.0723Z" fill="#3D201B"/>
<path d="M76.4351 51.4511C76.4351 51.6424 76.4273 51.8357 76.4097 52.027C76.0133 52.4076 75.5582 52.7336 75.0368 52.9913C73.3103 53.8404 70.789 53.5262 69.2832 52.2905C69.1094 52.1499 68.9727 51.9235 68.7969 51.7927C68.3633 51.4765 67.6876 51.5838 67.2032 51.7712C66.7384 51.9489 66.3654 52.187 65.8654 52.2983C65.0354 52.4837 64.1136 52.4623 63.3968 51.9547C62.7738 51.5116 62.4086 50.8362 62.3285 50.1295C62.3715 50.1042 62.4164 50.0788 62.4613 50.0554C62.5375 50.0144 62.6156 49.9753 62.6957 49.9363C62.7133 50.2779 62.8129 50.6195 63.0004 50.9416C63.6136 51.9977 64.8167 52.1714 65.926 51.8845C67.09 51.5819 68.0059 50.4672 69.0723 51.5175C70.5605 52.9815 73.0545 53.5652 74.9626 52.5892C75.5368 52.2963 76.0211 51.9059 76.4351 51.4511Z" fill="#AB794F"/>
<path d="M71.203 59.2516C71.1327 59.3843 71.0526 59.5112 70.9628 59.6303C70.3808 59.5795 69.83 59.4351 69.3594 59.0525C68.9278 58.7011 68.7129 58.2014 68.4864 57.7094C68.0919 56.8622 67.6056 56.2161 66.7247 55.8315C65.3537 55.2322 63.8089 55.8022 62.4418 55.2342C61.3637 54.7852 61.1372 53.7252 60.6372 52.8117C60.6411 52.8117 60.647 52.8117 60.6509 52.8117C60.6743 52.6145 60.7056 52.429 60.7446 52.2534C61.0434 52.7023 61.2251 53.1865 61.4653 53.6862C61.9242 54.6388 62.6371 55.0116 63.6644 55.0917C64.8342 55.1815 65.9396 55.0058 67.0333 55.5387C68.2794 56.1458 68.4981 57.1277 69.1641 58.217C69.6269 58.9744 70.3788 59.193 71.203 59.2535V59.2516Z" fill="#AB794F"/>
<path d="M60.1548 57.2096C59.7505 58.2872 58.6998 58.742 57.8678 59.4116C57.7819 59.3198 57.6921 59.2281 57.6042 59.1344C58.0768 58.7674 58.6139 58.4687 59.0924 58.0392C60.5884 56.6982 59.7955 54.789 58.7174 53.4421C58.8287 53.3679 58.942 53.2976 59.0572 53.2352C59.9595 54.3518 60.6763 55.8119 60.1548 57.2096Z" fill="#AB794F"/>
<path d="M68.5626 61.6663C67.9923 61.9337 67.4572 62.3182 67.1232 62.8629C66.8459 63.3119 66.7775 63.8428 66.5822 64.323C66.3557 64.8852 65.9807 65.2796 65.426 65.5314C64.6292 65.8925 63.8363 65.7051 62.9965 65.6973C62.723 65.6953 62.4594 65.7188 62.2035 65.7676C62.1606 65.6407 62.1196 65.5138 62.0786 65.3889C62.0942 65.385 62.1098 65.3811 62.1254 65.3791C63.1273 65.2093 64.1566 65.5743 65.1272 65.2229C66.34 64.7857 66.217 63.5969 66.7853 62.6657C67.1544 62.0645 67.7345 61.6253 68.3653 61.3285C68.5918 61.2231 68.7891 61.5608 68.5626 61.6663Z" fill="#AB794F"/>
<path d="M67.7696 61.2153C65.8654 61.0787 64.5335 63.0034 62.7601 63.468C61.9145 63.6886 61.0727 63.5754 60.2134 63.5168C59.9537 63.4992 59.6978 63.4895 59.442 63.4875C59.3502 63.3704 59.2662 63.2396 59.192 63.0952C59.4146 63.0913 59.6373 63.0971 59.8619 63.1069C60.9165 63.1557 61.9457 63.3411 62.973 62.9937C64.6526 62.4256 65.8752 60.6882 67.7696 60.8249C68.0196 60.8444 68.0196 61.2348 67.7696 61.2153Z" fill="#AB794F"/>
<path d="M67.3868 63.9698C68.1622 64.7604 69.8808 65.7677 70.9335 64.9459C72.0506 64.0752 71.6093 62.0685 70.7909 61.3326C70.2148 60.8153 69.4238 60.3116 68.6153 60.4112C67.9317 60.4951 67.2658 60.9363 66.9513 61.5453C66.5236 62.373 66.7463 63.3198 67.3868 63.9718V63.9698Z" fill="#F2A688"/>
<path d="M74.1794 63.8408C74.7263 64.3211 75.525 64.1961 75.9586 63.6339C76.1109 63.4348 75.7731 63.2396 75.6207 63.4368C75.3454 63.794 74.7966 63.8643 74.4548 63.5656C74.2673 63.3997 73.99 63.6749 74.1794 63.8408Z" fill="#3D201B"/>
<path d="M48.2453 108.754C48.2453 108.754 47.4641 115.587 52.2158 119.036C56.9675 122.485 65.3284 124.307 72.4764 123.852C79.6225 123.397 91.7976 112.836 91.7976 112.836L82.0969 101.793L48.2453 108.756V108.754Z" fill="#3D201B"/>
<path d="M83.9347 86.1454C83.4113 89.747 83.2531 93.372 82.9543 96.9951C82.8098 98.7324 82.6008 100.464 82.4309 102.199C82.2766 103.79 82.1282 105.407 81.7317 106.96C81.4153 108.202 80.9388 109.18 79.8861 109.92C79.3959 110.261 78.9565 110.644 78.5209 111.025C76.2672 112.241 74.031 113.537 71.5917 114.341C66.3205 116.075 58.9361 116.463 54.0399 113.849C52.0928 112.809 51.1436 111.731 49.3527 110.38C47.6555 109.1 46.4056 106.486 46.2279 104.46C45.7064 98.5294 45.7005 92.9016 46.2669 86.9946C46.5325 84.2011 46.8509 81.4116 47.2688 78.6377C47.4876 77.1795 47.6028 75.487 48.1985 74.1186C50.0597 69.8397 53.3232 68.1706 56.8581 67.9208C57.0905 67.9052 58.0807 68.0613 58.6979 68.1121C58.9654 68.1336 59.1627 68.1355 59.1998 68.0945C59.3697 67.9149 59.5513 67.7509 59.7427 67.6104C60.2857 67.2122 60.9184 66.9955 61.6508 67.0716C62.3676 67.1458 62.7621 67.5401 63.1644 68.0106C63.2484 68.1062 63.3304 68.2058 63.4163 68.3073C63.4398 68.3346 63.4652 68.3619 63.4886 68.3893C63.6741 69.6249 64.4592 70.8177 65.2151 71.2901C66.1095 71.8503 67.1778 72.0123 68.2325 71.9245C69.2734 71.8386 70.3183 71.4814 70.9413 71.1241C71.0233 71.0773 71.2186 70.9406 71.4745 70.7864C71.6776 70.6615 71.9217 70.5248 72.1737 70.4136C72.5799 70.232 73.0095 70.1169 73.3435 70.2184C73.8591 70.3745 74.3337 70.7767 74.6637 71.1905C75.0875 71.7215 75.0739 72.2954 75.2555 72.922C75.2789 73.004 75.2809 73.0782 75.2692 73.1445C75.2829 73.1563 75.2946 73.166 75.3082 73.1758C75.4059 73.2578 75.5172 73.33 75.6383 73.3944C76.234 73.7224 77.0601 73.8961 77.6011 74.1186C78.3491 74.4251 79.0873 74.7687 79.8021 75.1454C81.2415 75.9048 82.6848 76.9023 83.6984 78.1907C85.4014 80.3536 84.2921 83.6936 83.9347 86.1454Z" fill="#E7AA00"/>
<path d="M74.947 91.1759C74.947 91.1759 74.9606 91.2735 74.988 91.455C75.2985 93.5711 77.3179 107.072 78.7651 110.81C80.3373 114.87 86.2627 114.093 88.9969 112.854C91.7312 111.616 89.6746 84.0527 84.4191 78.5166C81.1634 75.0888 77.6011 74.1166 77.6011 74.1166L74.947 91.1759Z" fill="#E7AA00"/>
<path d="M69.3086 61.1393C68.3223 61.0905 67.6251 62.004 67.9825 62.9391C68.1602 63.4037 68.4883 63.7843 68.9981 63.8527C69.5137 63.9229 70.2011 63.8448 70.6718 63.6204C70.8984 63.513 70.7011 63.1753 70.4745 63.2826C70.1386 63.4427 69.7246 63.4544 69.3574 63.47C68.9219 63.4876 68.6211 63.3529 68.4161 62.9547C68.0509 62.2461 68.4903 61.4887 69.3066 61.5297C69.5586 61.5414 69.5566 61.151 69.3066 61.1393H69.3086Z" fill="#3D201B"/>
<path d="M75.6383 73.3944C74.9626 74.2377 74.1599 74.9951 73.5994 75.9223C72.5428 77.6675 71.6795 79.5005 70.5214 81.1891C68.7383 83.7912 66.5333 86.4812 63.2933 87.1898C60.2466 87.8593 57.4792 86.0751 55.9851 83.4886C55.2332 82.1905 54.8035 80.7284 54.493 79.2682C54.1864 77.8217 53.6142 75.9907 53.9227 74.5227C54.1922 73.25 54.9149 72.2622 55.7976 71.3564C56.8112 70.3179 57.7057 69.1701 58.6978 68.1121C58.9654 68.1335 59.1627 68.1355 59.1998 68.0945C59.3697 67.9149 57.4011 70.2516 56.1824 71.5204C54.9129 72.842 54.0477 74.2318 54.3309 76.1468C54.743 78.9246 55.2098 81.9699 56.9675 84.2558C57.9811 85.5715 59.4166 86.6198 61.0825 86.8852C62.8089 87.1624 64.553 86.5436 65.9787 85.591C68.6035 83.838 70.4472 80.8221 71.9608 78.1243C72.6092 76.9706 73.1306 75.6998 74.0036 74.6886C74.4431 74.183 74.8825 73.6892 75.3082 73.1758C75.4059 73.2578 75.5172 73.33 75.6383 73.3944Z" fill="#3D201B"/>
<path d="M72.1737 70.4135C71.9276 70.7551 71.7167 71.1397 71.4862 71.4891C71.0565 72.1411 70.5859 72.7619 70.0644 73.3436C69.0371 74.4836 67.8302 75.3991 66.5881 76.2912C64.3108 77.9271 61.52 79.5649 58.5885 79.1706C55.6453 78.7743 56.5652 74.999 57.7175 73.3085C58.5162 72.1392 59.5689 71.249 60.6919 70.4057C61.5122 69.7888 62.2426 69.1817 62.8793 68.3716C62.975 68.2506 63.0687 68.1296 63.1644 68.0105C63.2484 68.1062 63.3304 68.2057 63.4164 68.3072C62.9437 68.887 62.4809 69.4765 61.8989 69.9645C60.8696 70.8254 59.7369 71.5301 58.8287 72.5335C57.7038 73.775 56.7058 75.4831 57.0417 77.2243C57.405 79.1159 59.44 78.9519 60.9341 78.663C63.6859 78.1281 66.2892 76.2327 68.3809 74.4387C69.5352 73.449 70.5019 72.2953 71.3261 71.0187C71.3749 70.9406 71.4257 70.8644 71.4745 70.7864C71.6776 70.6614 71.9217 70.5248 72.1737 70.4135Z" fill="#3D201B"/>
<path d="M72.867 73.8902C71.9881 74.7491 71.1151 75.5182 70.5019 76.5977C69.791 77.849 69.3086 79.2116 68.625 80.4765C67.3282 82.8756 65.0979 84.6754 62.35 85.0248C62.1039 85.0561 62.1 85.4465 62.35 85.4153C64.7366 85.1127 66.7814 83.8126 68.1993 81.882C69.0957 80.66 69.6211 79.2369 70.2753 77.8822C71.0058 76.3674 71.9569 75.3289 73.1424 74.1674C73.322 73.9917 73.0467 73.7145 72.867 73.8921V73.8902Z" fill="#3D201B"/>
<path d="M73.3142 94.6018C74.0857 96.023 75.2399 97.0302 75.6403 98.6544C76.0426 100.292 76.277 101.977 76.5348 103.642C76.7926 105.295 77.0269 106.96 77.4722 108.577C77.8667 110.015 78.5952 111.259 79.2182 112.606C79.3237 112.834 79.6596 112.635 79.5561 112.409C78.8393 110.857 78.0679 109.438 77.6675 107.757C77.2789 106.125 77.0582 104.454 76.7984 102.799C76.5445 101.188 76.357 99.486 75.8493 97.9301C75.404 96.5656 74.3259 95.6443 73.6541 94.4047C73.5349 94.1841 73.1971 94.3813 73.3162 94.6018H73.3142Z" fill="#3D201B"/>
<path d="M48.6789 103.244C48.7043 104.471 48.6535 105.658 49.132 106.816C49.5265 107.772 50.1358 108.596 50.8624 109.324C51.0401 109.502 51.3155 109.227 51.1377 109.049C50.3878 108.297 49.755 107.429 49.3937 106.422C49.0285 105.397 49.089 104.313 49.0675 103.244C49.0617 102.992 48.6711 102.992 48.6769 103.244H48.6789Z" fill="#3D201B"/>
<path d="M53.0459 109.721C53.5888 110.806 54.0458 111.807 55.0692 112.524C55.2762 112.668 55.4715 112.331 55.2664 112.186C54.3075 111.515 53.8896 110.535 53.3837 109.523C53.2704 109.299 52.9345 109.496 53.0459 109.721Z" fill="#3D201B"/>
<path d="M72.7752 67.9871L72.6541 68.3677C71.91 68.3053 71.1464 68.1159 70.4999 67.7509C70.2812 67.626 70.4784 67.2902 70.6972 67.4132C71.3163 67.7626 72.0623 67.9363 72.7752 67.9871Z" fill="#3D201B"/>
<path d="M108.965 71.7917L107.754 78.1887C107.754 78.1887 107.672 78.8973 104.471 79.1999C101.27 79.5024 98.9436 76.9218 98.9436 76.9218L100.897 69.4414L108.965 71.7937V71.7917Z" fill="#F2A688"/>
<path d="M178.533 94.6037C177.916 96.5226 177.486 97.6002 177.275 97.7466C177.064 97.893 176.34 97.6841 176.16 98.0979C175.912 98.666 176.81 99.0115 176.748 99.5503C176.728 99.7318 175.625 103.505 175.127 103.972C174.498 104.559 173.842 104.419 173.049 104.452C173.004 104.452 172.959 104.456 172.914 104.46C172.771 104.47 172.609 104.475 172.436 104.477C171.215 104.495 169.344 104.327 168.237 103.888C167.957 103.777 167.67 103.685 167.375 103.611C167.237 103.574 167.096 103.542 166.955 103.513C164.694 103.046 162.131 103.404 160.063 103.337C159.757 101.598 159.764 99.8568 159.833 98.0277C159.884 96.6963 159.942 95.3592 160.139 94.0396C160.309 92.9152 160.606 91.82 160.85 90.7132C161.977 90.9084 163.094 91.0821 164.133 91.2266C164.288 91.25 164.44 91.2696 164.588 91.291C165.534 91.4199 166.401 91.5233 167.135 91.5955C167.284 91.6112 167.428 91.6248 167.565 91.6365C168.655 91.7341 169.377 91.7537 169.506 91.6736C169.58 91.6268 169.656 91.5663 169.737 91.4901C169.82 91.4101 169.908 91.3144 170 91.2051C170.279 90.8694 170.584 90.4106 170.906 89.9031C170.975 89.7957 171.043 89.6864 171.111 89.5751C171.424 89.0754 171.746 88.5464 172.07 88.0486C172.145 87.9393 172.217 87.83 172.287 87.7246C172.709 87.1038 173.131 86.5592 173.531 86.2293C174.404 85.509 174.824 85.3606 175.789 85.263C176.07 85.2357 176.519 85.263 176.939 85.3138C177.146 85.3411 177.345 85.3723 177.515 85.4055C177.595 85.4231 177.67 85.4387 177.734 85.4562C178.181 85.5753 178.662 86.0165 178.968 86.5826C180.304 89.052 179.304 92.2124 178.533 94.6037Z" fill="#B87F54"/>
<path d="M161.846 103.374C160.923 103.97 156.399 103.825 150.857 103.376C150.728 103.367 150.599 103.355 150.47 103.345C149.829 103.292 149.177 103.236 148.517 103.175C147.673 103.099 147.13 100.684 146.265 100.599C145.318 100.505 144.048 102.74 143.097 102.64C134.367 101.713 125.911 100.556 125.911 100.556L104.574 107.712L115.191 86.4558C115.191 86.4558 127.214 81.1637 133.201 81.5111C139.191 81.8586 161.932 89.2336 162.67 90.5786C163.409 91.9216 164.538 101.639 161.846 103.374Z" fill="#3D201B"/>
<path d="M151.306 109.949C151.306 109.949 148.247 108.044 146.957 107.218C145.968 106.586 144.297 105.569 143.568 105.125C143.396 105.022 143.277 104.95 143.23 104.922C143.216 104.913 143.209 104.909 143.209 104.909C143.209 104.909 117.068 131.693 110.23 132.435C103.393 133.177 98.1761 130.84 91.8796 128.392C83.6671 125.201 85.9385 115.304 85.9385 115.304C85.9385 115.304 91.9284 108.319 96.6156 105.457C101.303 102.594 126.237 91.1193 134.373 89.4717C142.511 87.8222 145.767 90.3385 147.915 94.0162C150.064 97.692 151.306 109.949 151.306 109.949Z" fill="#3D201B"/>
<path d="M145.207 100.681C144.916 101.862 144.427 102.961 143.976 104.087C143.838 104.434 143.707 104.784 143.568 105.125C143.396 105.022 143.277 104.95 143.23 104.922C143.4 104.514 143.552 104.099 143.72 103.689C144.14 102.664 144.564 101.653 144.83 100.577C144.89 100.331 145.265 100.437 145.207 100.681Z" fill="#AB794F"/>
<path d="M150.857 103.376C150.728 103.367 150.599 103.355 150.47 103.345C150.109 100.47 149.531 97.5534 148.372 94.9825C147.099 92.1559 144.898 90.0359 141.844 89.302C139.187 88.6636 136.367 89.0013 133.74 89.6221C126.954 91.2248 120.45 94.27 114.089 97.0576C113.861 97.1571 113.662 96.8214 113.892 96.7199C117.935 94.9493 121.985 93.1885 126.126 91.6542C131.381 89.706 138.033 87.0922 143.584 89.462C146.359 90.6469 148.138 93.1085 149.154 95.8785C150.027 98.2581 150.525 100.819 150.857 103.376Z" fill="#AB794F"/>
<path d="M130.891 128.568C130.663 129.316 123.534 129.77 117.48 130.325C117.066 130.362 116.665 130.381 116.273 130.383C116.14 130.383 116.009 130.381 115.88 130.38C110.716 130.249 107.068 127.194 101.27 125.835L101.076 125.788C100.947 125.757 100.819 125.726 100.694 125.695C94.7075 124.184 91.8151 121.751 89.8015 120.162C87.3271 118.21 85.7979 117.168 85.3741 116.49C85.0264 115.932 84.7413 113.81 84.6515 113.082C84.6319 112.926 84.6222 112.834 84.6222 112.834C84.6222 112.762 84.6046 112.692 84.5733 112.619C84.4073 112.219 83.8429 111.811 83.6671 111.487C83.3097 110.827 83.1203 110.209 83.0109 109.477C82.4875 105.967 82.7043 103.505 82.966 99.072C83.1008 96.792 82.882 94.551 82.7727 92.2807C82.7395 91.58 82.7082 90.8811 82.6809 90.1803C82.675 90.0359 82.6691 89.8914 82.6652 89.7469C82.6125 88.3063 82.5813 86.8676 82.5793 85.427C82.5715 79.5376 85.5811 76.8691 87.9579 75.7954C90.3328 74.7218 95.063 74.5363 95.063 74.5363C95.063 74.5363 95.0708 74.5207 95.0864 74.4895C95.1235 74.4192 95.1997 74.2728 95.3091 74.0834C95.7075 73.3944 96.5316 72.1236 97.3968 71.7702C98.1136 71.4774 107.119 72.6838 108.42 73.3007C109.425 73.777 110.574 75.8013 111.044 76.6992C111.134 76.871 111.201 77.0018 111.236 77.0721C111.253 77.1111 111.263 77.1306 111.263 77.1306C113.872 78.5303 119.53 81.2769 122.071 85.7139C122.132 85.8155 122.188 85.9189 122.243 86.0224C122.249 86.0341 122.257 86.0477 122.263 86.0595C124.688 90.6859 123.048 98.8827 123.632 105.891C124.218 112.918 125.585 113.113 128.45 120.336C129.208 122.247 129.752 123.67 130.137 124.744C130.182 124.869 130.225 124.988 130.266 125.103C131.196 127.754 131.051 128.039 130.891 128.568Z" fill="#DA4D45"/>
<path d="M107.904 56.6319C109.838 57.8109 110.771 58.8221 111.378 63.755C111.626 65.7735 112.304 67.7743 112.044 69.8299C111.941 70.6537 111.625 71.5497 110.961 72.0865C109.795 73.0313 107.668 72.2466 105.726 72.0377C104.531 71.9089 103.203 71.4091 102.016 70.7688C98.9007 69.092 96.3071 66.9779 97.2308 62.1797C98.1546 57.3815 103.898 54.1879 107.902 56.6319H107.904Z" fill="#F2A688"/>
<path d="M110.519 61.5882C110.445 61.4535 110.328 61.352 110.168 61.3227C109.74 61.2446 109.285 61.5355 108.912 61.7014C108.564 61.8556 108.22 62.0489 107.926 62.287C107.724 62.449 107.174 63.0913 107.742 63.2182C107.834 63.2396 107.931 63.2221 108.025 63.2025C108.697 63.0678 109.398 62.8882 110.037 62.6364C110.505 62.451 110.789 62.0723 110.521 61.5862L110.519 61.5882Z" fill="#7D402D"/>
<path d="M110.822 63.7394C110.822 63.7394 112.878 65.2308 112.96 65.5958C113.044 65.9609 111.33 66.9408 111.33 66.9408L110.82 63.7394H110.822Z" fill="#F2A688"/>
<path d="M109.088 62.0234C108.74 62.775 107.715 63.8311 106.941 64.5592C106.465 65.0082 105.853 65.2932 105.4 65.7695C104.832 66.3688 105.109 67.0715 105.316 67.7586C105.732 69.1368 105.955 71.331 105.285 72.8302C104.289 73.0937 103.268 73.2694 102.256 73.0605C100.932 72.7853 99.6682 72.4495 98.3148 72.307C97.2523 72.1938 96.1215 72.2074 95.0649 71.9771C94.8443 71.9303 94.6275 71.8717 94.4146 71.7995C94.3833 71.7897 94.3521 71.778 94.3209 71.7643C94.0064 71.6433 93.731 71.4578 93.4713 71.2431C93.36 71.1494 93.2525 71.0499 93.1451 70.9503C92.737 70.5638 92.3522 70.1363 91.8991 69.8201C91.9811 67.7059 93.856 67.339 94.1158 65.3713C94.2759 64.1629 94.1236 61.7755 94.2427 60.0733C94.2525 59.9406 94.2623 59.8098 94.2759 59.6848C94.3091 59.3667 94.356 59.0817 94.4205 58.8454C95.1099 56.3077 96.6918 54.5919 99.2503 54.2502C99.4124 54.2288 99.5745 54.2073 99.7366 54.1858C99.8635 54.1722 99.9924 54.1565 100.121 54.1409C101.147 54.0199 102.188 53.934 103.225 53.9282C103.398 53.9243 103.574 53.9262 103.75 53.9301C104.568 53.9477 105.385 54.0179 106.189 54.1683C106.984 54.3166 107.808 54.545 108.533 54.9354C108.648 54.9959 108.761 55.0623 108.871 55.1345C108.916 55.1619 108.959 55.1912 109.002 55.2204C109.898 55.8353 110.449 56.7919 110.507 57.8811C110.589 59.4389 109.711 60.6745 109.088 62.0234Z" fill="#7D402D"/>
<path d="M108.871 55.1346C108.248 56.4034 107.894 57.6489 107.513 59.0036C107.258 59.9094 106.82 60.6961 106.062 61.2739C105.359 61.8088 104.506 62.0957 103.689 62.4041C103.115 62.6208 102.482 62.8297 102.035 63.2709C101.424 63.8721 101.432 64.7232 101.324 65.5138C101.067 67.4171 100.188 69.4746 98.5999 70.6419C97.7386 71.2783 96.6976 71.5477 95.6782 71.8171C95.4731 71.8717 95.27 71.9244 95.0649 71.9772C94.8442 71.9303 94.6275 71.8717 94.4146 71.7995C94.3833 71.7898 94.3521 71.778 94.3208 71.7644C94.8911 71.6336 95.4575 71.4755 96.0219 71.3232C97.1644 71.0109 98.2347 70.6048 99.051 69.7088C99.9045 68.7718 100.461 67.5928 100.764 66.3727C100.988 65.4728 100.895 64.4109 101.332 63.5754C102.131 62.0547 104.299 61.9786 105.611 61.1158C106.818 60.3213 107.078 59.0563 107.412 57.7504C107.664 56.7646 108.082 55.8432 108.533 54.9355C108.648 54.996 108.761 55.0624 108.871 55.1346Z" fill="#3D201B"/>
<path d="M103.75 53.9301C103.387 54.3069 103.074 54.7285 102.83 55.1814C102.281 56.2023 102.24 57.3951 102.051 58.5155C101.885 59.4994 101.66 60.4871 101.197 61.3792C100.799 62.1503 100.195 62.7535 99.6194 63.3899C98.7854 64.3093 98.3831 65.2717 97.9944 66.4332C97.7386 67.1984 97.4476 67.9168 96.9535 68.5649C96.0649 69.7283 94.8364 70.679 93.4713 71.2431C93.3599 71.1494 93.2525 71.0499 93.1451 70.9503C95.0181 70.2378 96.6937 68.762 97.4164 66.9056C97.7366 66.0857 97.9241 65.2131 98.3479 64.4343C98.7542 63.6866 99.3752 63.0951 99.9396 62.4666C101.576 60.6355 101.486 58.455 102.033 56.214C102.238 55.3707 102.66 54.5919 103.225 53.9282C103.398 53.9243 103.574 53.9262 103.75 53.9301Z" fill="#3D201B"/>
<path d="M100.121 54.141C99.9885 54.7461 99.8342 55.3396 99.5198 55.9174C99.0374 56.8075 98.4964 57.7484 97.7367 58.4336C96.7875 59.2886 95.5317 59.9152 94.2427 60.0734C94.2525 59.9406 94.2623 59.8098 94.2759 59.6849C95.6196 59.5014 96.9613 58.7616 97.8245 57.7933C98.428 57.1179 98.9417 56.2531 99.3381 55.4391C99.5354 55.037 99.6487 54.6134 99.7366 54.1859C99.8635 54.1722 99.9924 54.1566 100.121 54.141Z" fill="#3D201B"/>
<path d="M113.267 70.2144C113.171 69.8884 113.087 69.5605 113.003 69.2306C112.97 69.1056 112.937 68.9788 112.902 68.8538C112.783 68.4185 112.703 67.9422 112.513 67.5284C112.238 66.9291 112.228 66.6245 111.541 66.767C110.99 66.8803 110.543 67.1516 110.115 67.5049C109.718 67.8329 108.318 67.0559 107.885 66.4254C107.554 65.9413 107.392 65.3459 107.269 64.7915C107.236 64.6412 107.205 64.4948 107.176 64.3543C107.037 63.712 106.904 63.1928 106.529 63.0835C105.963 62.9195 104.6 66.3044 104.088 66.5972C103.742 66.7963 105.006 68.0417 105.057 68.3814C105.119 68.8206 105.635 68.8597 105.824 69.2598C106.123 69.9001 106.166 70.8664 106.597 71.4247C107.054 72.0201 107.556 72.6155 108.232 72.9434C109 73.3182 109.892 73.3007 110.746 73.2558C111.332 73.2245 111.927 73.1816 112.48 72.9883C113.052 72.7873 113.384 72.3324 113.462 71.7195C113.527 71.2139 113.412 70.7044 113.267 70.2144Z" fill="#7D402D"/>
<path d="M107.269 64.7915C106.678 65.3225 106.055 65.8105 105.307 66.1209C105.074 66.2185 104.975 65.8398 105.203 65.7461C105.957 65.4318 106.58 64.9047 107.176 64.3542C107.205 64.4948 107.236 64.6412 107.269 64.7915Z" fill="#3D201B"/>
<path d="M108.521 63.9482C108.84 63.712 108.945 63.5929 109.334 63.5012C110.099 63.3216 111.308 64.4343 110.425 65.0531C109.746 65.5294 109.009 65.5977 108.422 65.4123C108.287 65.3693 108.158 65.3069 108.051 65.2151C107.943 65.1234 107.861 64.9945 107.851 64.854C107.822 64.4655 108.248 64.1493 108.521 63.9463V63.9482Z" fill="white"/>
<path d="M109.775 63.5539C110.013 63.507 110.109 63.3958 110.355 63.5285C110.546 63.632 110.697 63.8116 110.777 64.0126C110.98 64.528 110.837 65.1741 110.211 65.2776C109.191 65.4474 108.791 63.7491 109.775 63.5539Z" fill="#3D201B"/>
<path d="M110.629 63.3157C109.392 62.9605 108.189 63.8701 107.461 64.7915C107.306 64.9867 107.582 65.2639 107.736 65.0667C108.373 64.2625 109.431 63.3762 110.525 63.6925C110.767 63.7628 110.871 63.386 110.629 63.3157Z" fill="#3D201B"/>
<path d="M103.107 68.6586C103.242 68.8421 103.398 69.0139 103.57 69.1681C104.418 69.9275 105.76 70.5365 106.646 69.5117C106.676 69.4766 106.705 69.4414 106.732 69.4043C107.998 67.747 106.068 64.7584 104.027 65.3635C103.566 65.5002 103.176 65.8047 102.914 66.2049C102.379 67.0247 102.578 67.9383 103.106 68.6567L103.107 68.6586Z" fill="#F2A688"/>
<path d="M110.043 68.4986C110.605 68.9534 111.402 68.8168 111.814 68.2312C111.959 68.0262 111.621 67.831 111.476 68.034C111.218 68.399 110.675 68.5103 110.318 68.2214C110.125 68.0652 109.845 68.3385 110.043 68.4966V68.4986Z" fill="#3D201B"/>
<path d="M104.863 65.8613C104.394 65.8711 104.016 66.0058 103.748 66.4118C103.488 66.8061 103.43 67.341 103.635 67.7724C103.988 68.5162 105.258 68.8578 106.004 68.6352C106.244 68.563 106.142 68.1863 105.9 68.2585C105.426 68.401 104.576 68.2136 104.205 67.8837C103.943 67.6494 103.848 67.2942 103.93 66.9525C104.043 66.4801 104.402 66.2596 104.863 66.2517C105.115 66.2459 105.115 65.8555 104.863 65.8613Z" fill="#3D201B"/>
<path d="M110.23 135.687C109.791 137.134 108.957 138.768 108.008 140.138C107.273 141.198 106.471 142.098 105.73 142.633C104.693 143.382 103.027 144.331 102.065 144.286C101.961 144.282 101.865 144.267 101.779 144.237C101.738 144.224 101.699 144.21 101.66 144.194C101.039 143.974 100.522 143.695 100.096 143.373C99.9885 143.292 99.885 143.209 99.7893 143.123C99.2307 142.627 98.8557 142.055 98.6116 141.467C98.5374 141.284 98.4729 141.1 98.4222 140.915C98.1351 139.888 98.1995 138.869 98.3519 138.164C98.7386 136.367 100.047 134.508 100.397 133.848C102.676 129.565 107.168 130.918 109.707 132.101C110.269 132.363 110.525 132.925 110.552 133.661C110.576 134.247 110.455 134.941 110.23 135.687Z" fill="#F2A688"/>
<path d="M114.214 134.565C114.214 134.565 112.673 138.404 110.461 140.573C109.752 141.266 108.666 141.161 108.211 140.591C108.105 140.462 108.035 140.31 108.008 140.138C107.998 140.077 107.998 140.015 108.006 139.949C108.049 139.56 108.357 139.064 108.578 138.461C109.423 136.152 110.925 132.822 110.925 132.822L114.214 134.565Z" fill="#F2A688"/>
<path d="M110.933 135.314C109.898 136.915 108.736 138.752 108.211 140.591C108.105 140.462 108.035 140.31 108.008 140.138C107.998 140.078 107.998 140.015 108.006 139.949C108.593 138.254 109.642 136.595 110.595 135.117C110.732 134.906 111.07 135.102 110.933 135.314Z" fill="black"/>
<path d="M103.875 97.9203C103.426 100.177 103.195 102.492 102.934 104.735C101.76 115.153 101.361 122.058 100.582 132.513C100.582 132.513 101.848 134.799 106.568 135.839C111.289 136.88 113.966 135.092 114.162 134.863C114.667 134.272 114.904 133.112 115.189 132.404C115.937 130.553 120.769 111.427 121.308 107.89C122.007 103.298 122.479 98.6718 122.72 94.0337C122.798 92.5286 122.833 90.8225 122.005 89.4931C121.134 88.0954 119.487 87.2951 118.021 86.6841C116.003 85.8408 113.677 85.7725 111.623 86.5357C109.174 87.4454 107.24 89.4463 105.988 91.738C104.935 93.6667 104.303 95.7652 103.873 97.9203H103.875Z" fill="#DA4D45"/>
<path d="M177.06 95.0175C176.67 96.1029 176.08 97.0906 175.633 98.1487C175.17 99.2399 175.057 100.481 174.695 101.616C174.355 102.683 173.82 103.681 173.049 104.452C173.004 104.452 172.959 104.456 172.914 104.46C172.772 104.469 172.609 104.475 172.436 104.477C173.324 103.737 173.875 102.713 174.275 101.594C174.32 101.475 174.361 101.354 174.4 101.233C174.441 101.106 174.48 100.977 174.519 100.848C174.769 100.013 174.851 99.1266 175.142 98.3048C175.41 97.5533 175.848 96.8642 176.178 96.138C176.992 94.3577 177.521 92.3061 177.847 90.3735C177.867 90.2544 177.886 90.1276 177.904 89.9948C177.922 89.8699 177.937 89.741 177.951 89.6063C178.093 88.1638 178.009 86.2273 176.941 85.3137C177.146 85.341 177.345 85.3723 177.515 85.4055C178.131 86.2175 178.361 87.3907 178.379 88.3531C178.422 90.5551 177.802 92.9542 177.06 95.0175Z" fill="#3D201B"/>
<path d="M173.086 91.2071C172.359 90.7718 171.656 90.2936 170.906 89.9031C170.975 89.7958 171.043 89.6865 171.111 89.5752C171.857 89.9676 172.557 90.4361 173.283 90.8694C173.498 90.9983 173.303 91.336 173.086 91.2071Z" fill="#3D201B"/>
<path d="M170.76 92.8781C170.512 92.4154 170.272 91.9801 169.881 91.619C169.834 91.5741 169.785 91.5311 169.737 91.4901C169.82 91.4101 169.908 91.3145 170 91.2051C170.09 91.2793 170.178 91.3594 170.262 91.4433C170.623 91.8044 170.858 92.2339 171.096 92.6809C171.215 92.9015 170.877 93.0987 170.76 92.8781Z" fill="#3D201B"/>
<path d="M167.813 93.2998C167.817 93.5516 167.426 93.5516 167.422 93.2998C167.414 92.7005 167.336 92.1305 167.135 91.5956C167.284 91.6112 167.428 91.6249 167.565 91.6366C167.737 92.1636 167.807 92.7239 167.813 93.2998Z" fill="#3D201B"/>
<path d="M164.928 93.2021C164.928 93.454 164.54 93.454 164.538 93.2021C164.53 92.4994 164.422 91.8376 164.133 91.2266C164.288 91.25 164.44 91.2696 164.588 91.291C164.827 91.8903 164.918 92.5365 164.928 93.2021Z" fill="#3D201B"/>
<path d="M174.312 101.596C174.301 101.594 174.289 101.594 174.275 101.594C172.117 101.424 168.897 101.744 167.375 103.611C167.237 103.573 167.096 103.542 166.955 103.513C168.512 101.411 171.973 101.016 174.312 101.206C174.346 101.208 174.375 101.217 174.4 101.233C174.559 101.325 174.529 101.614 174.312 101.596Z" fill="#3D201B"/>
<path d="M178.066 90.0027C178.011 90.0007 177.959 89.9988 177.904 89.9949C175.812 89.8953 173.762 89.2726 172.07 88.0486C172.145 87.9393 172.217 87.83 172.287 87.7246C173.928 88.9056 175.924 89.5186 177.951 89.6064C177.99 89.6103 178.027 89.6103 178.066 89.6123C178.318 89.622 178.318 90.0124 178.066 90.0027Z" fill="#3D201B"/>
<path d="M103.877 97.9203C102.908 102.978 102.494 108.11 102.063 113.234C101.709 117.418 101.385 121.601 101.076 125.788C100.947 125.757 100.819 125.726 100.694 125.695C101.008 121.416 101.344 117.139 101.703 112.864C102.127 107.827 102.549 102.787 103.5 97.8169C103.547 97.5709 103.924 97.6763 103.877 97.9203Z" fill="#3D201B"/>
<path d="M122.813 98.7226C122.337 104.922 121.165 110.888 119.687 116.92C118.925 120.028 118.152 123.131 117.339 126.225C116.978 127.602 116.654 129.001 116.273 130.383C116.14 130.383 116.009 130.381 115.88 130.38C116.308 128.841 116.661 127.28 117.06 125.751C117.837 122.78 118.579 119.799 119.31 116.816C120.78 110.82 121.948 104.887 122.423 98.7226C122.442 98.4728 122.833 98.4728 122.813 98.7226Z" fill="#3D201B"/>
<path d="M122.263 86.0595C121.222 86.448 120.206 86.9379 119.228 87.3303C117.079 88.1931 114.937 89.093 112.915 90.2311C110.966 91.3301 108.941 92.5717 107.226 94.0123C105.933 95.0957 104.25 96.2533 103.867 97.9887C103.812 98.2327 103.436 98.1292 103.49 97.8833C103.549 97.6158 103.635 97.366 103.742 97.1298C103.801 96.997 103.867 96.8701 103.939 96.7472C104.59 95.6286 105.719 94.8087 106.693 93.9576C108.408 92.4565 110.449 91.2072 112.417 90.0671C114.503 88.8588 116.73 87.9179 118.962 87.018C119.97 86.6139 121.007 86.1142 122.071 85.714C122.132 85.8155 122.188 85.919 122.243 86.0224C122.249 86.0341 122.257 86.0478 122.263 86.0595Z" fill="#3D201B"/>
<path d="M111.236 77.0721C111.009 77.1482 110.781 77.2146 110.545 77.2556C109.72 77.402 108.871 77.4566 108.039 77.5074C106.211 77.6206 104.5 77.5933 102.707 77.2263C101.779 77.0369 100.836 76.9784 99.9045 76.8124C99.0042 76.6504 98.1312 76.3752 97.2367 76.18C96.1723 75.9477 95.5473 75.3406 95.0864 74.4895C95.1235 74.4192 95.1997 74.2728 95.3091 74.0834C95.6723 74.8526 96.1625 75.4948 97.0629 75.7427C97.7699 75.936 98.4964 76.1038 99.2092 76.2698C100.699 76.6172 102.266 76.7754 103.775 77.0447C105.496 77.3512 107.355 77.1951 109.09 77.0369C109.783 76.9725 110.414 76.873 111.045 76.6992C111.134 76.871 111.201 77.0018 111.236 77.0721Z" fill="#3D201B"/>
<path d="M103.973 97.1395C101.938 97.077 99.7737 96.6358 97.7953 96.1791C95.5317 95.6539 93.3502 94.8126 91.2058 93.9283C89.0887 93.0557 87.0068 92.1051 84.9132 91.1778C84.173 90.8499 83.4113 90.5434 82.6809 90.1803C82.675 90.0359 82.6692 89.8914 82.6653 89.7469C83.4054 90.1276 84.1906 90.4341 84.9425 90.7659C87.0615 91.7029 89.1668 92.6692 91.3093 93.5516C93.3971 94.4144 95.522 95.2342 97.723 95.7594C99.7131 96.2337 101.924 96.6866 103.973 96.7491C104.223 96.7569 104.223 97.1473 103.973 97.1395Z" fill="#3D201B"/>
<path d="M100.879 122.327C100.029 121.909 99.1135 121.677 98.2444 121.31C97.471 120.984 96.7406 120.551 96.0063 120.147C94.3892 119.255 92.7545 118.357 91.2058 117.347C90.1531 116.662 89.2684 115.757 88.2919 114.974C87.2021 114.101 85.9053 113.642 84.6515 113.082C84.6319 112.926 84.6222 112.834 84.6222 112.834C84.6222 112.762 84.6046 112.692 84.5733 112.62C85.8487 113.203 87.1982 113.642 88.3231 114.505C89.3719 115.309 90.2918 116.287 91.403 117.012C92.9518 118.019 94.5864 118.917 96.2035 119.809C97.1019 120.305 97.9866 120.808 98.9495 121.164C99.6662 121.427 100.389 121.652 101.076 121.989C101.301 122.101 101.104 122.437 100.879 122.327Z" fill="#3D201B"/>
<path d="M91.6901 94.1039C91.2585 96.3234 90.8679 98.5566 90.4597 100.782C90.0477 103.023 89.6082 105.211 89.5887 107.495C89.5809 108.567 89.3993 109.603 89.3348 110.667C89.2762 111.63 89.4032 112.606 89.4325 113.568C89.4793 115.142 90.2254 116.118 91.1667 117.318C91.321 117.515 91.5964 117.238 91.4421 117.043C90.9402 116.403 90.3601 115.772 90.0613 115.003C89.741 114.181 89.8367 113.275 89.7801 112.409C89.6571 110.529 89.9559 108.666 89.9852 106.781C90.0184 104.616 90.5437 102.445 90.9402 100.323C91.321 98.2872 91.6706 96.2415 92.0671 94.2093C92.1139 93.9634 91.739 93.858 91.6901 94.1059V94.1039Z" fill="#3D201B"/>
<path d="M130.266 125.103C129.129 125.48 127.94 125.778 126.768 126.015C123.608 126.651 120.214 127.077 116.991 127.104C116.74 127.104 116.741 126.715 116.991 126.714C120.091 126.688 123.313 126.263 126.358 125.698C127.489 125.488 128.614 125.193 129.717 124.867C129.854 124.826 129.995 124.785 130.137 124.744C130.182 124.869 130.225 124.988 130.266 125.103Z" fill="#3D201B"/>
<path d="M101.08 136.831C100.244 138.36 99.2717 139.851 98.6116 141.467C98.5374 141.284 98.473 141.1 98.4222 140.915C99.0803 139.437 99.969 138.051 100.744 136.636C100.863 136.413 101.201 136.611 101.08 136.831Z" fill="black"/>
<path d="M105.225 138.688C104.195 140.587 103.197 142.457 102.065 144.286C101.961 144.282 101.865 144.267 101.779 144.237C101.738 144.224 101.699 144.21 101.66 144.194C102.822 142.332 103.838 140.425 104.889 138.492C105.008 138.27 105.346 138.467 105.225 138.688Z" fill="black"/>
<path d="M103.049 137.838C102.049 139.675 101.145 141.563 100.096 143.373C99.9885 143.293 99.885 143.209 99.7893 143.123C100.824 141.329 101.721 139.461 102.711 137.641C102.832 137.419 103.17 137.618 103.049 137.838Z" fill="black"/>
<path d="M74.2302 56.8505C73.8376 56.8895 73.4607 57.0301 73.0779 57.1648C72.6873 57.3034 72.162 57.604 71.9276 57.9632C71.8143 58.1389 71.8631 58.3126 72.0428 58.4024C72.2713 58.5176 72.5467 58.4004 72.7811 58.3477C73.2713 58.2404 73.7595 58.131 74.2497 58.0237C74.6013 57.9456 75.0055 57.8675 75.0895 57.4498C75.2282 56.7665 74.7165 56.7255 74.2302 56.8485V56.8505Z" fill="#3D201B"/>
</svg>
