<svg width="198" height="665" viewBox="0 0 198 665" fill="none" xmlns="http://www.w3.org/2000/svg">
<g clip-path="url(#clip0_62_148)">
<path d="M221.15 559.47C219.92 559.15 218.77 558.59 217.65 557.99C215.29 556.67 213.41 554.73 211.44 552.91C209.4 550.19 207.8 547.12 206.38 544.04C205.03 540.43 203.47 536.79 200.91 533.87C198.36 531.43 194.55 530.43 192.68 527.26C192.54 527.01 192.42 526.72 192.14 526.63C191.74 526.5 191.32 526.89 191.43 527.29C191.82 529.68 192.25 532.06 192.66 534.44C193.83 541.2 197.24 547.69 202.61 551.99C203.58 552.76 204.63 553.41 205.72 554C208.03 555.62 210.6 556.94 213.22 557.89C214.8 558.63 216.46 559.17 218.15 559.62C219.04 559.98 219.98 560.25 220.98 560.4C221.52 560.46 221.69 559.61 221.17 559.47L221.15 559.47Z" fill="#86A896"/>
<path d="M220.81 564.87C220.99 565.01 221.27 565.02 221.38 565.23C221.44 565.4 221.32 565.58 221.15 565.59C218.83 564.64 216.52 563.55 214.15 562.66C211.1 562.23 207.92 563.5 205.65 565.61C203.88 566.78 202.1 567.93 200.24 568.94C195.99 570.93 191.04 570.82 186.55 569.81C185.38 569.56 184.2 569.37 183.02 569.26C182.35 569.25 181.37 569.14 181.64 568.22C181.73 567.98 181.93 567.82 182.14 567.69C182.93 567.19 183.75 566.74 184.55 566.24C186.76 564.66 188.76 562.96 191.16 561.69C195.83 559.05 201.34 558.58 206.58 559.26C208.1 559.53 209.59 559.92 211.05 560.41C211.76 560.57 212.46 560.75 213.15 560.98C215.82 562.02 218.31 563.52 220.82 564.87L220.81 564.87Z" fill="#6A7F6F"/>
<path d="M201.12 296C201.38 295.49 200.64 295.03 200.28 295.46C199.44 296.5 198.72 297.62 197.76 298.58C193.79 302.56 188.45 304.61 183.24 306.49C179.16 308.04 175.17 309.98 171.71 312.65C169.19 314.49 167.24 316.94 166.02 319.81C165.17 321.67 164.74 323.74 163.58 325.45C163.31 325.7 163.26 326.17 163.66 326.31C173.98 323.59 187.43 320.79 193.83 311.46C195.48 308.93 196.88 306.21 197.9 303.37C198.01 303.09 198.1 302.81 198.2 302.53C198.5 301.91 198.78 301.27 199.06 300.64C199.4 299.85 199.82 298.97 200.2 298.16C200.27 297.87 200.57 297.43 200.59 297.09C200.65 296.94 200.7 296.79 200.76 296.64C200.88 296.43 201.02 296.22 201.14 296.01L201.12 296Z" fill="#86A896"/>
<path d="M215.97 617C216.75 614.47 219.7 613.57 220.54 616.62C221 618.15 220.84 619.79 220.85 621.37C220.79 635.81 222.64 635.21 222.97 637.54C227.84 649.93 220.35 646.42 218.42 654.65C218.23 655.39 218.26 655.28 218.4 655.62C223.15 666.04 224.78 666.84 226.06 669.79C229.47 677.86 218.4 682.46 214.86 668.1C213.58 663.07 214.22 661.1 213.63 667.42C213.45 669.2 212.66 675.58 211.25 677.79C209.54 680.44 206.84 681.12 204.13 679.44C203.06 678.74 201.97 677.97 201.31 676.85C199.35 673.15 202.62 666.6 202.73 666.28C203.25 664.75 203.67 663.18 204.41 661.73C205.23 660.01 206.01 659.63 205.21 660.15C203.88 661.02 203.31 662.02 201.18 662.87C199.72 663.49 198.11 663.64 196.66 664.27C193.48 665.75 191.5 669.19 186.1 666.42C183.27 664.92 184.75 661.85 186.69 659.3C188.89 656.35 191.15 654.57 196.94 653.57C193.08 653.34 185.31 651.64 183.4 647.97C182.9 645.92 189.04 643.92 190.64 643.72C194.46 643.3 198.13 645.24 202.81 646.42C200.56 645.15 198.39 643.76 196.29 642.25C191.94 640.01 184.63 638.28 187.26 632.9C187.45 632.11 188.25 631.23 189.72 630.9C191.67 630.51 195.6 632.45 197.44 633.75C193.78 629.68 191.76 628.38 191.04 624.01C190.63 621.79 192.06 621.21 193.5 619.97C194.15 619.46 194.72 618.63 195.62 618.6C198.33 618.81 201.05 624.72 205.73 631.71C203.96 628.51 201.97 624.11 203.21 621C203.99 618.98 206.66 618.28 208.58 618.95C210.9 620.1 211.04 623.66 214.2 630.07C213.5 627.53 212.95 624.94 212.74 622.31C212.62 619.59 212.82 617.48 215.96 616.98L215.97 617Z" fill="#E7AA00"/>
<path d="M187.85 539.92C188.01 540.79 188.14 541.93 187.68 542.73C187.46 543.11 187.15 543.34 186.72 543.41C186.04 543.52 185.54 543.03 184.88 543.43C184.63 543.58 184.42 543.78 184.17 543.93C182.44 544.98 180.61 543.06 179.47 541.97C178.64 541.13 177.84 540.21 177.21 539.22C176.46 538.07 175.98 536.77 175.73 535.42C175.38 533.58 175.42 531.07 177.25 530.03C178.55 529.62 179.84 530.41 180.97 530.98C182.33 531.81 183.48 532.94 184.56 534.09C186.11 535.71 187.44 537.66 187.84 539.91L187.85 539.92Z" fill="#E7AA00"/>
<path d="M186.43 536.77C187.39 537.74 188.27 539.47 188.18 540.86C188.17 541.84 187.84 543.34 186.59 543.28C186.3 543.27 186.02 543.21 185.73 543.24C184.75 543.36 184.06 544.22 183.02 544.31C182.22 544.38 181.48 544.08 180.9 543.54C180.41 543.09 180.12 542.47 180.98 542.28C181.31 542.21 182.1 542.4 182.24 541.95C182.37 541.56 182.32 541.05 182.47 540.65C182.71 540.01 182.94 539.84 182.81 539.07C182.43 536.91 181.37 534.94 180.92 532.82C180.92 532.68 181.01 532.55 181.15 532.52C181.37 532.47 181.54 532.67 181.68 532.81C181.99 533.12 182.28 533.45 182.57 533.78C183.36 534.69 184.4 535.32 185.33 536.08C185.7 536.32 186.11 536.44 186.43 536.76L186.43 536.77Z" fill="#C09141"/>
<path d="M189.27 549.39C186.7 549.64 184.27 547.79 182.36 546.26C182.14 546.12 181.87 545.92 181.77 545.68C181.61 545.48 181.66 545.16 181.88 545.03C183.55 543.89 185.63 544.17 187.46 543.54C188.14 543.41 188.95 542.35 189.55 543.07C189.62 543.18 189.65 543.3 189.65 543.42C189.73 543.46 189.8 543.53 189.86 543.62C190.09 543.97 190.28 544.33 190.44 544.71C191.45 546.59 191.84 548.71 189.27 549.38L189.27 549.39Z" fill="#86A896"/>
<path d="M203.36 556.86C201.78 556.72 189.37 550.81 190.43 549.31C190.86 548.89 191.26 549.44 191.62 549.65C195.35 552.18 199.44 554.32 203.71 555.78C204.41 556.02 204.07 557.08 203.36 556.86Z" fill="#86A896"/>
<path d="M186.92 618.06C183.66 620.24 179.38 620.7 175.62 619.94C173.27 619.33 170.94 618.07 168.49 618.18C168.18 618.23 167.89 617.94 167.95 617.63C168 617.37 168.24 617.24 168.44 617.1C169.96 616.18 171.42 615.18 172.75 614.01C174.93 612.48 177.06 610.86 179.21 609.3C182.73 607.51 186.71 606.16 190.69 606.43C194.35 606.9 197.82 608.29 200.97 610.21C201.54 610.47 202.09 610.76 202.61 611.11C203.78 611.99 205.07 612.73 206.21 613.65C206.42 613.79 206.61 613.94 206.73 614.09C206.86 614.21 206.99 614.32 207.11 614.45C207.4 614.72 206.98 615.16 206.7 614.85C206.08 614.42 205.45 614 204.81 613.59C204.71 613.59 204.59 613.57 204.45 613.51C194.87 610.96 194.25 613.16 186.94 618.06L186.92 618.06Z" fill="#6A7F6F"/>
<path d="M148.74 635.02C148.13 634.39 147.26 634.8 147.64 635.7C149.15 638.7 150.27 641.9 151.97 644.81C155.01 649.88 159.68 654.08 165.19 656.24C170.43 658.2 176.14 657.6 181.63 657.72C181.67 657.72 181.71 657.72 181.75 657.72C182.57 657.84 183.39 657.92 184.21 658C184.87 658.01 185.53 658.13 186.19 658.09C186.33 658.07 186.43 657.95 186.44 657.81C186.46 657.62 186.26 657.46 186.08 657.49C185.35 657.39 184.53 657.27 183.84 657.1C182.85 656.83 181.88 656.52 180.93 656.18C180.48 655.95 180.04 655.71 179.61 655.52C174.32 652.78 171.94 647 168.08 642.77C165.33 639.81 161.36 638.36 157.49 637.58C154.52 636.98 151.28 636.87 148.75 635.02L148.74 635.02Z" fill="#6A7F6F"/>
<path d="M168.49 662.96C167.24 663.23 165.97 663.25 164.7 663.21C162 663.09 159.45 662.21 156.87 661.47C153.83 659.96 151.01 657.93 148.36 655.83C145.54 653.21 142.5 650.67 138.9 649.2C135.53 648.17 131.67 648.99 128.58 647C128.35 646.84 128.1 646.63 127.81 646.68C127.39 646.74 127.19 647.28 127.47 647.59C128.89 649.55 130.35 651.48 131.79 653.42C135.87 658.93 141.84 663.19 148.57 664.62C149.78 664.87 151.02 664.97 152.25 665.01C155.04 665.41 157.94 665.44 160.7 665.11C162.44 665.06 164.17 664.79 165.88 664.44C166.84 664.36 167.8 664.18 168.76 663.87C169.27 663.68 169.04 662.85 168.51 662.96L168.49 662.96Z" fill="#86A896"/>
<path d="M187.5 557.56C184.42 559.09 181.18 560.82 177.66 560.77C175.5 560.79 173.1 561.14 171.18 559.92C169.4 558.75 170.17 556.91 171.78 556.05C176.93 552.9 195.78 553.41 187.49 557.57L187.5 557.56Z" fill="#86A896"/>
<path d="M197.05 605.22C196.06 606.13 194.03 604.56 192.97 604.28C188.75 602.24 179.62 598.86 181.49 594.26C183.59 590.85 189.98 596.87 192.99 600C194.1 601.01 197.98 604.09 197.06 605.22L197.05 605.22Z" fill="#86A896"/>
<path d="M188.38 622.54C188.87 623.8 186.67 625.11 186.01 626C182.56 629.18 176.09 636.44 172.49 633.03C170.08 629.82 178.02 626.08 182.03 624.42C183.38 623.76 187.66 621.26 188.38 622.54Z" fill="#6A7F6F"/>
<path d="M212.48 613.43C212.67 613.7 212.23 613.93 212.1 613.64C211.72 613.29 211.34 612.94 210.97 612.58C210.93 612.58 210.9 612.55 210.88 612.53C209.46 611.11 208.05 609.65 206.41 608.5C201.74 606.21 198.51 601.82 198.11 596.53C197.79 594.18 197.59 591.82 197.36 589.46C197.36 589.03 197.16 588.53 197.38 588.14C197.68 587.72 198.21 587.9 198.42 588.31C199.75 589.9 201.56 591.01 202.95 592.54C204.44 594.26 205.76 596.19 206.6 598.32C207.15 599.96 207.56 601.63 207.85 603.32C208.14 604.73 208.11 606.18 208.47 607.57C208.51 607.72 208.55 607.86 208.6 608C209.58 610.02 210.89 611.86 212.49 613.42L212.48 613.43Z" fill="#8DA68F"/>
<path d="M161.18 407.64C164.31 406 168.09 408.84 170.48 411.47C181.68 422.98 183.65 418.31 184.33 426.41C184.42 428.22 183.92 430 183.7 431.44C184.19 438.44 185.86 445.56 182.96 447.41C182.14 447.9 181.26 447.69 180.61 447.03C180.04 446.47 179.81 445.67 179.41 444.99C178.81 444.04 176.64 444.17 178.29 435.33C177.35 437.69 175.24 445.85 172.62 448.31C169.43 450.92 167.8 449 166.87 448.62C165.92 448.33 164.41 449.02 163.21 447.13C161.75 445.1 164.66 441.27 166.23 439.32C172.16 431.82 172.85 433.03 166.66 436.56C163.42 438.45 156.24 441.12 154.58 438.81C154.07 438.11 154.78 437.2 152.3 436.21C151.4 435.87 150.43 435.6 149.73 434.89C148.74 434.14 148.37 432.62 149.36 431.71C152.12 428.85 160.26 430 170.28 426.92C169.35 427.04 168.43 427.21 167.5 427.32C164.15 427.7 158.81 427.52 154.6 425.93C148.06 423.71 148.62 420.42 148.49 419.53C147.27 417.68 148.45 415.34 150.03 414.4C152.27 413.35 158.36 418.33 164.94 418.08C163.64 417.33 162.2 416.81 161 415.92C158.05 413.61 159.74 412.26 159.64 411.32C159.62 411.13 158.59 409.19 161.18 407.65L161.18 407.64Z" fill="#DA4D45"/>
<path d="M193.81 416.91C195.04 417.23 196.38 417.37 197.44 418.13C198.9 419.14 199.11 420.89 198.18 422.34C197.88 422.89 197.51 423.4 197.12 423.9C196.56 424.6 195.97 425.32 195.18 425.77C193.7 427.17 191.88 428.15 189.94 428.77C187.49 429.66 184.89 430.03 182.29 430.04C178.67 430.32 183.64 427.19 184.42 426.53C183.39 426.58 182.36 426.56 181.34 426.45C181.02 426.4 180.63 426.45 180.4 426.19C180.09 425.76 180.59 425.33 180.91 425.07C181.45 424.62 182.03 424.2 182.6 423.78C180.26 423.4 180.39 422.89 182.16 421.56C180.43 421.55 178.84 420.69 177.48 419.68C177.17 419.45 176.84 419.22 176.54 418.98C176.43 418.89 176.32 418.79 176.32 418.63C176.32 418.33 176.67 418.3 176.89 418.21C179.5 417.01 182.28 416.23 185.14 415.91C187.04 415.75 188.98 415.7 190.87 416C191.88 416.19 192.82 416.63 193.81 416.89L193.81 416.91Z" fill="#86A896"/>
<path d="M193.7 418.49C194.44 418.57 193.53 419.13 193.24 419.17C190.73 419.57 188.22 419.97 185.71 420.37C184.91 420.5 184.1 420.63 183.29 420.61C181.68 420.57 180.15 419.95 178.66 419.34C177.25 418.76 180.12 418.3 180.47 418.24C182.34 417.92 184.23 417.7 186.13 417.66C188.74 417.61 191.14 418.21 193.7 418.48L193.7 418.49Z" fill="#C1DEC8"/>
<path d="M165.41 411.03C165.62 412.1 167.77 415.22 167.77 416.14C167.18 416.39 165.54 416.09 165.71 417.12C166.07 418.18 168.22 419.23 164.82 419.39C162.52 419.02 160.24 418.43 158.04 417.68C155.44 416.75 149.75 413.14 149.15 416.84C149.01 417.79 149.34 418.72 149.7 419.59C149.86 423.43 157.04 427.07 157.88 425.09C158.02 424.43 155.74 423.26 154.94 421.92C154.39 420.45 155.93 419.92 157.11 419.88C159.43 419.79 161.69 420.66 164 420.93C167.28 421.33 167.07 421.12 168.68 421.36C169.87 421.51 171.04 421.79 172.24 421.9C173.61 422.06 175.03 422.01 176.37 422.35C175.45 422.85 173.66 423.55 175.09 424.78C175.53 425.16 176.06 425.26 176.61 425.32C165.17 429.91 154.02 428.99 154.12 430.44C154.52 432.66 168.78 429.26 172.06 428.81C170.91 431.58 165.99 433.28 167.04 434.68C168.4 435.84 175.95 429.74 177.26 428.7C181.31 426.11 185.15 424.43 181.66 421C180.68 420.09 176.47 418.5 173.33 415.34C171.77 413.81 170.32 412.13 168.43 411C167.74 410.56 165.38 409.54 165.42 411.06L165.41 411.03ZM171.45 433.81C171 433.69 170.8 434.33 170.56 434.62C168.61 437.31 161.81 443.98 163.42 446.92C164.47 448.69 166.88 448.06 166.15 447.25C162.2 443.52 172.88 434.53 171.45 433.81ZM182.56 427.94C182.65 427.35 183.34 426.92 183.5 428.12C183.71 430.56 183.12 428.83 183.95 438.84C184.17 441.68 184.9 447.32 181.79 447.08C180.6 446.96 180.19 445.59 179.69 444.69C179.34 443.99 177.96 443.97 177.81 441.33C177.46 438.31 178.67 432.49 179.9 432.81C181.38 433.19 181.33 436.79 181.8 438.6C182.78 436.07 182.07 430.14 182.56 427.95L182.56 427.94Z" fill="#DA4D45"/>
<path d="M182.87 396.34C182.11 395.9 181.38 396.53 181.99 397.29C184.26 399.76 186.2 402.54 188.63 404.88C192.93 408.93 198.56 411.71 204.46 412.29C210.04 412.75 215.37 410.63 220.69 409.26C220.73 409.25 220.77 409.24 220.8 409.23C221.62 409.12 222.44 408.98 223.25 408.83C223.89 408.66 224.55 408.59 225.18 408.38C225.31 408.32 225.38 408.18 225.34 408.05C225.31 407.86 225.07 407.76 224.91 407.84C224.18 407.95 223.36 408.05 222.65 408.07C221.62 408.08 220.61 408.05 219.59 407.97C219.1 407.87 218.61 407.76 218.14 407.69C212.31 406.49 208.45 401.57 203.59 398.55C200.14 396.45 195.92 396.13 191.99 396.43C188.97 396.66 185.82 397.44 182.88 396.34L182.87 396.34Z" fill="#6A7F6F"/>
<path d="M212.38 395.69C212.73 395.82 212.59 396.4 212.21 396.34C211.37 396.28 210.5 396.58 209.64 396.43C206.28 395.98 203.22 393.99 201.09 391.4C200.12 390.22 199.09 389.02 197.91 388.05C197.32 387.49 196.46 387.19 195.97 386.55C195.88 386.04 196.54 386.07 196.89 386.01C197.8 385.89 198.71 385.75 199.62 385.79C204.18 386.17 206.39 389.47 208.96 392.74C209.79 393.67 210.48 394.8 211.61 395.4C211.86 395.52 212.13 395.59 212.38 395.69Z" fill="#8DA68F"/>
<path d="M181.63 443.69C182.01 446.09 183.44 450.6 185.45 455.19C186.15 456.55 186.78 459.13 188.77 458.73C191.72 456.95 189.44 451.76 188.69 449.18C187.99 447.04 187.03 444.96 185.48 443.29C184.96 442.74 184.26 441.62 183.51 440.56C182.96 441.3 182.17 442.92 181.64 443.68L181.63 443.69Z" fill="#8DA68F"/>
<path d="M207.5 437.47C208.03 436.57 208.42 436.66 208.65 435.6C208.72 435.29 209.64 434.03 209.8 433.74C209.5 433.68 207.74 433.61 207.38 433.64C202.14 433.53 190.77 434.07 188.75 438.9C188.48 440.99 191.42 441 192.86 441.16C197.77 441.16 203.07 439.56 207.49 437.47L207.5 437.47Z" fill="#6A7F6F"/>
<path d="M187.21 352.8C188.63 353.34 189.64 354.55 190.46 355.77C191.49 357.5 192.16 359.26 190.89 361.08C190.26 362.06 189.29 362.81 188.18 363.16C186.57 363.55 184.79 363.3 183.34 362.49C181.79 361.62 180.9 359.66 180.89 357.94C180.89 356.61 181.24 355.17 181.69 353.93C182.42 352.01 185.63 352.21 187.21 352.81L187.21 352.8Z" fill="#86A896"/>
<path d="M190.79 361.23C190.03 362.27 189.14 363.49 187.75 363.6C186.32 363.71 184.84 363.35 183.65 362.54C182.28 361.61 181.41 360.1 181.15 358.48C181.02 357.66 181.04 356.82 181.22 356.01C181.33 355.51 181.79 355.22 182.19 355.65C182.63 356.14 182.62 357.12 182.76 357.74C182.92 358.46 183.2 359.15 183.74 359.67C184.22 360.12 184.81 360.33 185.4 360.59C186.07 360.88 186.76 361.13 187.49 361.22C188.51 361.35 189.63 361.12 190.34 360.38C190.56 360.15 190.73 359.89 190.96 359.67C191.06 359.57 191.2 359.48 191.33 359.53C191.45 359.57 191.52 359.7 191.51 359.83C191.51 360.33 191.03 360.83 190.76 361.21L190.79 361.23Z" fill="#6A7F6F"/>
<path d="M186.69 355.32C186 354.96 185.29 354.61 184.55 354.35C184.15 354.21 183.71 354.13 183.31 354.25C183.07 354.32 182.61 354.54 182.46 354.22C182.35 354 182.59 353.77 182.79 353.64C183.4 353.24 184.07 352.86 184.8 352.87C185.23 352.88 185.65 353.03 186.04 353.22C186.46 353.42 186.85 353.66 187.22 353.94C187.46 354.12 187.7 354.33 187.77 354.62C187.91 355.19 187.15 355.56 186.69 355.32Z" fill="#C1DEC8"/>
<path d="M201.83 345.16C202.22 345.34 202.62 345.42 203 345.66C203.41 345.92 203.78 346.26 204.1 346.63C205.06 347.75 205.64 348.96 205.76 350.43C205.86 351.73 205.63 353.06 205.07 354.23C204.52 355.4 203.6 356.45 202.39 356.91C201.04 357.41 199.51 357.12 198.21 356.52C197.05 356 195.98 355.22 195.27 354.17C194.04 352.33 194.15 349.75 195.39 347.91C196.73 345.92 199.46 344.62 201.84 345.16L201.83 345.16Z" fill="#8DA68F"/>
<path d="M204.36 354.52C203.69 354.44 203.62 353.8 203.72 353.26C203.93 352.08 204.02 350.8 203.44 349.75C203.03 349.01 202.34 348.47 201.61 348.05C200.8 347.58 199.91 347.24 198.98 347.16C198.05 347.09 197.08 347.31 196.35 347.89C196.18 348.03 195.94 348.19 195.76 348.07C195.65 348 195.61 347.84 195.64 347.71C195.67 347.58 195.75 347.47 195.84 347.37C196.84 346.14 198.39 345.38 199.97 345.32C201.56 345.26 203.15 345.91 204.25 347.06C205.34 348.21 205.91 349.84 205.77 351.42C205.71 352.06 205.55 352.69 205.38 353.32C205.23 353.86 205.08 354.59 204.37 354.51L204.36 354.52Z" fill="#6A7F6F"/>
<path d="M196.8 353.26C195.76 353.13 195.25 351.95 195.23 351.03C195.23 350.49 195.15 348.57 196.12 348.85C196.47 348.95 196.35 349.69 196.38 349.95C196.44 350.46 196.56 350.9 196.93 351.28C197.15 351.51 197.39 351.72 197.52 352.01C197.77 352.57 197.46 353.28 196.8 353.27L196.8 353.26Z" fill="#C1DEC8"/>
<path d="M198.87 365.28C199.7 365.38 199.34 366.38 199.22 366.93C199.04 367.77 198.78 368.6 198.74 369.46C198.69 370.5 198.97 371.58 198.58 372.57C198.25 373.43 197.49 374.11 196.61 374.39C194.98 374.9 193.08 374.3 191.68 373.47C190.35 372.68 189.48 371.68 189.82 370.04C190.13 368.57 191.29 367.33 192.57 366.61C193.88 365.82 195.42 365.58 196.91 365.38C197.59 365.31 198.21 365.21 198.87 365.29L198.87 365.28Z" fill="#8DA68F"/>
<path d="M199.12 366.39C197.76 366.81 196.45 367.36 195.15 367.93C193.88 368.48 192.54 369.11 191.67 370.23C191.35 370.64 191.06 371.19 191.08 371.73C191.08 372 191.43 372.6 191.11 372.79C190.42 373.2 189.81 370.78 189.79 370.38C189.72 369.08 190.31 367.92 191.33 367.14C192.33 366.38 193.57 366.02 194.8 365.81C196.03 365.6 197.29 365.51 198.5 365.21C198.66 365.17 198.83 365.13 199 365.15C199.24 365.18 199.45 365.36 199.52 365.58C199.63 365.91 199.44 366.28 199.11 366.39L199.12 366.39Z" fill="#6A7F6F"/>
<path d="M197.09 372.77C196.18 373.68 194.7 374.11 193.44 373.79C192.86 373.56 192.18 373.27 191.83 372.73C191.29 371.9 192.64 371.67 193.13 371.66C194.27 371.64 195.38 371.24 196.51 371.28C197.24 371.31 197.6 372.25 197.09 372.76L197.09 372.77Z" fill="#C1DEC8"/>
<path d="M203.39 358.77C202.97 358.55 203.17 357.85 203.65 357.9C205.8 358.7 207.61 360.2 209.43 361.56C210.01 361.99 210.73 362.51 211.27 362.92C211.29 362.93 211.31 362.94 211.33 362.96C212.33 363.27 213.27 363.69 213.05 364.27C212.81 364.83 212.27 364.68 211.76 364.49C211.51 364.42 211.25 364.35 210.99 364.29C210.9 364.29 210.81 364.26 210.73 364.23C210.3 364.12 209.87 364.03 209.49 363.96C206.89 363.59 204.29 364.17 201.85 364.96C200.19 364.2 204.57 363.13 205.6 362.93C203.56 362.49 201.51 362.05 199.51 361.52C197.76 361.11 196.04 360.53 194.24 360.44C193.94 360.47 193.52 360.46 193.49 360.06C193.49 359.25 195.14 359.75 195.66 359.74C197.51 360.07 199.37 360.33 201.22 360.7C203.35 361.06 205.51 361.49 207.63 361.99C207 361.46 206.38 360.94 205.75 360.45C204.99 359.85 204.18 359.34 203.39 358.79L203.39 358.77Z" fill="#8DA68F"/>
<path d="M235.16 521.53C235.43 521.37 236.18 521.29 236.63 521.08C238.07 521.3 239.52 521.31 241 521.02C241.45 520.92 241.28 520.24 240.83 520.35C239.32 520.47 237.84 520.26 236.39 519.89L236.37 519.87C234.53 519.06 232.86 517.89 231.16 516.82C228.92 515.17 226.73 513.42 224.22 512.14C216.98 508.4 208.49 508.72 200.81 510.81C198.22 511.27 195.58 511.65 193.08 512.56C192.5 512.83 191.74 512.76 191.2 513.11C190.45 514.05 191.99 514.67 192.6 515.16C194.16 516.15 195.69 517.19 197.24 518.18C201.78 521.06 206.41 524.11 211.7 525.38C219.88 527.29 227.69 524.69 235.17 521.53L235.16 521.53Z" fill="#8DA68F"/>
<path d="M234.43 521.52C231.55 521.46 228.73 520.84 225.88 520.51C223.95 520.19 221.98 520.16 220.08 519.66C214.04 518.03 208.09 516.09 201.93 514.93C199.06 514.43 196.23 513.58 193.29 513.73C192.52 513.69 191.75 513.7 190.99 513.73C190.96 513.55 191.01 513.35 191.18 513.14C191.72 512.79 192.48 512.86 193.06 512.59C195.56 511.68 198.2 511.3 200.79 510.84C208.48 508.76 216.96 508.43 224.2 512.17C226.71 513.45 228.9 515.2 231.14 516.85C232.84 517.92 234.52 519.08 236.35 519.9C236.38 519.9 236.4 519.92 236.42 519.94C237.85 520.3 239.32 520.49 240.81 520.37C241.25 520.25 241.42 520.93 240.98 521.04C239.51 521.34 238.05 521.32 236.61 521.1C236.15 521.32 235.41 521.39 235.14 521.55C235.1 521.57 235.06 521.59 235.02 521.6C234.82 521.58 234.62 521.56 234.42 521.53L234.43 521.52Z" fill="#6A7F6F"/>
<path d="M172.62 491.7C171.69 490.98 171 489.9 170.83 488.73C170.68 487.76 170.99 486.82 171.33 485.92C172.26 483.57 173.95 481.36 176.19 480.13C177.09 479.61 178.07 479.18 179.12 479.1C178.29 477.81 177.98 476.28 177.83 474.77C177.52 471.44 178.89 467.99 181.32 465.71C183.33 464.11 186.05 462.69 188.66 463.5C191.22 464.26 193.08 466.31 193.98 468.78C194.35 469.79 194.4 470.88 194.59 471.93C195.68 471.25 196.82 470.67 198.02 470.21C199.18 469.74 200.43 469.47 201.69 469.56C204.32 469.77 205.2 471.06 205.61 473.53C205.8 475.14 205.74 476.84 205.09 478.35C203.9 480.96 201.31 482.63 198.72 483.65C199.91 484.09 201.08 484.63 202.11 485.38C203.3 486.36 204.37 487.53 205.04 488.93C206.19 491.29 206.65 492.97 205.84 495.55C205.67 496.13 205.36 496.64 204.96 497.08C203.81 498.43 202.12 499.28 200.36 499.41C198.8 499.45 197.26 498.67 196.15 497.61C195.3 496.86 194.71 495.88 194.04 494.99C193.72 496.45 193.27 498.01 192.11 499.02C190.37 500.56 188.66 501.11 186.37 501.28C185.11 501.4 183.86 501.08 182.65 500.77C180.32 500.13 178.06 498.88 178.57 496.08C178.72 495.14 179.28 494.34 179.59 493.46C177.16 493.73 174.6 493.23 172.64 491.7L172.62 491.7Z" fill="#E7AA00"/>
<path d="M184.75 489.34C185.02 489.39 185.36 489.22 185.62 489.17C185.96 489.1 186.29 489.04 186.63 489C187.69 488.88 188.75 488.95 189.76 489.17C190.28 489.28 190.78 489.44 191.27 489.63C191.57 489.75 192.39 490.35 192.64 489.9C192.84 489.53 192.63 489.1 192.57 488.75C192.5 488.34 192.55 487.9 192.62 487.48C192.76 486.58 193.1 485.7 193.6 484.91C193.99 484.31 194.47 483.76 195.02 483.3C195.31 483.06 195.61 482.85 195.93 482.66C196.15 482.53 196.61 482.41 196.74 482.19C197.04 481.64 196.03 481.4 195.7 481.27C194.92 480.95 194.36 480.38 193.84 479.72C192.74 478.35 192.06 476.64 191.92 474.85C191.9 474.6 191.96 474.2 191.65 474.19C191.49 474.19 191.28 474.41 191.17 474.51C190.28 475.31 189.53 476.21 188.51 476.86C187.66 477.4 186.74 477.82 185.79 478.1C185.42 478.21 183.37 478.38 183.46 478.94C183.52 479.35 184.44 479.62 184.74 479.83C185.31 480.21 185.79 480.7 186.07 481.33C186.98 483.45 186.46 486.65 184.79 488.43C184.54 488.69 184.22 489.22 184.72 489.34C184.73 489.34 184.75 489.34 184.76 489.34L184.75 489.34Z" fill="#FEF7E7"/>
<path d="M188.91 485.43C188.44 485.53 188.59 484.84 188.62 484.57C188.73 483.71 188.77 482.8 188.62 481.92C188.56 481.54 188.44 481.21 188.33 480.84C188.27 480.65 188.09 480.15 188.37 480.05C188.68 479.95 189.03 480.03 189.35 479.97C189.72 479.9 190.05 479.66 190.41 479.6C190.76 479.54 190.82 479.79 190.88 480.08C190.99 480.59 191.24 481.07 191.56 481.47C191.89 481.89 192.34 482.14 192.7 482.51C192.79 482.6 192.86 482.72 192.86 482.85C192.86 483.09 192.58 483.25 192.43 483.4C192.21 483.62 192 483.86 191.82 484.12C191.37 484.73 191.06 485.4 190.76 486.09C190.63 486.39 190.24 486.03 190.1 485.95C189.72 485.72 189.32 485.52 188.89 485.41L188.91 485.43Z" fill="#C37044"/>
<path d="M211.23 339.77C211.51 339.93 211.23 340.33 210.97 340.12C210.48 339.96 209.98 339.81 209.49 339.64C209.46 339.64 209.42 339.64 209.38 339.64C207.49 338.95 205.6 338.23 203.62 337.89C198.42 337.8 193.63 335.2 191.02 330.58C189.73 328.59 188.55 326.54 187.34 324.5C187.16 324.11 186.76 323.75 186.79 323.3C186.89 322.79 187.44 322.73 187.81 323.01C189.69 323.88 191.8 324.12 193.71 324.92C195.79 325.85 197.8 327.04 199.47 328.61C200.66 329.86 201.75 331.2 202.73 332.61C203.59 333.76 204.18 335.08 205.09 336.19C205.18 336.31 205.29 336.42 205.39 336.52C207.14 337.93 209.1 339.04 211.21 339.78L211.23 339.77Z" fill="#86A896"/>
<path d="M143.45 260.48C142.06 260.71 140.66 260.66 139.26 260.56C136.29 260.29 133.53 259.18 130.73 258.23C127.46 256.41 124.46 254.03 121.65 251.58C118.68 248.55 115.47 245.59 111.57 243.79C107.91 242.48 103.62 243.18 100.32 240.84C100.07 240.65 99.81 240.41 99.49 240.44C99.02 240.49 98.78 241.07 99.07 241.43C100.53 243.66 102.03 245.86 103.52 248.08C107.73 254.36 114.08 259.36 121.42 261.28C122.74 261.62 124.09 261.8 125.45 261.9C128.5 262.49 131.69 262.67 134.74 262.45C136.66 262.48 138.57 262.28 140.47 261.98C141.53 261.94 142.6 261.8 143.67 261.5C144.24 261.32 144.03 260.39 143.44 260.48L143.45 260.48Z" fill="#86A896"/>
<path d="M147.09 266.41C147.34 266.43 147.61 266.26 147.83 266.4C147.99 266.52 147.99 266.76 147.83 266.88C145.12 267.42 142.33 267.85 139.62 268.48C136.56 269.95 134.43 273.07 133.64 276.39C132.74 278.54 131.8 280.69 130.72 282.76C128.04 287.18 123.45 290.12 118.71 291.94C117.49 292.42 116.29 292.97 115.14 293.6C114.52 294 113.56 294.5 113.24 293.5C113.17 293.22 113.26 292.96 113.37 292.71C113.78 291.77 114.26 290.85 114.69 289.91C115.75 287.11 116.54 284.32 117.96 281.69C120.62 276.42 125.39 272.6 130.6 270.02C132.16 269.34 133.76 268.78 135.4 268.34C136.14 268.05 136.9 267.79 137.67 267.57C140.75 266.88 143.95 266.74 147.08 266.44L147.09 266.41Z" fill="#6A7F6F"/>
<path d="M230.852 7.67785C229.834 8.44768 228.687 8.99994 227.521 9.5057C225.026 10.5391 222.337 10.8106 219.693 11.2252C216.303 11.1402 212.889 10.4832 209.595 9.69281C205.931 8.51149 202.101 7.482 198.225 7.66499C194.727 8.14979 191.579 10.5185 187.937 10.0169C187.658 9.966 187.347 9.88531 187.099 10.0481C186.742 10.2867 186.796 10.8569 187.182 11.0158C189.294 12.1893 191.427 13.3332 193.553 14.4901C199.578 17.7685 206.783 19.1151 213.487 17.5727C214.697 17.2862 215.855 16.8696 216.993 16.3749C219.693 15.5612 222.331 14.3741 224.697 12.9077C226.259 12.1263 227.706 11.1644 229.107 10.1133C229.938 9.63269 230.737 9.06841 231.474 8.37769C231.857 7.98874 231.294 7.32988 230.863 7.65187L230.852 7.67785Z" fill="#6A7F6F"/>
<path d="M159.79 248.43C163.08 247.35 165.64 248.92 166.83 252.05C167.16 252.87 167.36 253.76 167.34 254.65C167.28 255.35 166.84 255.93 166.44 256.47C165.84 257.36 165 258.03 164.14 258.63C163.31 259.25 162.34 259.6 161.41 260.03C160.69 260.36 159.91 260.72 159.48 261.42C159.07 262.47 159.36 263.65 159.61 264.71C160.05 266.21 161.4 267.05 162.84 267.51C162.93 267.6 163.06 267.64 163.2 267.62C163.51 267.71 163.81 267.77 164.11 267.83C166.06 266.25 169.17 269.15 170.6 270.45C172.77 272.26 173.11 274.84 171.94 277.34C170.99 279.28 170.01 280.42 167.69 280.14C165.42 280.03 163.65 277.69 162.69 275.82C161.83 276.98 161.08 278.22 159.92 279.1C158.28 280.36 155.97 280.32 154.13 279.53C153.04 279.05 152.07 278.31 151.5 277.25C150.67 275.92 150.3 274.5 150.58 272.95C151.02 270.16 153.29 268.18 155.38 266.51C153.54 266.57 151.63 266.17 150.14 265.02C148.69 263.76 147.67 261.97 147.49 260.04C147.18 258.15 147.98 256.43 149.35 255.16C150.68 254.06 152.43 253.57 154.12 253.41C154.22 252.26 154.84 251.14 155.73 250.4C156.94 249.49 158.36 248.9 159.79 248.44L159.79 248.43Z" fill="#E7AA00"/>
<path d="M162.96 254.3C163.39 253.98 163.5 254.5 163.53 254.83C163.6 255.65 163.53 257.31 164.78 257.21C164.96 257.19 165.14 257.13 165.32 257.17C166.12 257.32 165.05 258.22 164.86 258.38C164.14 259.02 163.13 259.48 162.74 260.4C162.44 261.3 162.67 262.24 162.79 263.15C163.05 264.48 163.31 265.85 163.94 267.05C164.01 267.17 164.07 267.3 164.18 267.39C164.9 267.19 165.69 267.24 166.42 267.36C167.51 267.61 168.39 268.31 169.02 269.22C169.34 269.68 169.6 270.18 169.83 270.69C169.96 270.99 170.47 271.84 170.31 272.15C170.08 272.61 169.43 272.03 169.15 271.9C168.19 271.46 166.89 271.01 165.83 271.32C165.3 271.47 164.85 271.84 164.5 272.27C164.03 272.85 163.69 273.56 163.34 274.22C163.09 274.7 162.76 274.15 162.73 273.9C162.55 272.47 160.97 272.81 159.94 273.06C158.95 273.3 157.98 273.66 157.04 274.05C156.82 274.14 156.6 274.23 156.38 274.33C155.86 274.55 155.95 273.91 156.14 273.68C157.01 272.64 157.6 271.4 157.97 270.1C158.33 268.86 158.46 266.77 156.6 266.76C156.47 266.76 156.34 266.77 156.21 266.74C155.5 266.55 156.31 266.01 156.51 265.84C157.65 264.84 156.49 262.97 155.6 262.25C155.28 261.99 153.05 260.84 153.42 260.42C153.58 260.23 154.09 260.34 154.3 260.36C154.75 260.39 155.21 260.38 155.64 260.24C156.07 260.1 156.46 259.83 156.69 259.43C156.99 258.92 156.84 258.43 156.67 257.91C156.47 257.33 156.26 256.76 156.04 256.19C155.94 255.93 155.49 255.05 156.16 255.12C156.68 255.18 157.01 255.94 157.51 256.16C158.36 256.53 159.48 256.17 160.3 255.85C161.26 255.47 162.14 254.92 162.97 254.31L162.96 254.3Z" fill="#C09141"/>
<path d="M172.82 259.71C173.66 259.95 174.48 260.36 175.07 261.02C175.5 261.55 175.73 262.25 175.8 262.92C175.83 263.54 175.53 264.15 175.16 264.63C173.35 266.54 170.13 266 167.73 266.4C166.74 266.57 165.75 266.64 164.79 266.92C164.21 267.09 163.67 267.37 163.13 267.65C162.78 267.84 161.86 268.54 161.48 268.16C160.73 267.4 162.7 265.82 163.13 265.46C161.65 265.56 160.15 265.4 158.69 265.25C157.95 264.81 159.1 264.35 159.45 264.14C160.16 263.73 160.91 263.38 161.71 263.18C160.93 263 160.17 262.66 159.52 262.21C159.38 262.11 159.22 262.03 159.11 261.9C158.87 261.6 159.16 261.29 159.48 261.25C161.42 260.96 163.35 260.63 165.25 260.16C167.71 259.61 170.33 258.99 172.82 259.71Z" fill="#8DA68F"/>
<path d="M175.13 264.54C174.23 266.3 172.14 266.99 170.28 267.01C168.98 267.1 167.71 266.8 166.43 266.74C165.8 266.76 165.18 266.91 164.55 267C164.4 267.06 164.22 267.02 164.12 266.87C163.84 266.34 164.94 265.52 165.32 265.24C167.14 263.96 169.34 263.48 171.52 263.3C172.1 263.25 172.87 263.04 173.28 262.61C173.81 262.06 173.31 261.03 174.28 260.8C174.88 260.66 175.26 261.1 175.44 261.63C175.79 262.63 175.6 263.63 175.13 264.55L175.13 264.54Z" fill="#6A7F6F"/>
<path d="M177.35 261.73C176.99 261.48 177.17 260.93 177.56 260.83C179.4 260.59 186.09 259.95 187.24 261.28C187.46 261.7 187.04 262.22 186.58 262.1C186.23 262.02 185.73 261.94 185.43 261.89C183.6 261.64 181.84 261.61 180.02 261.66C179.24 261.6 178 261.87 177.35 261.72L177.35 261.73Z" fill="#8DA68F"/>
<path d="M208.16 259.71C208.07 259.74 207.99 259.79 207.91 259.83C207.35 260.12 206.77 260.37 206.19 260.61C205.06 261.21 204.05 262.01 203.14 262.91C201.41 265.01 199.6 267.05 198.19 269.39C193.28 277.57 188.39 281.97 178.75 283.42C177.32 283.65 175.9 283.87 174.46 284.1C174.17 284.15 173.72 284.39 173.48 284.06C173.35 283.88 173.38 283.68 173.47 283.49C174.13 282.17 174.92 280.91 175.55 279.57C178.7 272.88 183.48 264.86 190.68 262.17C193.33 261.18 196.23 260.95 199.04 261.14C199.08 261.14 199.12 261.14 199.16 261.15C200.23 260.97 201.19 260.86 201.49 260.82C202.52 260.73 203.42 260.4 204.44 260.17C205.68 259.92 206.87 259.52 208.05 259.07C208.38 259.09 208.46 259.58 208.16 259.71Z" fill="#86A896"/>
<path d="M190.85 227.2C192.58 228.63 194.42 229.72 196.36 230.97C197.87 231.92 199.39 232.88 201.06 233.51C203.67 234.56 206.55 234.51 209.31 234.6C209.98 234.67 210.7 234.69 211.3 235.02C211.38 235.06 211.46 235.07 211.54 235.08C211.64 235.12 211.74 235.15 211.83 235.19C212.36 235.43 212.87 235.72 213.37 236.02C214.47 236.89 215.62 237.72 216.72 238.57C217.08 238.87 217.52 238.29 217.16 238.01C214.3 235.75 211.47 233.26 209.78 229.95C209.52 229.44 209.25 228.95 209 228.44C208.2 226.79 207.52 225.08 206.62 223.49C198.51 208.48 191.44 208.59 177.07 203.02C176.68 202.78 176.17 203.02 176.05 203.45C175.99 203.66 176.05 203.84 176.14 204.02C176.62 205 179.7 211.43 180.82 213.7C183.38 218.69 186.56 223.52 190.86 227.21L190.85 227.2Z" fill="#86A896"/>
<path d="M173.9 229.25C168.55 226.84 164.5 223.37 161.84 217.35C160.22 214.13 159.94 210.54 159.21 207.07C158.99 206.14 158.76 205.21 158.51 204.29C158.36 203.66 157.8 202.64 158.72 202.38C158.95 202.33 159.15 202.43 159.36 202.51C160.46 202.91 161.6 203.16 162.72 203.48C164.69 204 166.45 205.1 168.07 206.31C173.17 209.88 175.15 215.79 176.64 221.55C177.18 223.28 177.03 225.3 177.54 227.05C178.3 228.36 179.24 229.56 180.44 230.46C182.04 231.37 183.77 232.03 185.63 232.32C185.95 232.32 186.04 232.82 185.74 232.94C185.56 233.01 185.35 232.94 185.15 232.94C183.2 232.71 181.19 232.31 179.34 231.55C177.56 231.06 175.8 230.52 174.24 229.47C174.12 229.4 174.01 229.33 173.89 229.26L173.9 229.25Z" fill="#6A7F6F"/>
<path d="M168.7 243.86C168.23 243.79 167.61 243.48 167.98 242.93C168.3 242.61 168.78 242.52 169.19 242.34C179.63 237.9 181.14 235.67 190.42 238.96C192.11 239.35 193.77 239.85 195.37 240.5C197.93 241.58 200.47 242.7 202.91 244.04C203.37 244.22 203.05 244.93 202.6 244.66C201.55 244.15 200.46 243.71 199.37 243.29C199.23 243.25 199.08 243.21 198.94 243.17C197.55 242.76 196.13 242.52 194.7 242.37C193.53 242.46 192.41 242.79 191.34 243.32C189.03 244.51 186.97 246.27 184.45 246.97C180.52 248.33 176.09 247.46 172.48 245.59C171.24 244.97 170.07 244.19 168.71 243.86L168.7 243.86Z" fill="#6A7F6F"/>
<path d="M139.33 240.45C142.56 241.93 145.85 243.29 149.38 243.92C152.78 244.56 156.47 244.93 159.61 243.15C162.96 240.92 166.2 238.64 169.64 236.5C171.62 235.26 173.98 234.98 176.25 234.72C178.22 234.87 180.18 235.15 182.14 235.41C182.13 235.41 182.11 235.41 182.1 235.4C182.5 235.54 182.7 234.89 182.29 234.78L182.27 234.78C181.04 234.46 179.81 234.06 178.57 233.7C178.55 233.69 178.54 233.68 178.52 233.67C170.63 230.42 161.37 227.92 153.18 231.61C150.6 232.56 148.33 234.12 145.92 235.4C143.65 236.67 141.29 237.74 138.97 238.92C138.06 239.45 138.49 240.21 139.33 240.45Z" fill="#86A896"/>
<path d="M139.55 239.92C141.05 240.06 142.57 240.32 144.07 240.1C147.18 239.65 150.26 238.91 153.29 238.06C156.12 237.25 158.78 235.98 161.59 235.11C167.25 233.87 173.17 233.75 178.92 234.56C179.23 234.6 180.14 234.97 181.05 235.27C181.41 235.32 181.78 235.37 182.14 235.42C182.13 235.42 182.11 235.42 182.1 235.41C182.5 235.55 182.7 234.9 182.29 234.79L182.27 234.79C181.04 234.48 179.81 234.07 178.57 233.71C178.56 233.7 178.54 233.69 178.52 233.68C170.63 230.43 161.37 227.93 153.18 231.62C150.6 232.57 148.33 234.13 145.92 235.41C143.65 236.68 141.29 237.75 138.97 238.93C138.51 239.2 138.39 239.52 138.5 239.81C138.86 239.85 139.22 239.87 139.54 239.92L139.55 239.92Z" fill="#6A7F6F"/>
<path d="M211.23 271.73C210.58 271.9 209.92 272.05 209.26 272.21C208.01 272.25 204.83 273.67 204.35 273.87C201.78 274.94 199.33 276.44 197.57 278.63C194.36 282.6 192.35 287.28 189.85 291.73C189.65 292.18 189.06 292.76 189.45 293.24C189.73 293.54 190.16 293.37 190.33 293.06C191.59 291.55 193.72 291.51 195.44 290.83C198.07 290.05 200.64 288.83 202.52 286.77C205.65 283.74 205.7 279.07 207.64 275.39C207.88 274.94 208.16 274.49 208.47 274.07C209.16 273.43 209.9 272.88 210.75 272.49C211.54 272.25 212.34 272.04 213.14 271.85C213.29 271.77 213.31 271.55 213.18 271.44C212.63 271.24 211.81 271.62 211.23 271.72L211.23 271.73Z" fill="#8DA68F"/>
<path d="M213.18 271.45C213.3 271.55 213.29 271.78 213.14 271.86C212.92 271.91 212.69 271.97 212.47 272.03C211.61 272.07 210.9 272.58 210.11 272.88C208.81 273.59 207.53 274.37 206.44 275.38C204.97 276.67 204.14 278.46 203.03 280.03C201.36 282.3 199.76 284.63 197.79 286.65C196.66 287.8 195.39 288.81 194.2 289.91C193.53 290.53 192.88 291.17 192.21 291.81C191.5 292.08 190.85 292.45 190.34 293.06C190.16 293.37 189.73 293.54 189.46 293.24C189.07 292.76 189.66 292.18 189.86 291.73C192.36 287.29 194.45 282.66 197.58 278.63C199.39 276.48 201.83 275.02 204.36 273.87C204.85 273.68 208.01 272.25 209.27 272.21C209.93 272.04 210.59 271.9 211.24 271.73C211.82 271.64 212.63 271.26 213.19 271.45L213.18 271.45Z" fill="#6A7F6F"/>
<path d="M145.17 252.68C144.5 252.65 143.82 252.65 143.14 252.62C141.9 252.84 138.51 252.12 137.99 252.02C135.26 251.51 132.55 250.55 130.36 248.79C126.39 245.58 123.44 241.42 120.07 237.6C119.78 237.2 119.09 236.76 119.37 236.21C119.58 235.86 120.03 235.93 120.27 236.2C121.81 237.41 123.91 237.01 125.73 237.31C128.46 237.52 131.24 238.18 133.5 239.8C137.19 242.1 138.22 246.67 140.89 249.85C141.22 250.24 141.58 250.62 141.98 250.97C142.78 251.45 143.63 251.83 144.54 252.04C145.36 252.11 146.18 252.14 147.01 252.16C147.17 252.2 147.24 252.42 147.14 252.55C146.64 252.86 145.77 252.66 145.18 252.69L145.17 252.68Z" fill="#86A896"/>
<path d="M147.14 252.54C147.24 252.42 147.18 252.2 147.01 252.15C146.78 252.15 146.55 252.14 146.32 252.13C145.47 252.27 144.67 251.92 143.84 251.79C142.42 251.37 141.01 250.87 139.73 250.11C138.02 249.16 136.84 247.58 135.42 246.28C133.31 244.41 131.26 242.47 128.91 240.9C127.56 240.01 126.11 239.29 124.72 238.47C123.94 238 123.16 237.51 122.38 237.03C121.63 236.92 120.92 236.69 120.29 236.2C120.05 235.93 119.6 235.86 119.39 236.21C119.11 236.76 119.81 237.2 120.09 237.6C123.46 241.42 126.47 245.51 130.38 248.79C132.6 250.52 135.29 251.44 138.01 252.02C138.53 252.1 141.92 252.84 143.16 252.62C143.84 252.65 144.52 252.65 145.19 252.68C145.78 252.65 146.65 252.85 147.15 252.54L147.14 252.54Z" fill="#6A7F6F"/>
<path d="M147.77 277.08C147.86 277.21 147.82 277.38 147.71 277.47C146.56 278.24 145.71 279.23 145.02 280.41C143.39 283.02 142.45 285.86 139.33 287.11C137.57 287.98 135.37 287.82 133.76 288.98C133.59 289.17 133.28 289.3 133.13 289.02C133.01 288.81 133.2 288.57 133.31 288.4C134.1 287.27 135 286.22 135.73 285.06C136.52 283.95 137.08 282.68 138 281.67C139.2 280.27 140.77 279.21 142.41 278.38C143.98 277.61 145.74 277.39 147.4 276.97C147.52 276.9 147.68 276.94 147.76 277.05L147.77 277.08Z" fill="#8DA68F"/>
<path d="M177.56 254.36C181.34 255.61 184.94 257.66 188.94 258.14C190.84 258.37 192.77 258.09 194.57 257.49C195.63 257.23 196.64 256.8 197.53 256.17C199.81 254.54 201.76 252.38 204.53 251.58C204.82 251.36 204.53 251.04 204.23 251.19C203.44 251.41 202.62 251.49 201.82 251.64C199.58 251.81 197.33 251.47 195.07 251.21C194.1 250.95 193.14 250.69 192.16 250.52C191.01 250.31 189.94 249.94 188.75 249.92C185.85 250.07 183.15 251.36 180.58 252.6C179.88 252.94 179.19 253.29 178.45 253.54C178.12 253.65 177.12 253.85 177.56 254.36Z" fill="#86A896"/>
<path d="M169.056 139.165C167.932 139.073 166.907 138.631 165.941 138.067C164.782 137.398 163.7 136.515 163.001 135.35C162.494 134.669 162.392 133.817 162.511 133.005C162.647 132.102 162.798 131.181 163.188 130.348C163.731 129.358 164.467 128.474 165.188 127.607C163.661 128.557 161.942 129.132 160.239 128.259C157.984 127.185 156.486 124.875 155.965 122.478C155.713 121.384 155.893 120.236 156.226 119.179C157.059 116.75 158.499 114.307 160.945 113.26C161.616 112.918 162.363 112.794 163.099 112.696C164.446 112.538 165.799 112.667 167.1 112.99C167.2 112.918 167.317 112.861 167.418 112.789C167.563 112.505 167.644 112.193 167.76 111.889C168.003 111.201 168.272 110.523 168.581 109.863C169.255 108.337 170.206 106.883 171.562 105.882C172.727 104.968 174.193 104.515 175.662 104.448C176.786 104.433 177.897 104.981 178.693 105.741C180.128 107.27 180.815 109.407 180.754 111.475C180.678 112.366 180.449 113.253 180.151 114.103C181.74 113.171 183.35 112.188 185.147 111.7C186.606 111.39 188.143 111.469 189.495 112.137C190.894 112.733 191.889 114.048 192.318 115.481C192.832 117.698 192.544 120.115 191.499 122.144C190.668 123.818 188.809 124.718 186.998 124.791C188.08 126.567 188.507 128.754 188.102 130.798C187.877 132.264 187.411 133.719 186.526 134.931C185.517 136.482 183.424 136.765 181.723 136.547C179.751 136.404 177.971 135.443 176.509 134.173C176.244 134.806 175.979 135.438 175.546 135.975C174.85 136.822 174.057 137.589 173.195 138.264C172.06 139.253 170.472 139.399 169.043 139.16L169.056 139.165Z" fill="#E7AA00"/>
<path d="M175.888 128.244C176.466 127.423 177.175 126.635 177.953 125.993C178.344 125.677 178.768 125.39 179.218 125.168C179.443 125.057 179.685 124.962 179.924 124.888C180.118 124.833 180.472 124.832 180.627 124.706C180.967 124.452 180.144 123.897 179.992 123.731C179.063 122.745 178.855 121.299 178.656 120.012C178.559 119.416 178.484 118.821 178.415 118.214C178.361 117.751 178.441 117.139 178.258 116.705C178.062 116.213 177.059 117.181 176.804 117.326C176.246 117.655 175.642 117.894 175.018 118.056C174.003 118.319 172.919 118.352 171.89 118.146C171.467 118.056 171.1 117.944 170.707 117.766C170.495 117.667 170.002 117.401 169.793 117.634C169.739 117.688 169.728 117.768 169.726 117.844C169.695 118.416 169.843 119.034 169.86 119.619C169.881 120.375 169.847 121.131 169.728 121.888C169.613 122.601 169.431 123.308 169.145 123.97C168.994 124.321 168.826 124.656 168.619 124.975C168.485 125.179 168.092 125.572 168.167 125.843C168.27 126.211 168.698 125.934 168.919 125.867C169.592 125.665 170.304 125.587 171 125.687C171.855 125.81 172.657 126.202 173.353 126.711C173.717 126.976 174.059 127.27 174.378 127.584C174.656 127.851 174.865 128.241 175.154 128.482C175.41 128.692 175.717 128.463 175.869 128.251L175.888 128.244Z" fill="#FEF7E7"/>
<path d="M174.781 126.026C174.386 126.086 173.835 125.24 173.568 125.001C172.947 124.441 172.239 123.904 171.44 123.651C171.033 123.468 171.462 122.975 171.577 122.725C171.987 121.831 171.993 120.925 171.999 119.965C172.143 119.596 173.222 120.092 173.445 120.165C174.259 120.455 175.173 120.48 176.015 120.296C176.249 120.29 176.337 120.513 176.342 120.715C176.34 121.469 176.613 122.265 176.89 122.962C176.978 123.185 177.097 123.213 176.955 123.452C176.84 123.649 176.622 123.832 176.477 124.008C176.005 124.582 175.512 125.155 175.07 125.75C174.994 125.855 174.926 126.011 174.772 126.029L174.781 126.026Z" fill="#C09141"/>
<path d="M156.425 24.6564C156.216 22.0171 158.626 20.0921 160.532 22.617C161.528 23.8786 161.981 25.4527 162.573 26.9175C167.845 40.3608 169.343 39.1206 170.509 41.1644C179.607 50.8834 171.351 50.3846 172.593 58.746C172.69 59.5039 172.677 59.3906 172.933 59.6549C181.192 67.5872 183.002 67.7293 185.28 69.9989C191.427 76.2413 182.836 84.6012 174.247 72.5605C171.202 68.3577 171.07 66.2905 172.853 72.3823C173.342 74.1031 174.962 80.3245 174.467 82.8988C173.855 85.9927 171.597 87.621 168.458 87.0594C167.205 86.8036 165.908 86.49 164.882 85.6926C161.695 82.9768 162.317 75.6825 162.301 75.3445C162.22 73.7306 162.031 72.1163 162.184 70.4956C162.312 68.5944 162.896 67.9535 162.345 68.7319C161.43 70.0313 161.269 71.171 159.603 72.7469C158.474 73.8619 157.033 74.5953 155.918 75.7159C153.509 78.2648 152.937 82.1926 146.896 81.6104C143.713 81.2604 143.956 77.8609 144.818 74.7751C145.774 71.2215 147.218 68.7332 152.23 65.6675C148.558 66.8779 140.709 68.1647 137.583 65.4676C136.362 63.7468 141.327 59.6131 142.744 58.8462C146.14 57.0464 150.267 57.4954 155.052 56.8655C152.492 56.5152 149.962 56.024 147.453 55.3953C142.584 54.9183 135.151 56.0075 135.614 50.046C135.499 49.2416 135.918 48.1286 137.163 47.2795C138.831 46.1975 143.2 46.5506 145.39 47.08C140.486 44.6476 138.129 44.1846 135.848 40.3886C134.647 38.4765 135.763 37.4098 136.643 35.726C137.059 35.0121 137.283 34.0304 138.108 33.6704C140.708 32.875 145.413 37.3552 152.342 42.1252C149.516 39.8041 146.043 36.4488 146.045 33.0914C146.024 30.9261 148.248 29.2904 150.279 29.2047C152.86 29.4176 154.304 32.6748 159.606 37.4666C158.018 35.3641 156.551 33.1597 155.386 30.7928C154.27 28.3089 153.678 26.274 156.412 24.6507L156.425 24.6564Z" fill="#DA4D45"/>
<path d="M171.407 58.0336C171.271 58.776 172.542 61.3271 173.041 62.2049C177.084 69.1104 183.306 70.3095 183.828 73.8465C184.031 74.874 182.846 74.8708 183.067 75.6439C184.744 78.3242 188.352 75.6225 186.753 72.0826C185.271 68.701 182.157 67.8497 176.849 63.2863C172.189 59.2185 172.039 56.9972 171.398 58.0373L171.407 58.0336ZM164.361 64.4347C163.014 65.7552 162.548 73.3099 162.394 74.6837C161.764 79.9799 163.538 86.0754 168.831 86.481C174.89 86.7011 174.734 76.0901 171.455 75.7454C170.052 75.6248 168.88 76.9828 167.472 76.552C163.412 75.1617 165.989 63.3582 164.356 64.4476L164.361 64.4347ZM161.123 56.6827C156.619 58.2122 153.105 58.4667 147.738 58.6607C144.525 58.8064 140.934 61.7922 140.359 62.8919C139.915 63.6168 140.515 64.2609 141.104 64.6617C142.344 65.482 143.912 65.527 145.351 65.4397C146.928 65.3733 155.856 63.2277 156.684 61.9523C157.014 61.4555 156.451 61.0121 156.379 60.5346C156.868 59.652 163.747 57.3302 163.4 56.4027C163.134 55.7873 161.638 56.5429 161.119 56.6734L161.123 56.6827ZM144.038 39.9885C142.651 41.3999 156.589 51.1984 164.406 50.8604C164.861 50.8412 165.788 50.7099 165.99 50.2963C166.339 49.4152 164.643 49.2065 162.998 48.9125C151.431 46.769 145.865 38.6284 144.051 39.9941L144.038 39.9885ZM156.694 23.4093C157.282 22.7237 158.084 23.0081 158.548 23.6629C159.563 25.2718 159.593 27.2719 160.059 29.0669C161.341 34.3032 164.391 39.6016 166.6 42.1031C168.124 43.8545 168.668 43.7891 168.381 44.2043C167.707 44.9454 159.199 39.5323 155.388 30.5551C154.65 28.9116 153.518 26.5206 155.287 25.1511C156.541 24.0829 155.96 24.2708 156.694 23.4093Z" fill="#DA4D45"/>
<path d="M178.429 44.7988C181.54 45.4253 189.955 46.1622 188.088 51.0244C187.91 51.3638 187.651 51.6602 187.354 51.886C186.599 52.8849 185.845 53.83 184.995 54.7265C183.48 56.275 181.708 57.613 179.773 58.5642C178.477 59.1216 177.121 59.3911 175.746 59.5602C174.067 59.7749 172.333 59.7425 170.696 59.3055C169.272 58.5906 171.374 56.2174 171.787 55.3327C171.127 54.9707 170.402 54.7422 169.702 54.4711C169.328 54.2863 168.181 54.0531 168.386 53.4873C168.979 52.5418 170.072 52.0432 170.945 51.3956C170.463 51.0489 169.894 50.8339 169.438 50.4446C168.865 49.951 169.565 49.3828 170.021 49.1481C170.554 48.8394 171.092 48.54 171.629 48.2406C170.726 47.9968 165.8 44.7231 167.13 43.7647C167.816 43.46 168.637 43.6293 169.355 43.7315C170.302 43.8936 171.248 44.0558 172.197 44.1418C174.282 44.3256 176.376 44.3979 178.424 44.8117L178.429 44.7988Z" fill="#6A7F6F"/>
<path d="M186.405 49.7127C187.088 49.7535 186.757 50.5195 186.452 50.8344C184.714 52.9338 182.433 54.4524 180.133 55.8391C179.035 56.4899 177.977 57.2114 176.833 57.7729C175.651 58.3176 174.148 58.7853 172.946 58.0357C172.548 57.7635 171.99 57.3071 172.197 56.7729C172.054 56.0873 173.137 55.4532 173.489 54.9583C173.58 54.836 173.672 54.7136 173.698 54.5633C173.824 53.9322 172.647 53.7323 173.153 52.9723C173.645 52.2067 176.83 51.9643 177.846 51.733C179.279 51.5195 180.719 51.2707 182.123 50.9067C183.528 50.5427 184.938 49.7572 186.401 49.7034L186.405 49.7127Z" fill="#C1DEC8"/>
<path d="M196.429 45.4215C196.353 45.9896 191.825 48.4326 189.963 48.9997C189.231 49.2151 188.896 48.1 189.633 47.8717C191.804 47.2683 195.323 44.9136 195.678 44.8049C196.065 44.6945 196.486 45.0225 196.433 45.4308L196.429 45.4215Z" fill="#8DA68F"/>
<path d="M182.1 181.78C182.41 181.1 182.89 178.86 182.96 177.95C183.34 173.17 184.87 168.12 183.16 163.45C182.81 162.48 182.23 161.18 181 161.27C179.4 161.75 179.14 164.08 178.75 165.49C177.82 168.81 177.81 173.81 179.31 179.13C179.41 179.17 181.21 180.98 182.1 181.78Z" fill="#6A7F6F"/>
<path d="M179.87 181.55C179.95 181.55 180.25 181.63 180.32 181.6C179.74 181.03 178.94 180.3 178.48 179.62C178.4 179.5 178.38 179.38 178.37 179.27C174.89 177.36 167.48 175.35 163.05 174.99C158.05 174.58 155.25 181.94 179.87 181.55Z" fill="#86A896"/>
<path d="M177.15 195.67C181.7 198.38 188.34 198.14 193.51 196.88C195.05 196.42 197.38 195.84 198.87 195.4C198.18 194.96 197.32 194.41 196.63 194.03C196.55 193.98 196.56 194.08 196.51 194.01C193.78 193.55 190.57 193.17 187.83 192.71C173.63 189.94 173.09 193.24 177.15 195.66L177.15 195.67Z" fill="#6A7F6F"/>
<path d="M153.893 159.173C157.397 162.576 162.247 163.76 166.518 165.999C166.851 166.173 167.391 166.428 167.852 166.538C178.061 174.699 192.139 181.766 204.016 184.459C205.198 184.727 205.207 183.095 204.031 183.094C193.355 180.457 177.966 173.145 168.413 165.333C168.408 165.314 168.405 165.304 168.391 165.287C167.767 162.99 159.115 153.279 154.603 151.802C153.04 151.291 150.533 151.658 150.426 153.677C150.48 155.964 152.363 157.694 153.905 159.18L153.893 159.173Z" fill="#6A7F6F"/>
<path d="M138.088 116.933C138.024 114.795 137.794 112.67 137.649 110.544C137.424 108.051 137.141 105.549 137.485 103.056C138.152 98.6921 139.896 94.3848 142.69 90.9623C145.088 88.0308 147.99 85.3941 151.25 83.4435C152.18 82.9668 153.111 82.4679 154.043 81.969C155.546 80.9312 157.114 80.0291 158.623 78.9244C159.06 78.6971 159.516 78.3548 159.987 78.2966C160.487 78.4427 160.261 78.9305 159.902 79.0837C158.804 79.9499 157.758 80.8385 156.712 81.7272C156.692 81.7568 156.697 81.7976 156.673 81.818C153.876 84.7465 152.911 88.8201 151.841 92.6018C149.74 99.6973 149.85 108.132 144.374 113.716C143.572 114.487 142.768 115.064 141.71 115.516C140.679 115.872 139.914 116.574 139.371 117.51C138.849 118.255 138.013 117.694 138.093 116.92L138.088 116.933Z" fill="#86A896"/>
<path d="M129.816 36.3599C127.59 39.5889 123.782 41.5956 120.006 42.2765C117.597 42.5766 114.967 42.2652 112.73 43.2714C112.46 43.4322 112.084 43.2697 112.025 42.9595C111.976 42.6993 112.151 42.4899 112.285 42.286C113.359 40.8701 114.347 39.402 115.151 37.8238C116.613 35.5975 117.995 33.3058 119.417 31.0626C122.029 28.1002 125.23 25.377 129.029 24.1595C132.604 23.2459 136.342 23.2576 139.978 23.8799C140.604 23.9112 141.222 23.9778 141.838 24.1205C143.25 24.5068 144.722 24.7186 146.121 25.153C146.368 25.2057 146.6 25.275 146.767 25.3701C146.932 25.4337 147.093 25.488 147.253 25.5646C147.622 25.7085 147.394 26.2724 147.019 26.0876C146.284 25.9167 145.544 25.7588 144.798 25.6138C144.705 25.6507 144.586 25.6764 144.434 25.6723C134.589 26.8369 134.82 29.1011 129.838 36.3618L129.816 36.3599Z" fill="#6A7F6F"/>
<path d="M215.346 23.9896C215.584 23.7229 215.815 23.4375 215.991 23.1204C216.25 22.6624 215.633 22.165 215.25 22.5001C214.702 23.1263 214.223 23.6822 213.516 24.178C209.761 26.6695 206.024 27.6903 201.54 26.6944C191.347 24.4357 180.62 21.6687 172.195 29.9083C171.19 30.6837 170.195 31.5093 168.976 31.9072C168.686 32.0438 168.231 32.0631 168.055 32.3801C167.923 32.6695 168.016 32.9873 168.304 33.1422C171.946 34.16 175.464 35.5396 179.067 36.7561C182.415 37.9013 185.837 39.0932 189.401 39.2919C193.67 39.4479 198.035 38.5438 201.787 36.4516C204.141 35.2265 206.446 33.903 208.389 32.0771C209.424 31.1068 210.431 30.0936 211.363 29.0246C212.91 27.5282 214.296 25.8698 215.346 23.9896Z" fill="#8DA68F"/>
<path d="M215.25 22.5001C215.633 22.165 216.259 22.6587 215.991 23.1204C215.815 23.4375 215.594 23.7192 215.361 23.973C214.316 25.8402 212.949 27.4912 211.407 28.9746C210.465 30.0696 209.439 31.0901 208.38 32.0808C206.436 33.9067 204.123 35.2339 201.778 36.4553C198.022 38.5382 193.661 39.4516 189.392 39.2956C185.827 39.0969 182.406 37.905 179.057 36.7598C175.458 35.5526 171.941 34.173 168.295 33.1459C168.007 32.991 167.913 32.6732 168.046 32.3839C168.221 32.0668 168.676 32.0476 168.966 31.9109C169.645 31.6954 170.255 31.3349 170.837 30.9316C176.489 31.3456 182.054 33.2246 187.777 33.3305C194.042 33.7164 200 31.7599 205.683 29.3533C208.124 28.4275 210.287 26.9123 212.099 25.0526C212.575 24.7883 213.04 24.4961 213.507 24.1817C214.214 23.6859 214.693 23.1301 215.24 22.5038L215.25 22.5001Z" fill="#6A7F6F"/>
<path d="M100.587 66.2103C99.7875 65.8498 99.1302 66.5519 99.8154 67.2482C102.326 69.4794 104.547 72.0403 107.201 74.1178C111.897 77.7084 117.787 79.889 123.706 79.8636C129.299 79.752 134.385 77.0875 139.535 75.1828C139.573 75.168 139.61 75.1533 139.647 75.1385C140.453 74.9475 141.245 74.7193 142.037 74.4911C142.654 74.2569 143.312 74.1249 143.91 73.8442C144.033 73.7739 144.082 73.6255 144.039 73.4917C143.988 73.3078 143.743 73.2328 143.587 73.3271C142.871 73.5035 142.065 73.6945 141.361 73.7911C140.341 73.9054 139.325 73.9752 138.317 74.0097C137.814 73.962 137.316 73.9013 136.846 73.8833C130.919 73.2885 126.574 68.7944 121.426 66.2871C117.777 64.5505 113.553 64.6676 109.668 65.3705C106.686 65.9087 103.634 67.0019 100.6 66.2159L100.587 66.2103Z" fill="#6A7F6F"/>
<path d="M129.252 84.892C128.19 85.6041 127.017 86.0913 125.822 86.5227C123.268 87.4074 120.573 87.5303 117.902 87.7944C114.52 87.5126 111.15 86.6663 107.912 85.6923C104.328 84.3069 100.562 83.0584 96.6768 83.0297C93.1646 83.3158 89.8795 85.5021 86.2732 84.7926C86.0004 84.7288 85.6906 84.6258 85.4395 84.7793C85.0713 84.99 85.0846 85.5657 85.4592 85.7505C87.5022 87.0483 89.5713 88.3035 91.6255 89.5753C97.4506 93.1911 104.571 94.9479 111.354 93.7939C112.571 93.5798 113.764 93.2245 114.918 92.7986C117.659 92.141 120.365 91.0988 122.809 89.7738C124.408 89.0853 125.916 88.1961 127.376 87.2398C128.239 86.8113 129.065 86.2898 129.843 85.6474C130.247 85.2827 129.727 84.5961 129.275 84.8939L129.252 84.892Z" fill="#8DA68F"/>
<path d="M137.097 88.0935C137.316 88.0495 137.517 87.8513 137.746 87.9114C137.911 87.9749 137.964 88.1905 137.858 88.3295C135.604 89.4285 133.251 90.438 131.017 91.6151C128.669 93.6126 127.516 96.8351 127.573 99.9327C127.276 102.03 126.948 104.13 126.474 106.19C125.137 110.68 121.772 114.318 118.04 117.005C117.072 117.712 116.155 118.463 115.285 119.282C114.835 119.773 114.109 120.437 113.595 119.63C113.471 119.399 113.488 119.145 113.532 118.902C113.682 117.981 113.887 117.061 114.048 116.136C114.329 113.432 114.385 110.806 115.038 108.169C116.166 102.933 119.47 98.4909 123.453 95.027C124.666 94.0719 125.938 93.2118 127.283 92.4521C127.867 92.0265 128.471 91.6252 129.1 91.2573C131.646 89.9455 134.426 89.0892 137.104 88.112L137.097 88.0935Z" fill="#6A7F6F"/>
<path d="M99.7925 106.571C98.4394 107.065 97.2166 108.132 96.5113 109.391C95.9647 110.372 95.6976 111.65 96.1777 112.697C96.7057 113.865 97.7305 114.684 98.7201 115.443C99.6006 116.062 100.643 116.412 101.713 116.503C102.938 116.716 104.212 116.512 105.296 115.909C106.453 115.3 107.624 114.103 107.6 112.714C107.487 111.048 106.743 109.31 105.176 108.533C104.583 108.231 104.031 107.761 103.488 107.342C102.411 106.5 101.114 106.186 99.7925 106.571Z" fill="#86A896"/>
<path d="M99.8248 116.22C100.906 116.587 101.956 117.171 103.132 117.124C104.74 117.055 106.159 116.105 106.976 114.747C108.043 112.99 107.381 110.563 106.079 109.1C105.903 108.901 105.601 108.709 105.402 108.885C105.281 108.987 105.286 109.189 105.354 109.334C105.423 109.479 105.552 109.589 105.663 109.706C106.273 110.347 106.521 111.324 106.264 112.168C106.071 112.847 105.596 113.412 105.051 113.855C103.834 114.854 102.217 115.335 100.656 115.169C100.318 115.131 99.9597 115.069 99.6621 115.241C99.2418 115.483 99.3906 116.102 99.8248 116.22Z" fill="#6A7F6F"/>
<path d="M98.7386 111.207C99.1444 110.82 99.5669 110.448 99.9858 110.066C100.816 109.285 101.628 108.403 102.774 108.12C102.618 108.161 102.921 108.083 102.968 108.011C103.343 107.464 102.635 107.336 102.216 107.363C100.503 107.44 98.9371 108.428 97.7362 109.658C97.5202 109.872 97.306 110.119 97.244 110.423C97.1651 110.767 97.3386 111.15 97.6408 111.342C97.9819 111.55 98.4537 111.492 98.7423 111.216L98.7386 111.207Z" fill="#C1DEC8"/>
<path d="M113.268 104.794C113.759 104.136 115.753 102.355 114.916 101.601C114.68 101.414 114.313 101.41 114.087 101.628C111.966 104.063 109.735 106.411 107.04 108.213C106.665 108.814 107.436 109.239 107.948 108.875C109.952 107.853 111.755 106.459 113.268 104.794Z" fill="#8DA68F"/>
<path d="M96.8484 103.329C96.523 103.512 96.1733 103.037 96.4599 102.783C97.0464 102.174 97.3625 101.317 98.0269 100.741C100.523 98.4376 104.004 97.3679 107.365 97.3785C108.895 97.3844 110.477 97.3588 111.969 97.0786C112.772 96.9859 113.553 96.5145 114.362 96.5482C114.817 96.7982 114.37 97.2984 114.191 97.6062C113.711 98.3774 113.23 99.1709 112.616 99.8453C109.413 103.107 105.457 102.709 101.298 102.584C100.059 102.635 98.7337 102.44 97.557 102.918C97.2968 103.022 97.0753 103.195 96.8391 103.332L96.8484 103.329Z" fill="#8DA68F"/>
<path d="M213.035 32.6965C213.213 32.8195 213.23 33.0498 213.125 33.2204C211.994 34.6807 211.334 36.2982 210.966 38.0799C210.006 42.0866 210.009 46.0772 206.59 48.9837C204.721 50.8339 201.867 51.5581 200.322 53.71C200.187 54.0216 199.852 54.316 199.535 54.0329C199.298 53.8151 199.438 53.4366 199.506 53.1731C200.021 51.4085 200.73 49.6963 201.165 47.9204C201.701 46.1799 201.873 44.3364 202.605 42.6578C203.538 40.3725 205.075 38.3635 206.804 36.6225C208.467 34.9835 210.598 33.9547 212.534 32.7342C212.663 32.5971 212.88 32.5753 213.022 32.6908L213.035 32.6965Z" fill="#6A7F6F"/>
<path d="M219.91 84.5162C219.084 85.6617 218.064 86.6154 216.994 87.5243C214.694 89.4273 211.956 90.5788 209.299 91.881C205.697 92.8911 201.886 93.3175 198.167 93.5455C193.93 93.4954 189.558 93.6492 185.536 95.1169C182.015 96.7622 179.463 100.282 175.465 100.944C175.157 100.98 174.797 100.994 174.596 101.246C174.299 101.611 174.541 102.193 174.99 102.24C177.6 102.797 180.219 103.296 182.83 103.83C190.246 105.329 198.271 104.403 204.829 100.595C206.006 99.9019 207.091 99.084 208.136 98.1954C210.718 96.4603 213.108 94.3496 215.116 92.0355C216.505 90.7096 217.72 89.2161 218.855 87.6573C219.581 86.8849 220.233 86.0342 220.783 85.0626C221.067 84.5304 220.249 84.0157 219.903 84.4976L219.91 84.5162Z" fill="#8DA68F"/>
<path d="M194.628 141.871C194.207 141.543 194.218 140.947 194.156 140.466C194.02 139.39 193.865 138.322 193.741 137.252C192.851 129.805 194.378 119.613 199.55 113.912C202.203 110.621 205.404 107.898 208.621 105.19C209.482 104.214 210.359 103.252 211.212 102.257C213.129 100.119 214.839 97.8155 216.622 95.5584C216.622 95.5584 216.611 95.5843 216.605 95.5973C216.691 95.3803 216.966 95.3141 217.137 95.4724C217.453 95.8632 216.858 96.2609 216.684 96.6096C216.638 96.6819 216.588 96.7449 216.532 96.8209C216.457 97.0658 216.189 97.3121 216.097 97.5421C215.7 98.2486 215.325 98.9569 214.94 99.669C214.88 99.7895 214.834 99.9157 214.783 100.033C214.281 101.179 213.736 102.299 213.122 103.382C212.646 104.324 212.179 105.262 211.742 106.221C210.505 109.176 209.971 112.358 209.211 115.457C208.282 119.376 207.202 123.269 206.009 127.121C204.908 131.152 202.754 134.804 199.823 137.775C198.769 138.968 197.524 139.979 196.396 141.094C195.99 141.642 195.366 142.428 194.635 141.89L194.628 141.871Z" fill="#8DA68F"/>
<path d="M194.964 142.039C195.548 142.184 196.048 141.544 196.392 141.085C197.521 139.97 198.766 138.959 199.82 137.766C202.75 134.795 204.905 131.142 206.005 127.112C207.198 123.26 208.269 119.371 209.207 115.447C209.958 112.352 210.505 109.176 211.738 106.212C212.161 105.27 212.631 104.341 213.105 103.421C213.734 102.321 214.294 101.184 214.789 100.02C214.873 99.8248 214.961 99.6393 215.036 99.4483C215.383 98.8048 215.739 98.1576 216.099 97.5198C216.2 97.2861 216.459 97.0435 216.534 96.7985C216.58 96.7262 216.64 96.6596 216.686 96.5873C216.851 96.2423 217.455 95.8409 217.139 95.4501C216.981 95.2975 216.725 95.3562 216.624 95.5361C216.458 95.7418 216.293 95.9474 216.136 96.1494C216.007 96.3404 215.884 96.5183 215.773 96.6165C213.569 99.2773 211.862 102.322 209.988 105.218C206.273 111.416 203.223 117.963 200.725 124.732C199.356 128.277 198.342 131.929 197.376 135.594C196.678 137.765 195.805 139.876 194.971 142.004L194.964 142.039Z" fill="#6A7F6F"/>
<path d="M215.638 77.7661C215.141 78.2217 214.661 78.6921 214.154 79.1513C213.433 80.18 210.511 82.0609 210.078 82.3513C207.771 83.9125 205.183 85.1444 202.383 85.4379C197.307 85.9575 192.279 85.0809 187.195 84.7427C186.713 84.6653 185.908 84.834 185.72 84.2523C185.629 83.8584 185.993 83.5845 186.359 83.6115C188.313 83.3844 189.506 81.6197 191.017 80.5466C193.109 78.7694 195.543 77.2865 198.284 76.8443C202.527 75.8805 206.472 78.3921 210.605 78.7743C211.108 78.822 211.641 78.8364 212.165 78.8007C213.073 78.5691 213.949 78.2538 214.732 77.76C215.361 77.2306 215.97 76.677 216.575 76.114C216.722 76.0234 216.918 76.1391 216.94 76.3025C216.801 76.8741 216.042 77.3475 215.645 77.7847L215.638 77.7661Z" fill="#8DA68F"/>
<path d="M216.933 76.2839C216.914 76.1297 216.718 76.0141 216.567 76.0954C216.402 76.2472 216.23 76.4121 216.065 76.5639C215.556 77.2608 214.747 77.5818 214.059 78.0702C212.755 78.7706 211.398 79.417 209.958 79.7735C208.072 80.307 206.126 80.0142 204.199 80.0908C201.389 80.2488 198.555 80.3193 195.788 80.858C194.204 81.1752 192.665 81.6892 191.1 82.0844C190.219 82.3049 189.318 82.5013 188.421 82.7069C187.812 83.1528 187.141 83.4946 186.352 83.5928C185.99 83.5752 185.621 83.8397 185.713 84.2336C185.905 84.8247 186.705 84.6466 187.188 84.724C192.271 85.0623 197.294 85.8442 202.376 85.4192C205.17 85.0849 207.723 83.8455 210.07 82.3327C210.5 82.033 213.426 80.1614 214.147 79.1326C214.644 78.6771 215.134 78.203 215.631 77.7475C216.027 77.3103 216.786 76.8369 216.925 76.2653L216.933 76.2839Z" fill="#6A7F6F"/>
<path d="M188.612 4.72428C189.831 3.43317 191.201 2.2762 192.308 0.890089C195.395 -3.17601 194.498 -8.66195 194.375 -13.4439C193.971 -16.7374 192.86 -19.8897 192.972 -23.2376C192.937 -24.5468 193.015 -25.8687 193.256 -27.1587C193.56 -28.3445 194.253 -29.3621 194.817 -30.4358C195.451 -31.7638 196.353 -32.9071 197.272 -34.0356C197.355 -34.1227 197.424 -34.1931 197.476 -34.2245C198.612 -35.4286 199.426 -36.9027 200.475 -38.1906C201.088 -39.1119 201.711 -40.0369 202.265 -40.9992C202.375 -41.2904 202.818 -41.6922 202.44 -41.9402C202.316 -42.0092 202.134 -41.98 202.046 -41.8484C201.817 -41.4776 201.587 -41.1068 201.341 -40.7509C201.06 -40.3487 200.782 -39.9372 200.487 -39.5405C198.525 -37.438 196.332 -35.5887 194.077 -33.7896C193.662 -33.4527 193.24 -33.1344 192.821 -32.8068C192.043 -32.2183 191.266 -31.6299 190.569 -30.9446C186.995 -27.643 184.117 -23.3479 182.862 -18.6215C182.323 -15.6425 182.687 -12.5591 183.214 -9.60512C183.561 -7.64512 183.822 -5.66118 184.21 -3.70664C184.813 -0.642935 185.466 2.41161 185.642 5.53733C185.606 6.36916 186.305 7.12493 187.104 6.59221C187.644 6.00126 188.085 5.32087 188.647 4.73182L188.612 4.72428Z" fill="#8DA68F"/>
<path d="M186.645 6.76375C186.051 6.83833 185.588 6.21502 185.62 5.53545C185.444 2.40973 184.85 -0.657658 184.188 -3.70852C183.85 -5.67221 183.58 -7.65241 183.191 -9.60695C182.733 -12.5774 182.301 -15.6444 182.84 -18.6234C184.095 -23.3498 186.982 -27.6486 190.547 -30.9465C191.228 -31.6151 191.98 -32.2147 192.75 -32.768C192.75 -32.768 193.631 -33.4509 194.058 -33.7822C196.264 -35.6259 198.491 -37.414 200.463 -39.5202C200.758 -39.9168 201.032 -40.3376 201.323 -40.7435C201.569 -41.0994 201.798 -41.4702 202.027 -41.841C202.106 -41.9689 202.297 -42.0018 202.421 -41.9328C202.803 -41.6755 202.36 -41.2737 202.246 -40.9918C201.961 -40.4911 201.659 -40.0054 201.343 -39.5253C200.16 -37.9797 198.823 -36.5236 197.516 -35.1009C194.815 -31.9307 191.877 -28.8706 189.687 -25.3333C187.72 -22.0776 186.904 -18.2785 186.311 -14.568C185.966 -11.8596 186.388 -8.98213 186.57 -6.3002C186.98 -3.23515 187.38 -0.112509 187.236 2.96781C187.211 4.25833 187.016 5.52983 186.642 6.75444L186.645 6.76375Z" fill="#6A7F6F"/>
<path d="M191.388 67.0363C192.058 63.7903 197.239 61.6368 200.115 63.0556C202.239 64.0954 201.606 65.8635 200.599 67.5005C199.911 68.5591 198.812 69.2321 197.713 69.7975C196.839 70.252 195.873 70.528 194.946 70.8209C194.093 71.0842 193.109 70.9367 192.392 70.4038C191.328 69.6211 191.051 68.2462 191.385 67.0271L191.388 67.0363Z" fill="#8DA68F"/>
<path d="M201.147 63.3776C201.817 64.0368 201.921 65.0825 201.604 65.9396C201.346 66.6445 200.847 67.23 200.309 67.7449C199.241 68.7393 197.967 69.514 196.597 69.9933C196.476 70.0412 196.351 70.0799 196.231 70.074C195.958 70.064 195.706 69.8089 195.859 69.5438C195.922 69.4326 196.032 69.3567 196.129 69.2752C196.797 68.7626 197.365 68.1067 197.796 67.3762C198.111 66.8422 198.656 65.7759 198.329 65.1418C198.098 64.6956 197.463 64.6679 197.135 64.3031C196.808 63.9382 196.709 63.3103 197.078 62.9381C197.472 62.5231 198.221 62.592 198.739 62.623C199.606 62.5584 200.545 62.702 201.156 63.374L201.147 63.3776Z" fill="#6A7F6F"/>
<path d="M196.336 64.4588C196.627 64.9461 196.037 65.3308 195.719 65.6401C194.974 66.3661 194.355 67.1927 193.809 68.0659C193.596 68.3977 193.432 68.7965 193.47 69.1903C193.488 69.3444 193.538 69.4968 193.511 69.6472C193.472 69.8996 193.204 69.9844 192.985 69.9206C192.814 69.8701 192.677 69.7416 192.55 69.6094C191.833 68.8072 191.693 67.5608 192.142 66.5759C192.685 65.3703 193.84 64.8367 195.051 64.5279C195.304 64.4598 195.527 64.3174 195.776 64.2401C196.001 64.1831 196.201 64.2542 196.329 64.4402L196.336 64.4588Z" fill="#C1DEC8"/>
<path d="M177.908 -12.889C177.587 -9.46934 177.366 -5.79876 175.464 -2.83817C174.345 -0.995276 173.377 1.22874 171.339 2.2206C169.407 3.12731 168.245 1.50126 168.358 -0.329403C168.392 -6.36815 178.725 -22.1327 177.904 -12.8983L177.908 -12.889Z" fill="#6A7F6F"/>
<path d="M134.493 20.6882C133.909 21.8993 131.443 21.1891 130.354 21.32C125.676 20.9716 115.947 21.208 115.987 16.2426C116.677 12.2891 124.838 15.5267 128.79 17.3253C130.198 17.8637 134.937 19.2856 134.499 20.6753L134.493 20.6882Z" fill="#8DA68F"/>
<path d="M132.826 39.9851C133.746 40.9754 132.184 43.0048 131.899 44.0755C129.866 48.304 126.531 57.439 121.927 55.5979C118.503 53.5035 124.503 47.0978 127.617 44.0754C128.628 42.9639 131.688 39.0704 132.826 39.9851Z" fill="#6A7F6F"/>
<path d="M179.108 13.1988L179.091 13.1839C176.168 11.0519 173.579 8.48625 170.6 6.43023C168.259 4.89583 165.935 3.67721 163.309 2.5896C158.816 0.704177 153.715 0.0501411 148.909 0.925203C146.676 1.2629 144.764 2.30153 142.52 2.66519C142.059 2.75127 141.572 2.82614 141.108 2.90292C140.446 3.07946 140.485 3.98947 141.11 4.18238C145.675 7.0076 149.402 11.0581 153.771 14.1762C162.954 20.3431 171.396 22.4468 181.469 20.5029C185.084 20.2839 188.731 19.6323 192.355 19.8721C193.197 19.9894 194.044 20.0622 194.907 20.0961C195.295 20.1788 195.432 19.6294 195.126 19.4819C190.237 18.8192 185.575 17.1302 181.336 14.6382C180.58 14.1962 179.846 13.7021 179.126 13.1914L179.108 13.1988Z" fill="#8DA68F"/>
<path d="M195.033 19.465C195.033 19.465 195.085 19.4874 195.111 19.4986L195.13 19.4912C195.13 19.4912 195.069 19.4725 195.033 19.465Z" fill="#8DA68F"/>
<path d="M151.864 22.6259C152.14 22.8068 151.816 23.1829 151.588 22.9614C151.106 22.7763 150.624 22.5912 150.147 22.3931C150.11 22.4078 150.071 22.391 150.041 22.3705C148.197 21.5746 146.348 20.7378 144.399 20.2741C139.214 19.8687 134.592 16.9802 132.269 12.211C131.104 10.1449 130.048 8.02522 128.963 5.91659C128.804 5.51693 128.438 5.13528 128.495 4.68233C128.618 4.18128 129.177 4.15302 129.524 4.45661C131.347 5.4437 133.439 5.8076 135.295 6.7168C137.318 7.77498 139.253 9.07245 140.82 10.7422C141.936 12.0636 142.934 13.4645 143.827 14.9283C144.616 16.1318 145.12 17.4813 145.971 18.6496C146.064 18.7743 146.152 18.8897 146.25 19.0013C147.907 20.5172 149.803 21.7441 151.866 22.6036L151.864 22.6259Z" fill="#8DA68F"/>
<path d="M216.2 187.57C216.81 188.41 217.19 188.28 217.53 189.32C217.63 189.62 218.67 190.79 218.85 191.06C218.56 191.15 216.81 191.39 216.45 191.4C211.24 192.02 199.88 192.57 197.4 187.97C196.93 185.92 199.85 185.62 201.28 185.32C206.17 184.84 211.6 185.93 216.2 187.58L216.2 187.57Z" fill="#6A7F6F"/>
</g>
<defs>
<clipPath id="clip0_62_148">
<rect width="1200" height="480" fill="white" transform="translate(0 926) rotate(-90)"/>
</clipPath>
</defs>
</svg>
