<svg width="191" height="665" viewBox="0 0 191 665" fill="none" xmlns="http://www.w3.org/2000/svg">
<g clip-path="url(#clip0_62_1519)">
<path d="M-0.427136 11.1239C0.573751 11.8038 1.34393 12.8589 1.59982 14.0483C1.81593 15.0293 1.56597 16.02 1.27763 16.9605C0.476622 19.4387 -1.11664 21.8018 -3.33118 23.2109C-4.21837 23.805 -5.19622 24.3013 -6.26818 24.4555C-5.32789 25.723 -4.90877 27.2771 -4.65868 28.8131C-4.12528 32.2098 -5.29688 35.8386 -7.64291 38.331C-9.59994 40.1084 -12.2907 41.738 -15.0225 41.079C-17.702 40.4676 -19.7428 38.4889 -20.8278 36.0109C-21.2738 34.9947 -21.4 33.8814 -21.6681 32.8167C-22.7315 33.5813 -23.8773 34.2536 -25.0665 34.8118C-26.2279 35.3647 -27.4847 35.7199 -28.78 35.7224C-31.4867 35.685 -32.4796 34.406 -33.0652 31.9046C-33.3643 30.2628 -33.4239 28.5177 -32.8415 26.9307C-31.7912 24.1746 -29.2481 22.2996 -26.6525 21.0769C-27.8973 20.7027 -29.1386 20.2343 -30.239 19.5229C-31.5235 18.602 -32.6979 17.4656 -33.4735 16.0804C-34.8066 13.7362 -35.3882 12.0475 -34.7295 9.35178C-34.5995 8.75104 -34.3146 8.20713 -33.9248 7.72238C-32.8359 6.26187 -31.1521 5.27805 -29.3581 5.02189C-27.7592 4.87497 -26.1289 5.57151 -24.9201 6.58611C-24.0055 7.30413 -23.326 8.26139 -22.5821 9.14157C-22.3525 7.62918 -21.9944 5.99866 -20.8696 4.87684C-19.1907 3.18849 -17.465 2.49906 -15.1352 2.18378C-13.8493 1.98144 -12.5506 2.22297 -11.2879 2.46419C-8.85156 2.97083 -6.45397 4.10396 -6.7927 7.00497C-6.88157 7.97218 -7.40776 8.83574 -7.67097 9.75705C-5.19866 9.32098 -2.54175 9.66312 -0.424174 11.1017L-0.427136 11.1239Z" fill="#E3BCA7"/>
<path d="M-13.9993 166.661C-12.9091 167.314 -11.9633 168.175 -11.0575 169.066C-9.16452 170.997 -7.90667 173.388 -6.52867 175.689C-5.33686 178.873 -4.66578 182.27 -4.17024 185.625C-3.89106 189.469 -3.41882 193.401 -1.78434 196.923C-0.0243316 199.982 3.3501 202.015 4.25211 205.583C4.31608 205.862 4.34958 206.174 4.59292 206.339C4.94015 206.577 5.45296 206.321 5.46001 205.906C5.75857 203.503 6.01593 201.098 6.29249 198.699C7.07277 191.883 5.62763 184.695 1.68526 179.058C0.971244 178.046 0.146686 177.126 -0.733148 176.253C-2.4937 174.049 -4.58818 172.058 -6.8348 170.409C-8.14259 169.255 -9.58344 168.269 -11.0784 167.362C-11.8311 166.766 -12.6571 166.242 -13.5744 165.816C-14.0757 165.607 -14.4781 166.375 -14.0185 166.655L-13.9993 166.661Z" fill="#8DA68F"/>
<path d="M-12.153 161.575C-12.2863 161.39 -12.5522 161.302 -12.5986 161.069C-12.6083 160.889 -12.4425 160.75 -12.2765 160.788C-10.3178 162.353 -8.40804 164.049 -6.38442 165.57C-3.57881 166.842 -0.169905 166.518 2.60227 165.133C4.63005 164.508 6.66179 163.906 8.73089 163.46C13.3692 162.747 18.0881 164.246 22.1122 166.479C23.1645 167.048 24.2433 167.563 25.3446 168.001C25.9847 168.199 26.8941 168.58 26.376 169.387C26.2221 169.592 25.9852 169.689 25.7471 169.755C24.8483 170.012 23.9347 170.213 23.0263 170.468C20.4609 171.362 18.0632 172.43 15.4028 172.973C10.1785 174.192 4.759 173.092 -0.0776713 170.964C-1.4602 170.277 -2.78016 169.483 -4.04318 168.602C-4.67943 168.249 -5.30044 167.879 -5.89779 167.464C-8.16705 165.714 -10.1341 163.574 -12.1626 161.572L-12.153 161.575Z" fill="#6A7F6F"/>
<path d="M-10.12 382C-10.38 382.51 -9.63997 382.97 -9.27997 382.54C-8.43997 381.5 -7.71996 380.38 -6.75996 379.42C-2.78996 375.44 2.55003 373.39 7.76003 371.51C11.84 369.96 15.83 368.02 19.29 365.35C21.81 363.51 23.76 361.06 24.98 358.19C25.83 356.33 26.26 354.26 27.42 352.55C27.69 352.3 27.74 351.83 27.34 351.69C17.02 354.41 3.57003 357.21 -2.82997 366.54C-4.47997 369.07 -5.87996 371.79 -6.89996 374.63C-7.00996 374.91 -7.09996 375.19 -7.19996 375.47C-7.49996 376.09 -7.77996 376.73 -8.05996 377.36C-8.39996 378.15 -8.81996 379.03 -9.19996 379.84C-9.26996 380.13 -9.56996 380.57 -9.58996 380.91C-9.64996 381.06 -9.69996 381.21 -9.75996 381.36C-9.87996 381.57 -10.02 381.78 -10.14 381.99L-10.12 382Z" fill="#86A896"/>
<path d="M79.1166 38.5165C79.6711 39.4977 79.8806 40.5951 79.9569 41.7107C80.0534 43.0457 79.9303 44.4369 79.3593 45.669C79.0805 46.4709 78.4321 47.0338 77.694 47.3907C76.8696 47.7857 76.023 48.1777 75.1147 48.3224C73.9905 48.429 72.846 48.3164 71.7236 48.2068C73.3675 48.9367 74.8085 50.0365 75.0416 51.9357C75.4195 54.4048 74.3489 56.9416 72.6581 58.7186C71.8938 59.5412 70.8438 60.0369 69.7815 60.3549C67.3043 61.0294 64.4737 61.21 62.234 59.7731C61.5743 59.4096 61.0521 58.8614 60.5577 58.3079C59.6708 57.2823 59.0183 56.0895 58.555 54.8317C58.4388 54.7891 58.3257 54.7243 58.2096 54.6817C57.893 54.7206 57.5842 54.8371 57.2729 54.9038C56.5668 55.089 55.8554 55.2464 55.136 55.3622C53.4942 55.6613 51.7577 55.6905 50.1677 55.1302C48.7571 54.6797 47.559 53.7207 46.6789 52.5425C46.0352 51.6216 45.8656 50.3942 46.047 49.3085C46.5059 47.2628 47.8887 45.4942 49.6347 44.3834C50.4151 43.9464 51.2776 43.6378 52.1478 43.4068C50.485 42.6157 48.7666 41.8352 47.3543 40.6219C46.2788 39.5891 45.4804 38.273 45.2744 36.779C44.9823 35.287 45.5118 33.7245 46.4566 32.5651C48.0022 30.895 50.1643 29.7767 52.43 29.5024C54.2822 29.2495 56.0704 30.2831 57.1421 31.7486C58.0046 29.8562 59.5744 28.275 61.4925 27.4625C62.8322 26.8251 64.2976 26.3941 65.7977 26.4461C67.648 26.4095 69.0571 27.9833 69.8315 29.5128C70.8206 31.2244 71.0249 33.2371 70.7946 35.1599C71.467 35.0244 72.1394 34.8888 72.8267 34.9447C73.9186 35.0458 74.9984 35.2715 76.0411 35.6051C77.4967 35.9895 78.5094 37.2215 79.1137 38.5387L79.1166 38.5165Z" fill="#E7AA00"/>
<path d="M66.2429 38.995C65.239 38.9779 64.1891 38.8329 63.2208 38.5498C62.7394 38.4042 62.264 38.2142 61.828 37.9663C61.6099 37.8424 61.3949 37.6963 61.1993 37.5392C61.0451 37.4103 60.8396 37.1256 60.6543 37.0602C60.2534 36.9208 60.2558 37.9138 60.204 38.1324C59.9095 39.4556 58.8303 40.4392 57.8768 41.3267C57.4377 41.7417 56.9877 42.1372 56.5238 42.5353C56.1717 42.8401 55.6201 43.1182 55.3642 43.5126C55.0664 43.951 56.4313 44.2375 56.6936 44.3674C57.2792 44.6443 57.8169 45.0096 58.3013 45.4354C59.0886 46.1273 59.73 46.9983 60.132 47.9725C60.2949 48.3734 60.4082 48.7405 60.4821 49.1655C60.519 49.396 60.5751 49.954 60.8854 49.9955C60.9602 50.0101 61.0326 49.9746 61.0967 49.9336C61.5875 49.6383 62.0159 49.1678 62.4904 48.8252C63.1045 48.384 63.7486 47.9875 64.4421 47.6607C65.0966 47.3558 65.7838 47.1094 66.4923 46.9741C66.8673 46.9025 67.2394 46.853 67.6195 46.8452C67.8636 46.8418 68.4091 46.9464 68.5912 46.7317C68.8378 46.4398 68.368 46.2416 68.189 46.0958C67.6437 45.6528 67.1797 45.1079 66.8718 44.4756C66.4931 43.6985 66.3677 42.8153 66.3974 41.953C66.4124 41.5038 66.4635 41.055 66.545 40.6147C66.6093 40.2352 66.8152 39.8432 66.8517 39.4691C66.8823 39.1393 66.5201 39.0141 66.2594 39.0062L66.2429 38.995Z" fill="#FEF7E7"/>
<path d="M65.0286 41.1561C65.3007 41.4497 64.9098 42.381 64.8623 42.7356C64.7469 43.5639 64.7004 44.4511 64.9346 45.263C65.0112 45.7019 64.3628 45.6241 64.0906 45.6689C63.1212 45.8324 62.3679 46.3362 61.57 46.8701C61.1837 46.9582 60.9887 45.7861 60.9241 45.5609C60.7067 44.7241 60.2142 43.9543 59.5898 43.3608C59.4471 43.1793 59.5876 42.9725 59.7523 42.8547C60.3773 42.433 60.888 41.7524 61.3038 41.1403C61.4387 40.9417 61.3953 40.8276 61.6728 40.8106C61.9004 40.796 62.1743 40.8733 62.4016 40.8947C63.1415 40.9621 63.8924 41.0491 64.6327 41.0806C64.763 41.0845 64.9297 41.0526 65.0313 41.17L65.0286 41.1561Z" fill="#C09141"/>
<path d="M-8.54636 113.263C-10.6133 114.918 -13.5592 114.004 -12.5401 111.009C-12.0608 109.485 -11.0069 108.219 -10.1273 106.906C-1.9633 94.9953 -3.83073 94.452 -2.79438 92.3392C0.139673 79.3538 4.36283 86.4662 10.584 80.743C11.157 80.2377 11.0704 80.3118 11.1457 79.9519C13.072 68.6635 12.1732 67.0858 12.7721 63.9263C14.4863 55.3348 26.2281 57.7504 21.0869 71.618C19.3191 76.498 17.6827 77.7679 21.7222 72.8716C22.8713 71.5004 27.11 66.667 29.5182 65.6312C32.4218 64.4001 35.0373 65.3549 36.3349 68.2674C36.8266 69.4477 37.2956 70.6971 37.2121 71.9944C36.7542 76.1564 30.3686 79.7369 30.0978 79.9398C28.8079 80.9131 27.5783 81.9758 26.1513 82.7594C24.5065 83.7213 23.6478 83.5973 24.6017 83.6168C26.1908 83.6445 27.2242 83.1376 29.4637 83.6315C31.0198 83.939 32.4359 84.7197 33.9893 85.0134C37.4514 85.5761 41.0223 83.8432 43.9325 89.169C45.4305 92 42.4811 93.7078 39.4434 94.727C35.9659 95.9309 33.0963 96.1333 27.745 93.7068C30.8086 96.0662 36.2805 101.839 35.7981 105.948C35.0597 107.924 28.857 106.128 27.4211 105.395C24.0253 103.596 22.0797 99.9285 18.8716 96.3226C20.0191 98.6374 21.0329 101.007 21.9215 103.436C24.261 107.733 29.3355 113.272 24.1368 116.244C23.5357 116.791 22.3794 117.069 20.978 116.516C19.1459 115.743 16.9852 111.93 16.1937 109.821C16.9341 115.244 17.8745 117.454 16.0144 121.474C15.1061 123.54 13.5973 123.217 11.7093 123.433C10.8851 123.49 9.94717 123.856 9.18585 123.375C7.0622 121.678 8.13332 115.261 8.19007 106.85C7.85598 110.491 7.02953 115.249 4.2562 117.125C2.47588 118.357 -0.126031 117.436 -1.33772 115.803C-2.61054 113.548 -0.725844 110.524 0.262297 103.446C-0.586002 105.941 -1.58649 108.392 -2.89068 110.686C-4.31989 113.003 -5.67101 114.636 -8.54932 113.285L-8.54636 113.263Z" fill="#DA4D45"/>
<path d="M10.6608 82.1249C11.3513 81.8203 12.7487 79.3363 13.2004 78.4221C16.6445 71.1992 14.1435 65.3778 16.7774 62.96C17.5133 62.2148 18.176 63.1968 18.6917 62.5801C19.9678 59.6872 15.7065 58.2189 13.6751 61.5295C11.7091 64.6548 12.753 67.7093 11.9573 74.6642C11.2076 80.8039 9.4538 82.1754 10.6747 82.1223L10.6608 82.1249ZM19.9134 84.3608C21.7629 84.7347 28.2757 80.878 29.499 80.2341C34.2355 77.7819 38.2832 72.8913 35.6469 68.2835C32.4272 63.1465 23.7343 69.2336 25.2899 72.14C25.9781 73.3692 27.7598 73.5761 28.194 74.9833C29.3228 79.1231 18.1087 83.6183 19.9273 84.3581L19.9134 84.3608ZM15.3172 91.3933C19.1115 94.2611 21.2951 97.026 24.4691 101.358C26.3937 103.935 30.8812 105.231 32.1139 105.089C32.963 105.049 33.1591 104.191 33.1598 103.478C33.1366 102 32.2995 100.669 31.4191 99.5274C30.4789 98.2599 23.6847 92.0849 22.1701 92.1077C21.5737 92.1136 21.5175 92.837 21.168 93.1557C20.1632 93.2468 14.3797 88.8584 13.8068 89.6661C13.4468 90.2315 14.9125 91.0459 15.3172 91.3933ZM11.0959 114.904C13.0426 115.26 13.3244 98.224 8.65574 91.9454C8.38434 91.5797 7.75524 90.8864 7.2998 90.9517C6.37439 91.1572 7.15437 92.6784 7.83446 94.2043C12.5554 104.979 8.94456 114.156 11.0932 114.891L11.0959 114.904ZM-9.72927 113.741C-10.627 113.639 -10.8418 112.816 -10.5606 112.064C-9.79929 110.32 -8.16116 109.173 -6.93695 107.78C-3.32408 103.778 -0.652275 98.2796 0.177499 95.0472C0.771217 92.803 0.411484 92.3894 0.916242 92.3938C1.91358 92.5273 2.20555 102.615 -3.0831 110.809C-4.02841 112.343 -5.37692 114.63 -7.49814 113.927C-9.08637 113.489 -8.60427 113.864 -9.7349 113.749L-9.72927 113.741Z" fill="#DA4D45"/>
<path d="M-4.23381 83.7452C-5.46195 80.8194 -9.5774 73.4417 -4.50523 72.2573C-4.12486 72.2135 -3.7342 72.2612 -3.38023 72.3808C-2.12988 72.4444 -0.924185 72.5382 0.294464 72.7374C2.42678 73.1221 4.52849 73.8366 6.40245 74.9042C7.59125 75.6634 8.57574 76.6344 9.48748 77.677C10.608 78.9459 11.555 80.3993 12.1124 81.999C12.3205 83.579 9.17604 83.1715 8.21225 83.3268C8.28337 84.0763 8.50167 84.8049 8.67003 85.5358C8.72744 85.9496 9.17843 87.0296 8.59469 87.1771C7.47935 87.2173 6.45301 86.5926 5.42713 86.2342C5.41086 86.8276 5.5527 87.4196 5.4921 88.0071C5.40512 88.758 4.54202 88.498 4.09206 88.2528C3.53691 87.9845 2.98739 87.7079 2.43785 87.4312C2.74355 88.3159 2.80012 94.2297 1.26013 93.6671C0.628504 93.2622 0.302354 92.4966 -0.0164706 91.8448C-0.413788 90.9704 -0.811114 90.0961 -1.27258 89.2627C-2.29119 87.4344 -3.41296 85.6689 -4.2143 83.7342L-4.23381 83.7452Z" fill="#6A7F6F"/>
<path d="M-4.64582 74.3862C-4.99571 73.7979 -4.17613 73.6415 -3.74411 73.7173C-1.03101 73.9768 1.50613 75.0113 3.94541 76.1364C5.10005 76.679 6.29697 77.1416 7.39806 77.7808C8.51273 78.4534 9.74398 79.4349 9.7982 80.85C9.79676 81.3326 9.73226 82.0503 9.17364 82.1786C8.68664 82.6819 7.55417 82.1423 6.95249 82.1204C6.8 82.1135 6.6475 82.1066 6.50827 82.1692C5.91531 82.4192 6.41064 83.5052 5.49804 83.5139C4.5881 83.5365 2.59905 81.0368 1.83696 80.3256C0.8617 79.2521 -0.158186 78.2086 -1.24818 77.2505C-2.33816 76.2924 -3.77966 75.567 -4.64582 74.3862Z" fill="#C1DEC8"/>
<path d="M78.1074 76.6254C76.374 77.8778 74.7449 79.2615 73.0665 80.5754C71.1306 82.1617 69.2191 83.8008 66.9628 84.9155C62.9772 86.814 58.4338 87.7895 54.0328 87.3988C50.2608 87.0608 46.4496 86.14 43.0049 84.5373C42.0884 84.0356 41.1525 83.5449 40.2221 83.0458C38.5194 82.3847 36.8926 81.5939 35.1313 80.9656C34.6979 80.7316 34.1586 80.5466 33.8456 80.1888C33.6862 79.6937 34.2112 79.6151 34.545 79.8177C35.8782 80.2398 37.2008 80.6064 38.5234 80.973C38.5594 80.9733 38.5902 80.9458 38.6206 80.9544C42.6143 81.6244 46.527 80.1358 50.2572 78.8981C57.3022 76.6602 64.2257 71.8252 71.9214 73.2209C73.0094 73.4523 73.9384 73.7932 74.9065 74.4146C75.78 75.0685 76.7903 75.3075 77.8699 75.231C78.7795 75.2445 78.7846 76.2513 78.0991 76.6198L78.1074 76.6254Z" fill="#8DA68F"/>
<path d="M12.4506 194.794C12.542 193.915 12.7382 192.784 13.4048 192.146C13.7229 191.843 14.0851 191.71 14.5174 191.764C15.2008 191.85 15.5427 192.46 16.2886 192.262C16.5707 192.189 16.8285 192.056 17.1106 191.983C19.0663 191.462 20.2818 193.819 21.0688 195.186C21.6288 196.226 22.1375 197.334 22.4633 198.461C22.8592 199.776 22.9539 201.158 22.8137 202.524C22.6316 204.388 21.8866 206.786 19.8379 207.268C18.475 207.296 17.4596 206.175 16.5358 205.31C15.4644 204.13 14.679 202.722 13.9664 201.315C12.9351 199.324 12.2079 197.078 12.4574 194.807L12.4506 194.794Z" fill="#E7AA00"/>
<path d="M12.9265 198.217C12.2783 197.016 11.9209 195.108 12.3986 193.8C12.684 192.862 13.423 191.516 14.6055 191.925C14.881 192.016 15.1328 192.153 15.4195 192.206C16.3936 192.366 17.2978 191.735 18.3211 191.942C19.1084 192.1 19.7341 192.596 20.1386 193.277C20.4821 193.847 20.5859 194.524 19.7071 194.464C19.3708 194.438 18.6662 194.033 18.4052 194.426C18.1707 194.763 18.0751 195.267 17.8185 195.608C17.4081 196.155 17.1395 196.253 17.0475 197.029C16.8041 199.208 17.2667 201.397 17.1017 203.558C17.0623 203.692 16.9393 203.792 16.7965 203.781C16.5714 203.767 16.4645 203.528 16.3696 203.354C16.1594 202.969 15.974 202.571 15.7886 202.172C15.2868 201.077 14.4662 200.18 13.7877 199.189C13.5002 198.854 13.1406 198.624 12.9236 198.226L12.9265 198.217Z" fill="#C09141"/>
<path d="M13.7539 185.308C16.2903 185.791 18.1013 188.25 19.5033 190.256C19.675 190.453 19.8778 190.72 19.9062 190.979C20.0034 191.216 19.8654 191.509 19.6177 191.572C17.6943 192.195 15.7772 191.341 13.8439 191.431C13.1548 191.364 12.0792 192.153 11.7061 191.293C11.6699 191.168 11.6749 191.044 11.7087 190.929C11.6432 190.868 11.5957 190.782 11.5635 190.678C11.4413 190.278 11.3603 189.879 11.3138 189.469C10.8738 187.381 11.0964 185.237 13.7511 185.317L13.7539 185.308Z" fill="#86A896"/>
<path d="M2.33651 174.173C3.81321 174.752 14.0577 183.917 12.6183 185.058C12.0874 185.34 11.8584 184.699 11.5721 184.397C8.70516 180.919 5.38296 177.714 1.69664 175.111C1.09251 174.684 1.71715 173.762 2.33651 174.173Z" fill="#8DA68F"/>
<path d="M16.0789 128.711C20.0005 128.739 23.7993 130.764 26.4824 133.505C28.0835 135.331 29.3028 137.682 31.3912 138.968C31.6757 139.101 31.7527 139.504 31.5288 139.726C31.3414 139.913 31.0698 139.886 30.8257 139.889C29.0514 139.796 27.2818 139.803 25.5242 140.023C22.8611 140.064 20.1889 140.207 17.5338 140.289C13.6163 139.792 9.56551 138.672 6.42506 136.212C3.66169 133.767 1.57248 130.667 0.045786 127.309C-0.279602 126.773 -0.571591 126.224 -0.805046 125.643C-1.27834 124.257 -1.92957 122.92 -2.35557 121.519C-2.4506 121.285 -2.52347 121.054 -2.53844 120.863C-2.57854 120.69 -2.62425 120.526 -2.65046 120.351C-2.73862 119.965 -2.14395 119.837 -2.08654 120.251C-1.81533 120.955 -1.53022 121.656 -1.23122 122.355C-1.14851 122.411 -1.06047 122.495 -0.978386 122.623C5.51305 130.116 7.26215 128.645 16.0623 128.699L16.0789 128.711Z" fill="#6A7F6F"/>
<path d="M-42.1813 64.8808C-42.5359 64.8334 -42.9017 64.8025 -43.2626 64.8354C-43.7872 64.8779 -43.8523 65.6678 -43.3597 65.7969C-42.5341 65.8984 -41.8054 65.9825 -40.9925 66.2808C-36.8221 67.9897 -33.8791 70.5088 -32.1856 74.7783C-28.3317 84.4807 -24.5979 94.9115 -13.0553 97.2644C-11.8494 97.6605 -10.6073 98.0208 -9.59342 98.8063C-9.31749 98.9695 -9.04608 99.3352 -8.68522 99.3023C-8.37134 99.2496 -8.1611 98.9935 -8.19433 98.6687C-9.3973 95.083 -10.2305 91.3979 -11.2469 87.7334C-12.1796 84.3193 -13.1143 80.8192 -14.9514 77.7578C-17.2192 74.1378 -20.4178 71.034 -24.2562 69.1033C-26.5917 67.8432 -28.9807 66.6796 -31.5828 66.0966C-32.9669 65.785 -34.3709 65.5204 -35.7784 65.35C-37.8796 64.9017 -40.0357 64.6943 -42.1813 64.8808Z" fill="#8DA68F"/>
<path d="M-43.3598 65.7969C-43.8523 65.6678 -43.7955 64.8723 -43.2626 64.8353C-42.9018 64.8024 -42.5442 64.8277 -42.2035 64.8778C-40.0717 64.694 -37.9379 64.8984 -35.8449 65.341C-34.4096 65.5061 -32.9891 65.782 -31.5802 66.1105C-28.9781 66.6935 -26.5808 67.8626 -24.2536 69.1172C-20.4208 71.0561 -17.2165 74.1517 -14.9488 77.7716C-13.1116 80.833 -12.177 84.3332 -11.2443 87.7473C-10.2222 91.4035 -9.38902 95.0886 -8.19167 98.6825C-8.15845 99.0073 -8.36871 99.2635 -8.68259 99.3162C-9.04345 99.3491 -9.31485 98.9834 -9.59078 98.8201C-10.15 98.3798 -10.7908 98.0774 -11.4515 97.822C-14.2821 92.913 -15.8469 87.244 -18.9781 82.4571C-22.1761 77.0567 -27.1407 73.2247 -32.3231 69.8733C-34.4595 68.3736 -36.9282 67.434 -39.4843 66.979C-39.9759 66.7417 -40.4732 66.5127 -40.9955 66.3029C-41.8028 65.9963 -42.5315 65.9123 -43.3627 65.8191L-43.3598 65.7969Z" fill="#6A7F6F"/>
<path d="M57.191 136.136C57.3416 137 58.2916 137.15 58.483 136.192C58.9198 132.862 59.7916 129.586 60.0206 126.223C60.355 120.321 58.8522 114.223 55.5083 109.34C52.2752 104.774 47.2149 102.062 42.7411 98.8774C42.708 98.8549 42.6749 98.8324 42.6418 98.8099C42.031 98.2499 41.3977 97.7229 40.7643 97.1959C40.224 96.8168 39.7455 96.3467 39.1771 96.0089C39.05 95.9467 38.8999 95.9898 38.8129 96.1C38.6896 96.2459 38.7652 96.4906 38.9309 96.567C39.4786 97.0599 40.0894 97.62 40.5646 98.1483C41.2318 98.928 41.86 99.7295 42.4547 100.545C42.6977 100.988 42.9268 101.433 43.1757 101.832C46.0118 107.071 44.7325 113.19 45.5484 118.858C46.1598 122.852 48.6289 126.282 51.3918 129.102C53.5113 131.267 56.1296 133.179 57.1827 136.131L57.191 136.136Z" fill="#6A7F6F"/>
<path d="M56.5548 101.927C57.7405 102.406 58.8023 103.103 59.8303 103.85C61.9962 105.466 63.611 107.627 65.3293 109.689C66.9954 112.646 68.1873 115.91 69.1993 119.136C70.0596 122.888 71.147 126.698 73.2988 129.937C75.5076 132.682 79.1612 134.173 80.599 137.556C80.6993 137.817 80.7881 138.131 81.0561 138.253C81.4372 138.439 81.9061 138.105 81.8487 137.691C81.7755 135.272 81.6524 132.855 81.5514 130.441C81.2728 123.591 78.7284 116.712 73.965 111.748C73.1046 110.861 72.1351 110.081 71.1402 109.357C69.0571 107.458 66.6751 105.804 64.2067 104.526C62.7393 103.589 61.1566 102.841 59.5454 102.169C58.7064 101.696 57.8111 101.305 56.8428 101.022C56.3142 100.893 56.038 101.709 56.5383 101.916L56.5548 101.927Z" fill="#86A896"/>
<path d="M54.7993 93.6378C54.6398 93.4811 54.363 93.426 54.2845 93.2034C54.2444 93.0311 54.3928 92.866 54.5675 92.8758C56.7422 94.1235 58.8991 95.5041 61.127 96.6913C64.0987 97.5132 67.4123 96.6573 69.9436 94.871C71.8461 93.9391 73.7678 93.0322 75.7382 92.2673C80.2049 90.8529 85.105 91.5946 89.4235 93.1744C90.5516 93.5781 91.6887 93.9153 92.8541 94.1751C93.5133 94.2723 94.471 94.4998 94.0917 95.3785C93.9704 95.6104 93.7502 95.7389 93.5246 95.8395C92.678 96.2315 91.8013 96.5789 90.9465 96.9653C88.5499 98.2508 86.3463 99.6794 83.7975 100.62C78.8319 102.626 73.3006 102.386 68.1979 101.035C66.7264 100.568 65.3002 99.9978 63.9166 99.3117C63.2364 99.0672 62.5648 98.7923 61.9075 98.4787C59.3927 97.1088 57.1231 95.2889 54.8106 93.6212L54.7993 93.6378Z" fill="#6A7F6F"/>
<path d="M91.0352 114.132C92.1982 114.982 93.7729 115.387 95.2107 115.264C96.3293 115.166 97.5318 114.677 98.134 113.684C98.8037 112.591 98.9066 111.283 98.9785 110.038C98.9962 108.962 98.7003 107.903 98.176 106.966C97.6644 105.833 96.7795 104.893 95.6778 104.326C94.5238 103.711 92.8761 103.414 91.7402 104.214C90.4193 105.251 89.4042 106.834 89.6415 108.567C89.7245 109.228 89.6461 109.948 89.604 110.633C89.5117 111.997 89.9806 113.246 91.0408 114.124L91.0352 114.132Z" fill="#8DA68F"/>
<path d="M99.0013 108.688C98.6975 107.587 98.5915 106.39 97.8868 105.452C96.9274 104.16 95.3437 103.519 93.762 103.605C91.7086 103.709 90.0721 105.62 89.5924 107.518C89.5263 107.776 89.5371 108.133 89.7944 108.199C89.9522 108.234 90.1113 108.125 90.1929 107.987C90.2746 107.849 90.2927 107.68 90.3273 107.522C90.5152 106.658 91.1846 105.904 92.0273 105.642C92.6921 105.429 93.432 105.496 94.1043 105.699C95.6148 106.145 96.9201 107.213 97.6597 108.598C97.8179 108.899 97.9676 109.23 98.2769 109.38C98.7133 109.592 99.1418 109.121 98.9957 108.696L99.0013 108.688Z" fill="#6A7F6F"/>
<path d="M95.4631 112.401C94.915 112.283 94.3698 112.142 93.819 112.009C92.7062 111.761 91.5206 111.584 90.6427 110.795C90.7638 110.901 90.5299 110.694 90.4439 110.696C89.781 110.693 90.0721 111.35 90.3299 111.682C91.3552 113.056 93.0518 113.797 94.7438 114.101C95.0428 114.159 95.367 114.197 95.6481 114.086C95.9821 113.95 96.196 113.6 96.1852 113.242C96.1665 112.843 95.8535 112.485 95.4631 112.401Z" fill="#C1DEC8"/>
<path d="M81.9986 103.979C81.1779 103.942 78.5847 103.292 78.4364 104.4C78.4144 104.7 78.6169 105.007 78.9242 105.07C82.1299 105.459 85.3204 105.994 88.3303 107.205C89.0378 107.178 88.9567 106.301 88.3623 106.09C86.397 104.997 84.2258 104.296 81.9986 103.979Z" fill="#8DA68F"/>
<path d="M90.0051 118.389C90.3393 118.555 90.143 119.111 89.7722 119.016C88.9386 118.873 88.0519 119.093 87.2024 118.866C83.8947 118.094 81.055 115.814 79.1766 113.027C78.3223 111.758 77.4128 110.463 76.3432 109.386C75.816 108.774 74.9873 108.392 74.555 107.711C74.5068 107.195 75.1717 107.284 75.5269 107.259C76.4342 107.223 77.361 107.176 78.2697 107.297C82.7669 108.116 84.6529 111.622 86.8911 115.125C87.6285 116.121 88.2115 117.327 89.2733 118.025C89.5049 118.182 89.7732 118.267 90.019 118.386L90.0051 118.389Z" fill="#8DA68F"/>
<path d="M5.34102 27.1196C6.75244 27.1597 8.11435 27.4683 9.46737 27.8435C12.3335 28.6784 14.824 30.2977 17.3934 31.7652C20.2514 34.1782 22.7444 37.0928 25.0207 40.0416C27.3585 43.5761 29.9405 47.1073 33.4134 49.6116C36.7521 51.6017 41.0971 51.7367 43.8895 54.6734C44.0927 54.9081 44.3065 55.1984 44.628 55.2234C45.0908 55.2718 45.4422 54.7368 45.2293 54.3383C44.2246 51.8666 43.1671 49.4194 42.1373 46.9668C39.2137 39.9879 33.9418 33.8677 27.1086 30.5796C25.8739 29.9947 24.588 29.5564 23.2654 29.1898C20.3799 28.0274 17.2915 27.235 14.2492 26.8728C12.3723 26.4681 10.4544 26.3016 8.52727 26.2377C7.48031 26.0704 6.41024 26.0084 5.29724 26.0985C4.69758 26.1626 4.73076 27.1282 5.32417 27.1444L5.34102 27.1196Z" fill="#8DA68F"/>
<path d="M2.90996 20.6082C2.66648 20.5395 2.37149 20.6534 2.17328 20.4825C2.04422 20.3343 2.08512 20.0962 2.25775 20.02C5.02034 20.0108 7.84286 20.127 10.6173 20.0292C13.9088 19.1703 16.5918 16.52 18.014 13.4121C19.3151 11.4791 20.6383 9.54915 22.0965 7.72297C25.5774 3.89803 30.6456 1.90087 35.6458 1.01812C36.9403 0.785335 38.2189 0.469199 39.476 0.0779938C40.158 -0.196191 41.2007 -0.503274 41.3219 0.546207C41.3333 0.831988 41.1925 1.07484 41.0408 1.29818C40.4537 2.14455 39.8088 2.95158 39.2078 3.80061C37.6351 6.34693 36.3284 8.92886 34.4222 11.2365C30.7981 15.8951 25.3926 18.7269 19.7765 20.2672C18.1119 20.6354 16.4373 20.876 14.7471 20.9971C13.9609 21.14 13.1694 21.2552 12.3673 21.3147C9.20752 21.3926 6.04416 20.924 2.91262 20.622L2.90996 20.6082Z" fill="#6A7F6F"/>
<path d="M66.9969 15.8364C66.9618 16.3687 66.4625 16.6943 66.0991 17.0157C65.2857 17.7325 64.4889 18.4606 63.6729 19.1635C58.0106 24.0816 48.719 28.5409 41.0982 27.4621C36.8853 27.1147 32.8345 25.9948 28.7867 24.8529C27.5013 24.6808 26.2075 24.5031 24.9052 24.3558C22.0601 23.9704 19.1933 23.8483 16.3244 23.6402C16.3244 23.6402 16.3522 23.6349 16.3661 23.6323C16.1382 23.683 15.929 23.4925 15.9643 23.2626C16.11 22.7813 16.7733 23.0506 17.1593 22.9985C17.2453 22.9965 17.3257 23.0027 17.4199 23.0063C17.6647 22.9308 18.019 23.0143 18.2607 22.961C19.0685 22.8931 19.8652 22.8058 20.6703 22.724C20.8036 22.7058 20.9342 22.6736 21.0593 22.6498C22.29 22.422 23.523 22.2441 24.7637 22.144C25.8105 22.0089 26.8491 21.8682 27.8879 21.6914C31.0276 21.0559 33.96 19.7114 36.9513 18.6003C40.7165 17.1687 44.5442 15.8763 48.3959 14.7089C52.349 13.3566 56.581 13.0884 60.6793 13.8536C62.2585 14.056 63.7938 14.5187 65.3499 14.8263C66.032 14.8545 67.0326 14.9298 66.9969 15.8364Z" fill="#8DA68F"/>
<path d="M66.9475 15.4643C66.7389 14.8995 65.9294 14.8453 65.3555 14.8181C63.7995 14.5105 62.2641 14.0478 60.6849 13.8454C56.5811 13.0884 52.349 13.3566 48.4015 14.7007C44.5443 15.8763 40.7248 17.1743 36.9569 18.592C33.9739 19.7087 31.0389 21.0394 27.8936 21.6832C26.8768 21.8629 25.8439 21.9954 24.8166 22.1195C23.5538 22.2167 22.2986 22.3915 21.0566 22.6359C20.8483 22.6757 20.6455 22.7072 20.4454 22.7526C19.7181 22.8267 18.9881 22.8869 18.2525 22.9554C18.0024 23.0031 17.662 22.9169 17.4117 23.0007C17.3257 23.0027 17.237 22.9909 17.151 22.9929C16.7733 23.0506 16.1017 22.7757 15.9561 23.2571C15.9181 23.4731 16.1107 23.6523 16.3161 23.6346C16.5794 23.6563 16.8427 23.6781 17.1034 23.6859C17.3336 23.6851 17.5499 23.687 17.6938 23.7243C21.133 24.0539 24.6109 23.7569 28.0592 23.6816C35.2741 23.2758 42.404 22.1232 49.4086 20.3898C53.1105 19.5318 56.7018 18.3205 60.2769 17.062C62.4653 16.421 64.7021 15.9579 66.931 15.4531L66.9475 15.4643Z" fill="#6A7F6F"/>
<path d="M2.1541 34.4445C2.81009 34.6 3.46903 34.7334 4.13329 34.8945C5.38957 34.9138 8.58675 36.2758 9.07043 36.4714C11.6575 37.5035 14.13 38.9535 15.9446 41.105C19.225 45.0139 21.3228 49.6669 23.8972 54.0634C24.1041 54.5062 24.6955 55.0771 24.3196 55.5592C24.0452 55.8564 23.6194 55.7001 23.4307 55.3906C22.1457 53.9011 20.0155 53.9047 18.2793 53.2571C15.6342 52.524 13.0401 51.342 11.1356 49.3229C7.95521 46.3523 7.81848 41.6776 5.81436 38.0433C5.57138 37.6002 5.28407 37.1511 4.96039 36.7378C4.25855 36.116 3.50612 35.5685 2.65786 35.1978C1.86656 34.9746 1.06668 34.7817 0.261168 34.5972C0.109309 34.5182 0.0890284 34.2989 0.212026 34.1891C0.762997 33.9831 1.58082 34.3452 2.16533 34.428L2.1541 34.4445Z" fill="#8DA68F"/>
<path d="M0.200748 34.2057C0.0833696 34.3073 0.0980307 34.5349 0.24989 34.6139C0.468553 34.6657 0.701106 34.7149 0.919769 34.7667C1.7821 34.7964 2.50175 35.2853 3.29242 35.5806C4.6039 36.2661 5.89525 37.0345 7.00443 38.0178C8.50504 39.279 9.35493 41.0532 10.5008 42.6053C12.2092 44.8419 13.8588 47.1473 15.8579 49.134C17.0101 50.2673 18.2996 51.2521 19.5051 52.3249C20.1821 52.9299 20.8505 53.5654 21.5246 54.1925C22.2352 54.4456 22.8949 54.8091 23.4195 55.4073C23.6081 55.7168 24.0339 55.873 24.3083 55.5759C24.6898 55.0855 24.0928 54.5228 23.8859 54.08C21.3115 49.6836 19.1383 45.0882 15.9333 41.1217C14.088 38.9976 11.6234 37.5893 9.05915 36.488C8.56985 36.3007 5.37829 34.9304 4.12202 34.9111C3.46603 34.7556 2.79319 34.6249 2.14282 34.4612C1.55831 34.3784 0.740478 34.0163 0.189506 34.2223L0.200748 34.2057Z" fill="#6A7F6F"/>
<path d="M4.28947 10C4.21862 9.8552 4.28933 9.69771 4.4259 9.62124C5.69813 9.08317 6.72581 8.28225 7.63067 7.25282C9.72774 5.00231 11.2038 2.40246 14.5016 1.76556C16.3977 1.25235 18.5311 1.83123 20.3219 0.992585C20.5229 0.839017 20.8563 0.775348 20.9563 1.073C21.0292 1.30384 20.8 1.49877 20.6546 1.64173C19.6643 2.60108 18.5752 3.45694 17.6428 4.45563C16.6556 5.39281 15.8636 6.52307 14.7691 7.35115C13.3168 8.4923 11.5796 9.23435 9.80296 9.73197C8.11822 10.1832 6.34688 10.0679 4.63485 10.1501C4.49859 10.1905 4.3494 10.1254 4.30337 9.9974L4.28947 10Z" fill="#8DA68F"/>
<path d="M-2.23168 149.781C-4.40778 147.288 -9.98404 147.965 -11.783 150.616C-13.1169 152.57 -11.6928 153.79 -10.007 154.722C-8.88755 155.311 -7.60762 155.353 -6.37234 155.299C-5.38308 155.266 -4.40751 155.031 -3.4528 154.831C-2.58329 154.638 -1.80155 154.034 -1.43586 153.214C-0.894373 152.007 -1.32869 150.682 -2.23168 149.781Z" fill="#8DA68F"/>
<path d="M0.358768 47.2486C-0.710445 48.3598 -2.05124 49.4437 -3.67133 49.4794C-4.63949 49.4987 -5.61542 49.138 -6.29447 48.447C-6.97353 47.756 -7.33089 46.7516 -7.16725 45.7989C-7.04749 45.1065 -6.69253 44.4772 -6.24127 43.9375C-5.14239 42.6047 -3.48165 41.7261 -1.7537 41.7273C-1.027 41.7253 -0.298895 41.8815 0.302293 42.2778C1.15164 42.8427 1.4901 43.7859 1.36221 44.775C1.33456 45.0826 1.27117 45.3538 1.1747 45.6026C1.05557 46.2229 0.78426 46.8002 0.350488 47.243L0.358768 47.2486Z" fill="#8DA68F"/>
<path d="M-6.61291 47.1184C-6.62788 46.9269 -6.77319 46.7315 -6.8047 46.5287C-6.8498 46.2926 -6.85322 46.0485 -6.83447 45.8073C-6.70092 44.1693 -5.31718 42.9332 -3.84813 42.408C-2.79645 42.0344 -1.64506 41.9945 -0.562669 42.2342C-0.133615 42.3322 0.322584 42.4971 0.571817 42.8598C0.684026 43.0327 0.734424 43.2967 0.578025 43.4201C0.446755 43.5244 0.252909 43.4894 0.0838766 43.4713C-0.581012 43.3823 -1.25732 43.6482 -1.78239 44.0652C-2.30747 44.4822 -2.69786 45.0391 -3.04954 45.6101C-3.40123 46.1812 -3.71982 46.7748 -4.14595 47.2952C-4.45439 47.6781 -4.84024 48.0325 -5.32346 48.1032C-5.8983 48.1841 -6.65167 47.7449 -6.62946 47.1072L-6.61291 47.1184Z" fill="#6A7F6F"/>
<path d="M-3.12331 47.0711C-3.21255 46.4907 -2.88335 45.9527 -2.46675 45.5708C-2.17314 45.2988 -1.83023 45.0965 -1.48996 44.8804C-1.1163 44.6507 -0.731705 44.4404 -0.322612 44.2831C-0.147332 44.2209 0.0306007 44.1725 0.210871 44.1741C0.590609 44.2023 0.78756 44.5175 0.826088 44.8701C0.872888 45.2283 0.79467 45.6103 0.642002 45.9418C0.415654 46.453 0.0430578 46.8769 -0.348726 47.2756C-0.670425 47.589 -1.02818 47.9021 -1.45382 48.0482C-2.18537 48.2886 -3.00819 47.8626 -3.13722 47.0738L-3.12331 47.0711Z" fill="#C1DEC8"/>
<path d="M6.89118 60.5356C3.82915 61.8041 -0.861899 58.7261 -1.30854 55.5575C-1.64036 53.2165 0.177674 52.747 2.09776 52.6611C3.35997 52.6361 4.53411 53.1677 5.61897 53.7597C6.4858 54.2276 7.25679 54.8723 8.01981 55.4753C8.71667 56.0333 9.14707 56.9302 9.10877 57.8229C9.05843 59.1427 8.07616 60.1437 6.87995 60.5521L6.89118 60.5356Z" fill="#8DA68F"/>
<path d="M-1.61561 54.5148C-1.44667 53.5899 -0.639233 52.9174 0.247465 52.6977C0.97574 52.5154 1.74614 52.5915 2.46862 52.7559C3.89141 53.0817 5.24785 53.701 6.41354 54.5654C6.52107 54.6385 6.62298 54.7198 6.68587 54.823C6.83085 55.0544 6.76123 55.4061 6.45594 55.4284C6.32826 55.4384 6.20386 55.3901 6.08212 55.3558C5.28286 55.0909 4.42116 54.989 3.57475 55.0427C2.95589 55.0816 1.7675 55.2294 1.42643 55.856C1.18682 56.2977 1.5261 56.8304 1.40261 57.3147C1.28474 57.7908 0.820523 58.2249 0.30547 58.1289C-0.259528 58.0352 -0.622673 57.3775 -0.887821 56.9314C-1.42828 56.2499 -1.83683 55.3921 -1.62388 54.5092L-1.61561 54.5148Z" fill="#6A7F6F"/>
<path d="M1.98004 57.8884C2.22028 57.3746 2.87533 57.6383 3.30438 57.7363C4.32325 57.9449 5.35461 57.9927 6.38396 57.9545C6.7779 57.9441 7.20025 57.8563 7.50478 57.6038C7.62215 57.5022 7.72034 57.3754 7.85957 57.3128C8.09073 57.2039 8.31109 57.3778 8.38131 57.5948C8.43531 57.7644 8.40595 57.95 8.36832 58.1299C8.10682 59.1733 7.15391 59.9888 6.08726 60.1708C4.78445 60.398 3.69459 59.7422 2.7588 58.9131C2.56059 58.7422 2.31743 58.6374 2.1136 58.4748C1.93459 58.329 1.88653 58.115 1.9688 57.9049L1.98004 57.8884Z" fill="#C1DEC8"/>
<path d="M-7.98776 -14.9752C-7.11702 -14.6375 -6.24502 -14.4441 -5.36039 -14.1091C-4.87937 -13.9274 -4.30735 -13.6839 -3.82336 -13.5243C-1.19904 -11.3546 3.01378 -5.91768 3.49895 -2.39651C3.84862 -0.829144 3.70064 1.82669 1.42226 1.01633C-4.36844 -0.959074 -6.06935 -6.28538 -7.83734 -14.4136C-7.87977 -14.6359 -8.02803 -14.8091 -7.99337 -14.9669L-7.98776 -14.9752Z" fill="#6A7F6F"/>
<path d="M13.2797 -5.04872C10.4059 -6.60206 7.58944 -8.68465 5.52531 -11.1628C-2.35329 -12.574 -27.4785 -19.669 -42.3586 -30.1888C-46.9694 -33.5629 -48.0977 -33.6282 -47.6427 -34.6005C-47.0625 -35.2944 -47.2689 -35.1686 -40.0403 -30.1491C-24.2641 -19.6493 1.73755 -12.8656 6.9382 -12.2461C6.98253 -12.2402 7.00735 -12.2233 7.05168 -12.2174C7.36196 -12.1758 7.64741 -12.1512 7.86405 -12.1853C10.7652 -12.185 13.7197 -12.2452 16.5564 -11.527C27.6801 -8.84218 22.116 -0.242635 13.2767 -5.02657L13.2797 -5.04872Z" fill="#8DA68F"/>
<path d="M17.7522 177.966C21.1383 177.365 24.7343 176.617 28.0979 177.656C30.1762 178.245 32.5776 178.585 34.0766 180.296C35.4552 181.92 34.1984 183.469 32.4114 183.841C26.5829 185.413 8.63878 179.618 17.7646 177.96L17.7522 177.966Z" fill="#86A896"/>
<path d="M0.484229 133.639C1.8145 133.443 2.61143 135.882 3.3309 136.709C5.67524 140.768 11.328 148.695 7.19629 151.449C3.543 153.089 1.64019 144.519 0.909254 140.239C0.558643 138.779 -0.920033 134.051 0.475962 133.634L0.484229 133.639Z" fill="#8DA68F"/>
<path d="M17.3887 124.184C17.6914 122.867 20.2473 123.019 21.2934 122.654C25.9341 121.962 35.3656 119.593 36.4273 124.436C36.6169 128.446 27.9475 127.078 23.6977 126.198C22.2101 125.985 17.265 125.648 17.3887 124.184Z" fill="#6A7F6F"/>
<path d="M-30.7634 100.926L-30.7664 100.948C-30.8895 104.564 -31.5587 108.147 -31.5875 111.767C-31.5426 114.566 -31.2463 117.173 -30.6715 119.957C-29.7092 124.733 -27.3861 129.321 -23.9634 132.807C-22.4302 134.465 -20.4974 135.464 -18.9364 137.117C-18.6064 137.45 -18.2712 137.811 -17.9469 138.152C-17.4294 138.6 -16.6979 138.057 -16.8894 137.432C-17.1144 132.068 -15.8556 126.71 -15.7284 121.344C-15.7816 110.282 -18.7807 102.115 -26.0454 94.8711C-28.2559 92.0033 -30.8427 89.3514 -32.6793 86.2178C-33.0554 85.4546 -33.4649 84.7049 -33.9273 83.9797C-34.0766 83.6123 -34.6081 83.8074 -34.5583 84.1434C-32.3613 88.5615 -31.1413 93.3677 -30.8235 98.2742C-30.7646 99.1484 -30.7612 100.033 -30.78 100.915L-30.7634 100.926Z" fill="#8DA68F"/>
<path d="M-7.66562 118.177C-7.67106 117.847 -7.17785 117.904 -7.23328 118.217C-7.11563 118.72 -6.99799 119.223 -6.89423 119.729C-6.86115 119.751 -6.85319 119.793 -6.84788 119.821C-6.47124 121.793 -6.12535 123.793 -5.415 125.666C-2.83892 130.185 -2.63404 135.631 -5.27582 140.232C-6.33168 142.355 -7.49242 144.42 -8.62835 146.501C-8.86998 146.857 -8.9855 147.383 -9.38664 147.582C-9.87081 147.761 -10.2081 147.314 -10.1514 146.857C-10.358 144.794 -11.2315 142.859 -11.5215 140.812C-11.7875 138.552 -11.7948 136.214 -11.2927 133.98C-10.8261 132.314 -10.2268 130.703 -9.51698 129.142C-8.96453 127.813 -8.1249 126.63 -7.64159 125.278C-7.59038 125.131 -7.54481 124.993 -7.5075 124.849C-7.18301 122.628 -7.23264 120.369 -7.67951 118.18L-7.66562 118.177Z" fill="#8DA68F"/>
<path d="M29.8201 270.36C26.6901 272 22.9101 269.16 20.5201 266.53C9.32005 255.02 7.35005 259.69 6.67005 251.59C6.58005 249.78 7.08005 248 7.30005 246.56C6.81005 239.56 5.14004 232.44 8.04004 230.59C8.86004 230.1 9.74005 230.31 10.39 230.97C10.96 231.53 11.19 232.33 11.59 233.01C12.19 233.96 14.3601 233.83 12.7101 242.67C13.6501 240.31 15.7601 232.15 18.3801 229.69C21.5701 227.08 23.2001 229 24.1301 229.38C25.0801 229.67 26.59 228.98 27.79 230.87C29.25 232.9 26.3401 236.73 24.7701 238.68C18.8401 246.18 18.15 244.97 24.34 241.44C27.58 239.55 34.76 236.88 36.42 239.19C36.93 239.89 36.22 240.8 38.7 241.79C39.6 242.13 40.5701 242.4 41.2701 243.11C42.2601 243.86 42.63 245.38 41.64 246.29C38.88 249.15 30.7401 248 20.72 251.08C21.65 250.96 22.57 250.79 23.5 250.68C26.85 250.3 32.19 250.48 36.4 252.07C42.94 254.29 42.38 257.58 42.51 258.47C43.73 260.32 42.55 262.66 40.97 263.6C38.73 264.65 32.64 259.67 26.06 259.92C27.36 260.67 28.8 261.19 30 262.08C32.95 264.39 31.26 265.74 31.36 266.68C31.38 266.87 32.4101 268.81 29.8201 270.35L29.8201 270.36Z" fill="#DA4D45"/>
<path d="M-2.80997 261.09C-4.03997 260.77 -5.37997 260.63 -6.43997 259.87C-7.89997 258.86 -8.10996 257.11 -7.17996 255.66C-6.87996 255.11 -6.50996 254.6 -6.11996 254.1C-5.55996 253.4 -4.96996 252.68 -4.17996 252.23C-2.69996 250.83 -0.879972 249.85 1.06003 249.23C3.51003 248.34 6.11004 247.97 8.71004 247.96C12.33 247.68 7.36003 250.81 6.58003 251.47C7.61003 251.42 8.64003 251.44 9.66003 251.55C9.98003 251.6 10.37 251.55 10.6 251.81C10.91 252.24 10.41 252.67 10.09 252.93C9.55003 253.38 8.97002 253.8 8.40002 254.22C10.74 254.6 10.61 255.11 8.84003 256.44C10.57 256.45 12.16 257.31 13.52 258.32C13.83 258.55 14.16 258.78 14.46 259.02C14.57 259.11 14.68 259.21 14.68 259.37C14.68 259.67 14.33 259.7 14.11 259.79C11.5 260.99 8.72003 261.77 5.86003 262.09C3.96003 262.25 2.02003 262.3 0.130035 262C-0.879965 261.81 -1.81997 261.37 -2.80997 261.11L-2.80997 261.09Z" fill="#86A896"/>
<path d="M-2.69997 259.51C-3.43997 259.43 -2.52998 258.87 -2.23998 258.83C0.270018 258.43 2.78002 258.03 5.29002 257.63C6.09002 257.5 6.90003 257.37 7.71003 257.39C9.32003 257.43 10.85 258.05 12.34 258.66C13.75 259.24 10.88 259.7 10.53 259.76C8.66002 260.08 6.77002 260.3 4.87002 260.34C2.26002 260.39 -0.139973 259.79 -2.69997 259.52L-2.69997 259.51Z" fill="#C1DEC8"/>
<path d="M25.59 266.97C25.38 265.9 23.23 262.78 23.23 261.86C23.82 261.61 25.46 261.91 25.29 260.88C24.93 259.82 22.78 258.77 26.18 258.61C28.48 258.98 30.7601 259.57 32.9601 260.32C35.5601 261.25 41.2501 264.86 41.8501 261.16C41.9901 260.21 41.6601 259.28 41.3001 258.41C41.1401 254.57 33.96 250.93 33.12 252.91C32.98 253.57 35.26 254.74 36.06 256.08C36.61 257.55 35.07 258.08 33.89 258.12C31.57 258.21 29.3101 257.34 27.0001 257.07C23.7201 256.67 23.9301 256.88 22.3201 256.64C21.1301 256.49 19.96 256.21 18.76 256.1C17.39 255.94 15.9701 255.99 14.6301 255.65C15.5501 255.15 17.3401 254.45 15.9101 253.22C15.4701 252.84 14.94 252.74 14.39 252.68C25.83 248.09 36.9801 249.01 36.8801 247.56C36.4801 245.34 22.2201 248.74 18.9401 249.19C20.0901 246.42 25.0101 244.72 23.9601 243.32C22.6001 242.16 15.0501 248.26 13.7401 249.3C9.69006 251.89 5.85005 253.57 9.34005 257C10.32 257.91 14.53 259.5 17.67 262.66C19.23 264.19 20.6801 265.87 22.5701 267C23.2601 267.44 25.6201 268.46 25.5801 266.94L25.59 266.97ZM19.5501 244.19C20.0001 244.31 20.2001 243.67 20.4401 243.38C22.3901 240.69 29.1901 234.02 27.5801 231.08C26.5301 229.31 24.1201 229.94 24.8501 230.75C28.8001 234.48 18.1201 243.47 19.5501 244.19ZM8.44005 250.06C8.35005 250.65 7.66005 251.08 7.50005 249.88C7.29005 247.44 7.88006 249.17 7.05006 239.16C6.83006 236.32 6.10006 230.68 9.21006 230.92C10.4001 231.04 10.81 232.41 11.31 233.31C11.66 234.01 13.0401 234.03 13.1901 236.67C13.5401 239.69 12.3301 245.51 11.1001 245.19C9.62006 244.81 9.67005 241.21 9.20005 239.4C8.22005 241.93 8.93006 247.86 8.44005 250.05L8.44005 250.06Z" fill="#DA4D45"/>
<path d="M8.13005 281.66C8.89005 282.1 9.62004 281.47 9.01004 280.71C6.74004 278.24 4.80005 275.46 2.37005 273.12C-1.92995 269.07 -7.55996 266.29 -13.46 265.71C-19.04 265.25 -24.37 267.37 -29.69 268.74C-29.73 268.75 -29.77 268.76 -29.8 268.77C-30.62 268.88 -31.44 269.02 -32.25 269.17C-32.89 269.34 -33.5499 269.41 -34.1799 269.62C-34.3099 269.68 -34.3799 269.82 -34.3399 269.95C-34.3099 270.14 -34.07 270.24 -33.91 270.16C-33.18 270.05 -32.3599 269.95 -31.6499 269.93C-30.6199 269.92 -29.6099 269.95 -28.5899 270.03C-28.0999 270.13 -27.6099 270.24 -27.14 270.31C-21.31 271.51 -17.4499 276.43 -12.5899 279.45C-9.13995 281.55 -4.91996 281.87 -0.989956 281.57C2.03004 281.34 5.18004 280.56 8.12004 281.66L8.13005 281.66Z" fill="#6A7F6F"/>
<path d="M-16.5 240.53C-17.03 241.43 -17.42 241.34 -17.65 242.4C-17.72 242.71 -18.64 243.97 -18.8 244.26C-18.5 244.32 -16.74 244.39 -16.38 244.36C-11.14 244.47 0.230025 243.93 2.25003 239.1C2.52003 237.01 -0.419975 237 -1.85998 236.84C-6.76998 236.84 -12.07 238.44 -16.49 240.53L-16.5 240.53Z" fill="#6A7F6F"/>
<path d="M3.79004 325.2C2.37004 324.66 1.36004 323.45 0.540039 322.23C-0.489961 320.5 -1.15995 318.74 0.110046 316.92C0.740046 315.94 1.71005 315.19 2.82005 314.84C4.43005 314.45 6.21005 314.7 7.66005 315.51C9.21005 316.38 10.1 318.34 10.11 320.06C10.11 321.39 9.76004 322.83 9.31004 324.07C8.58004 325.99 5.37004 325.79 3.79004 325.19L3.79004 325.2Z" fill="#86A896"/>
<path d="M0.210047 316.77C0.970047 315.73 1.86004 314.51 3.25004 314.4C4.68004 314.29 6.16005 314.65 7.35005 315.46C8.72005 316.39 9.59005 317.9 9.85005 319.52C9.98005 320.34 9.96004 321.18 9.78004 321.99C9.67004 322.49 9.21004 322.78 8.81004 322.35C8.37004 321.86 8.38004 320.88 8.24004 320.26C8.08004 319.54 7.80003 318.85 7.26003 318.33C6.78003 317.88 6.19005 317.67 5.60005 317.41C4.93005 317.12 4.24003 316.87 3.51003 316.78C2.49003 316.65 1.37004 316.88 0.660044 317.62C0.440044 317.85 0.270033 318.11 0.0400332 318.33C-0.0599668 318.43 -0.199962 318.52 -0.329962 318.47C-0.449962 318.43 -0.519955 318.3 -0.509955 318.17C-0.509955 317.67 -0.0299546 317.17 0.240045 316.79L0.210047 316.77Z" fill="#6A7F6F"/>
<path d="M4.31004 322.68C5.00004 323.04 5.71004 323.39 6.45004 323.65C6.85004 323.79 7.29004 323.87 7.69004 323.75C7.93004 323.68 8.39003 323.46 8.54003 323.78C8.65003 324 8.41005 324.23 8.21005 324.36C7.60005 324.76 6.93004 325.14 6.20004 325.13C5.77004 325.12 5.35005 324.97 4.96005 324.78C4.54005 324.58 4.15004 324.34 3.78004 324.06C3.54004 323.88 3.30004 323.67 3.23004 323.38C3.09004 322.81 3.85004 322.44 4.31004 322.68Z" fill="#C1DEC8"/>
<path d="M-7.86997 312.72C-8.69996 312.62 -8.33997 311.62 -8.21997 311.07C-8.03997 310.23 -7.77998 309.4 -7.73998 308.54C-7.68998 307.5 -7.96997 306.42 -7.57997 305.43C-7.24997 304.57 -6.48997 303.89 -5.60997 303.61C-3.97997 303.1 -2.07996 303.7 -0.679962 304.53C0.650038 305.32 1.52002 306.32 1.18002 307.96C0.870023 309.43 -0.289977 310.67 -1.56998 311.39C-2.87998 312.18 -4.41997 312.42 -5.90997 312.62C-6.58997 312.69 -7.20996 312.79 -7.86997 312.71L-7.86997 312.72Z" fill="#8DA68F"/>
<path d="M-8.11997 311.61C-6.75997 311.19 -5.44997 310.64 -4.14997 310.07C-2.87997 309.52 -1.53997 308.89 -0.669971 307.77C-0.349971 307.36 -0.0599742 306.81 -0.0799742 306.27C-0.0799742 306 -0.429973 305.4 -0.109973 305.21C0.580027 304.8 1.19003 307.22 1.21003 307.62C1.28003 308.92 0.690026 310.08 -0.329974 310.86C-1.32997 311.62 -2.56998 311.98 -3.79998 312.19C-5.02998 312.4 -6.28997 312.49 -7.49997 312.79C-7.65997 312.83 -7.82997 312.87 -7.99997 312.85C-8.23997 312.82 -8.44998 312.64 -8.51998 312.42C-8.62998 312.09 -8.43997 311.72 -8.10997 311.61L-8.11997 311.61Z" fill="#6A7F6F"/>
<path d="M-20.23 338.23C-20.51 338.07 -20.23 337.67 -19.97 337.88C-19.48 338.04 -18.98 338.19 -18.49 338.36C-18.46 338.36 -18.42 338.36 -18.38 338.36C-16.49 339.05 -14.6 339.77 -12.62 340.11C-7.41996 340.2 -2.62997 342.8 -0.0199704 347.42C1.27003 349.41 2.45004 351.46 3.66004 353.5C3.84004 353.89 4.24004 354.25 4.21004 354.7C4.11004 355.21 3.56004 355.27 3.19004 354.99C1.31004 354.12 -0.799973 353.88 -2.70997 353.08C-4.78997 352.15 -6.79997 350.96 -8.46997 349.39C-9.65997 348.14 -10.75 346.8 -11.73 345.39C-12.59 344.24 -13.18 342.92 -14.09 341.81C-14.18 341.69 -14.29 341.58 -14.39 341.48C-16.14 340.07 -18.1 338.96 -20.21 338.22L-20.23 338.23Z" fill="#8DA68F"/>
<path d="M13.8942 -20.4925C13.9968 -20.4832 14.0993 -20.474 14.2101 -20.4592C14.2349 -20.4423 14.2654 -20.4337 14.3014 -20.4334C16.5828 -20.2859 18.7692 -19.7316 20.977 -19.1021C21.2565 -19.0331 21.5278 -18.9697 21.799 -18.9063C22.2529 -18.7914 22.7207 -18.6792 23.1772 -18.5504C24.2504 -18.2082 25.2132 -17.6146 26.1819 -17.0652C28.6557 -15.7595 30.708 -13.8333 32.7662 -11.9515C36.5607 -8.47912 40.0504 -4.71816 43.6743 -1.08363C47.6225 2.89211 53.538 2.95759 58.7328 3.62143C59.8326 3.76416 60.972 4.15131 62.0372 4.45184C62.6412 4.52367 62.8893 3.74922 62.4849 3.3657C61.813 2.48616 61.1104 1.63408 60.4247 0.75718C56.43 -4.25352 52.7778 -9.73275 47.471 -13.4347C44.331 -15.6282 40.8696 -17.5445 37.1305 -18.4647C33.3222 -19.4077 29.399 -19.8968 25.4737 -20.1335C23.8333 -20.317 22.2078 -20.6113 20.5596 -20.5341C18.3606 -20.5894 16.1331 -20.8695 13.9344 -20.9608C13.5827 -21.0305 13.5446 -20.4761 13.8969 -20.4786L13.8942 -20.4925Z" fill="#8DA68F"/>
<path d="M33.36 318.21C33.55 317.74 33.13 317.36 32.89 316.99C31.83 315.43 30.6101 313.97 29.8501 312.22C27.8601 307.86 26.29 303.21 23.51 299.26C20.6 295.3 16.5401 292.19 12.0201 290.29C11.8301 290.21 11.64 290.16 11.45 290.09C9.31004 288.96 6.85004 288.48 4.48004 288.09C3.43004 287.91 4.59471e-05 287.4 -0.659954 287.28C-0.919954 287.28 -1.35995 287.06 -1.43995 287.43C-1.45995 287.57 -1.35995 287.69 -1.22995 287.71C-0.389946 287.82 0.430054 288.06 1.27005 288.21C2.36005 288.55 3.47004 288.94 4.54004 289.38C4.72004 289.55 5.00005 289.64 5.22005 289.75C8.70005 291.58 10.8101 295.16 12.0701 298.76C12.6801 300.52 12.7 302.42 13.17 304.21C13.85 306.51 15.01 308.65 16.25 310.69C19.84 315.56 22.3 317.36 28.43 317.91C29.63 318.02 30.84 318.08 32.01 318.35C32.46 318.45 33.06 318.76 33.33 318.2L33.36 318.21Z" fill="#86A896"/>
<path d="M31.21 429.57C27.92 430.65 25.36 429.08 24.17 425.95C23.84 425.13 23.64 424.24 23.66 423.35C23.72 422.65 24.16 422.07 24.56 421.53C25.16 420.64 26 419.97 26.86 419.37C27.69 418.75 28.66 418.4 29.59 417.97C30.31 417.64 31.09 417.28 31.52 416.58C31.93 415.53 31.64 414.35 31.39 413.29C30.95 411.79 29.6 410.95 28.16 410.49C28.07 410.4 27.94 410.36 27.8 410.38C27.49 410.29 27.19 410.23 26.89 410.17C24.94 411.75 21.83 408.85 20.4 407.55C18.23 405.74 17.89 403.16 19.06 400.66C20.01 398.72 20.99 397.58 23.31 397.86C25.58 397.97 27.35 400.31 28.31 402.18C29.17 401.02 29.92 399.78 31.08 398.9C32.72 397.64 35.03 397.68 36.87 398.47C37.96 398.95 38.93 399.69 39.5 400.75C40.33 402.08 40.7 403.5 40.42 405.05C39.98 407.84 37.71 409.82 35.62 411.49C37.46 411.43 39.37 411.83 40.86 412.98C42.31 414.24 43.33 416.03 43.51 417.96C43.82 419.85 43.02 421.57 41.65 422.84C40.32 423.94 38.57 424.43 36.88 424.59C36.78 425.74 36.16 426.86 35.27 427.6C34.06 428.51 32.64 429.1 31.21 429.56L31.21 429.57Z" fill="#E7AA00"/>
<path d="M28.04 423.7C27.61 424.02 27.5 423.5 27.47 423.17C27.4 422.35 27.47 420.69 26.22 420.79C26.04 420.81 25.86 420.87 25.68 420.83C24.88 420.68 25.95 419.78 26.14 419.62C26.86 418.98 27.87 418.52 28.26 417.6C28.56 416.7 28.3301 415.76 28.2101 414.85C27.9501 413.52 27.69 412.15 27.06 410.95C26.99 410.83 26.9301 410.7 26.8201 410.61C26.1001 410.81 25.3101 410.76 24.5801 410.64C23.4901 410.39 22.61 409.69 21.98 408.78C21.66 408.32 21.4 407.82 21.17 407.31C21.04 407.01 20.5301 406.16 20.6901 405.85C20.9201 405.39 21.5701 405.97 21.8501 406.1C22.8101 406.54 24.11 406.99 25.17 406.68C25.7 406.53 26.15 406.16 26.5 405.73C26.97 405.15 27.3101 404.44 27.6601 403.78C27.9101 403.3 28.2401 403.85 28.2701 404.1C28.4501 405.53 30.03 405.19 31.06 404.94C32.05 404.7 33.0201 404.34 33.9601 403.95C34.1801 403.86 34.4 403.77 34.62 403.67C35.14 403.45 35.05 404.09 34.86 404.32C33.99 405.36 33.4 406.6 33.03 407.9C32.67 409.14 32.54 411.23 34.4 411.24C34.53 411.24 34.66 411.23 34.79 411.26C35.5 411.45 34.6901 411.99 34.4901 412.16C33.3501 413.16 34.51 415.03 35.4 415.75C35.72 416.01 37.9501 417.16 37.5801 417.58C37.4201 417.77 36.91 417.66 36.7 417.64C36.25 417.61 35.79 417.62 35.36 417.76C34.93 417.9 34.54 418.17 34.31 418.57C34.01 419.08 34.1601 419.57 34.33 420.09C34.53 420.67 34.7401 421.24 34.9601 421.81C35.0601 422.07 35.51 422.95 34.84 422.88C34.32 422.82 33.9901 422.06 33.4901 421.84C32.6401 421.47 31.52 421.83 30.7 422.15C29.74 422.53 28.86 423.08 28.03 423.69L28.04 423.7Z" fill="#C09141"/>
<path d="M18.18 418.29C17.34 418.05 16.52 417.64 15.93 416.98C15.5 416.45 15.27 415.75 15.2 415.08C15.17 414.46 15.47 413.85 15.84 413.37C17.65 411.46 20.87 412 23.27 411.6C24.26 411.43 25.2501 411.36 26.2101 411.08C26.7901 410.91 27.33 410.63 27.87 410.35C28.22 410.16 29.14 409.46 29.52 409.84C30.27 410.6 28.3 412.18 27.87 412.54C29.35 412.44 30.85 412.6 32.31 412.75C33.05 413.19 31.9 413.65 31.55 413.86C30.84 414.27 30.09 414.62 29.29 414.82C30.07 415 30.83 415.34 31.48 415.79C31.62 415.89 31.78 415.97 31.89 416.1C32.13 416.4 31.84 416.71 31.52 416.75C29.58 417.04 27.65 417.37 25.75 417.84C23.29 418.39 20.67 419.01 18.18 418.29Z" fill="#8DA68F"/>
<path d="M15.87 413.46C16.77 411.7 18.86 411.01 20.72 410.99C22.02 410.9 23.29 411.2 24.57 411.26C25.2 411.24 25.82 411.09 26.45 411C26.6 410.94 26.78 410.98 26.88 411.13C27.16 411.66 26.06 412.48 25.68 412.76C23.86 414.04 21.66 414.52 19.48 414.7C18.9 414.75 18.13 414.96 17.72 415.39C17.19 415.94 17.69 416.97 16.72 417.2C16.12 417.34 15.74 416.9 15.56 416.37C15.21 415.37 15.4 414.37 15.87 413.45L15.87 413.46Z" fill="#86A896"/>
<path d="M13.65 416.27C14.01 416.52 13.83 417.07 13.44 417.17C11.6 417.41 4.91004 418.05 3.76004 416.72C3.54004 416.3 3.96004 415.78 4.42004 415.9C4.77004 415.98 5.27005 416.06 5.57005 416.11C7.40005 416.36 9.16004 416.39 10.98 416.34C11.76 416.4 13 416.13 13.65 416.28L13.65 416.27Z" fill="#8DA68F"/>
<path d="M-17.16 418.29C-17.07 418.26 -16.99 418.21 -16.91 418.17C-16.35 417.88 -15.77 417.63 -15.19 417.39C-14.06 416.79 -13.05 415.99 -12.14 415.09C-10.41 412.99 -8.59998 410.95 -7.18998 408.61C-2.27998 400.43 2.61003 396.03 12.25 394.58C13.68 394.35 15.1 394.13 16.54 393.9C16.83 393.85 17.28 393.61 17.52 393.94C17.65 394.12 17.62 394.32 17.53 394.51C16.87 395.83 16.08 397.09 15.45 398.43C12.3 405.12 7.52003 413.14 0.320031 415.83C-2.32997 416.82 -5.22997 417.05 -8.03997 416.86C-8.07997 416.86 -8.11998 416.86 -8.15998 416.85C-9.22998 417.03 -10.19 417.14 -10.49 417.18C-11.52 417.27 -12.42 417.6 -13.44 417.83C-14.68 418.08 -15.87 418.48 -17.05 418.93C-17.38 418.91 -17.46 418.42 -17.16 418.29Z" fill="#86A896"/>
<path d="M0.150026 450.8C-1.57997 449.37 -3.41997 448.28 -5.35997 447.03C-6.86997 446.08 -8.38997 445.12 -10.06 444.49C-12.67 443.44 -15.55 443.49 -18.31 443.4C-18.98 443.33 -19.7 443.31 -20.3 442.98C-20.38 442.94 -20.46 442.93 -20.54 442.92C-20.64 442.88 -20.74 442.85 -20.83 442.81C-21.36 442.57 -21.87 442.28 -22.37 441.98C-23.47 441.11 -24.62 440.28 -25.72 439.43C-26.08 439.13 -26.52 439.71 -26.16 439.99C-23.3 442.25 -20.47 444.74 -18.78 448.05C-18.52 448.56 -18.25 449.05 -18 449.56C-17.2 451.21 -16.52 452.92 -15.62 454.51C-7.50996 469.52 -0.439976 469.41 13.93 474.98C14.32 475.22 14.83 474.98 14.95 474.55C15.01 474.34 14.95 474.16 14.86 473.98C14.38 473 11.3 466.57 10.18 464.3C7.62002 459.31 4.44003 454.48 0.140031 450.79L0.150026 450.8Z" fill="#86A896"/>
<path d="M17.1001 448.75C22.4501 451.16 26.5001 454.63 29.16 460.65C30.78 463.87 31.06 467.46 31.79 470.93C32.01 471.86 32.2401 472.79 32.4901 473.71C32.6401 474.34 33.2 475.36 32.28 475.62C32.05 475.67 31.85 475.57 31.64 475.49C30.54 475.09 29.4 474.84 28.28 474.52C26.31 474 24.55 472.9 22.93 471.69C17.83 468.12 15.85 462.21 14.36 456.45C13.82 454.72 13.9701 452.7 13.4601 450.95C12.7001 449.64 11.76 448.44 10.56 447.54C8.96005 446.63 7.23004 445.97 5.37004 445.68C5.05004 445.68 4.96004 445.18 5.26004 445.06C5.44004 444.99 5.65005 445.06 5.85005 445.06C7.80005 445.29 9.81005 445.69 11.6601 446.45C13.4401 446.94 15.2 447.48 16.76 448.53C16.88 448.6 16.99 448.67 17.11 448.74L17.1001 448.75Z" fill="#6A7F6F"/>
<path d="M22.3 434.14C22.77 434.21 23.3901 434.52 23.0201 435.07C22.7001 435.39 22.22 435.48 21.81 435.66C11.37 440.1 9.86005 442.33 0.580049 439.04C-1.10995 438.65 -2.76995 438.15 -4.36995 437.5C-6.92995 436.42 -9.46996 435.3 -11.91 433.96C-12.37 433.78 -12.05 433.07 -11.6 433.34C-10.55 433.85 -9.45995 434.29 -8.36995 434.71C-8.22995 434.75 -8.07995 434.79 -7.93995 434.83C-6.54995 435.24 -5.12995 435.48 -3.69995 435.63C-2.52995 435.54 -1.40995 435.21 -0.339949 434.68C1.97005 433.49 4.03005 431.73 6.55005 431.03C10.4801 429.67 14.9101 430.54 18.5201 432.41C19.7601 433.03 20.93 433.81 22.29 434.14L22.3 434.14Z" fill="#6A7F6F"/>
<path d="M51.67 437.55C48.44 436.07 45.15 434.71 41.62 434.08C38.22 433.44 34.53 433.07 31.39 434.85C28.04 437.08 24.8 439.36 21.36 441.5C19.38 442.74 17.02 443.02 14.75 443.28C12.78 443.13 10.82 442.85 8.86003 442.59C8.87003 442.59 8.89002 442.59 8.90002 442.6C8.50002 442.46 8.30004 443.11 8.71004 443.22L8.73003 443.22C9.96003 443.54 11.19 443.94 12.43 444.3C12.45 444.31 12.46 444.32 12.48 444.33C20.37 447.58 29.63 450.08 37.82 446.39C40.4 445.44 42.67 443.88 45.08 442.6C47.35 441.33 49.71 440.26 52.03 439.08C52.94 438.55 52.51 437.79 51.67 437.55Z" fill="#86A896"/>
<path d="M51.45 438.08C49.95 437.94 48.43 437.68 46.93 437.9C43.82 438.35 40.7401 439.09 37.7101 439.94C34.8801 440.75 32.2201 442.02 29.4101 442.89C23.7501 444.13 17.8301 444.25 12.0801 443.44C11.7701 443.4 10.86 443.03 9.95005 442.73C9.59005 442.68 9.22005 442.63 8.86005 442.58C8.87005 442.58 8.89004 442.58 8.90004 442.59C8.50004 442.45 8.30006 443.1 8.71006 443.21L8.73005 443.21C9.96005 443.52 11.19 443.93 12.43 444.29C12.44 444.3 12.46 444.31 12.48 444.32C20.37 447.57 29.6301 450.07 37.8201 446.38C40.4001 445.43 42.67 443.87 45.08 442.59C47.35 441.32 49.71 440.25 52.03 439.07C52.49 438.8 52.61 438.48 52.5 438.19C52.14 438.15 51.7801 438.13 51.4601 438.08L51.45 438.08Z" fill="#6A7F6F"/>
<path d="M-20.2299 406.27C-19.5799 406.1 -18.9199 405.95 -18.2599 405.79C-17.0099 405.75 -13.83 404.33 -13.35 404.13C-10.78 403.06 -8.32996 401.56 -6.56996 399.37C-3.35996 395.4 -1.34996 390.72 1.15005 386.27C1.35005 385.82 1.94005 385.24 1.55005 384.76C1.27005 384.46 0.840049 384.63 0.670049 384.94C-0.589951 386.45 -2.71995 386.49 -4.43995 387.17C-7.06995 387.95 -9.63995 389.17 -11.52 391.23C-14.65 394.26 -14.6999 398.93 -16.6399 402.61C-16.8799 403.06 -17.16 403.51 -17.47 403.93C-18.16 404.57 -18.8999 405.12 -19.7499 405.51C-20.5399 405.75 -21.3399 405.96 -22.1399 406.15C-22.2899 406.23 -22.3099 406.45 -22.1799 406.56C-21.6299 406.76 -20.8099 406.38 -20.2299 406.28L-20.2299 406.27Z" fill="#8DA68F"/>
<path d="M-22.1799 406.55C-22.2999 406.45 -22.29 406.22 -22.14 406.14C-21.92 406.09 -21.69 406.03 -21.47 405.97C-20.61 405.93 -19.9 405.42 -19.11 405.12C-17.81 404.41 -16.53 403.63 -15.44 402.62C-13.97 401.33 -13.14 399.54 -12.03 397.97C-10.36 395.7 -8.75995 393.37 -6.78994 391.35C-5.65994 390.2 -4.38995 389.19 -3.19995 388.09C-2.52995 387.47 -1.87996 386.83 -1.20996 386.19C-0.499958 385.92 0.150053 385.55 0.660053 384.94C0.840053 384.63 1.27004 384.46 1.54004 384.76C1.93004 385.24 1.34005 385.82 1.14005 386.27C-1.35995 390.71 -3.44995 395.34 -6.57995 399.37C-8.38995 401.52 -10.83 402.98 -13.36 404.13C-13.85 404.32 -17.01 405.75 -18.27 405.79C-18.93 405.96 -19.59 406.1 -20.24 406.27C-20.82 406.36 -21.63 406.74 -22.19 406.55L-22.1799 406.55Z" fill="#6A7F6F"/>
<path d="M13.44 423.64C9.66004 422.39 6.06004 420.34 2.06004 419.86C0.160036 419.63 -1.76997 419.91 -3.56997 420.51C-4.62997 420.77 -5.63996 421.2 -6.52996 421.83C-8.80996 423.46 -10.76 425.62 -13.53 426.42C-13.82 426.64 -13.53 426.96 -13.23 426.81C-12.44 426.59 -11.62 426.51 -10.82 426.36C-8.57997 426.19 -6.32997 426.53 -4.06997 426.79C-3.09997 427.05 -2.13997 427.31 -1.15997 427.48C-0.00996588 427.69 1.06004 428.06 2.25004 428.08C5.15004 427.93 7.85004 426.64 10.42 425.4C11.12 425.06 11.81 424.71 12.55 424.46C12.88 424.35 13.88 424.15 13.44 423.64Z" fill="#86A896"/>
<path d="M5.54 549.91C6.55 550.41 7.34001 551.2 8.03001 552.08C8.86001 553.13 9.54 554.35 9.76 555.69C9.98 556.51 9.76001 557.34 9.35001 558.05C8.89001 558.84 8.41001 559.64 7.74001 560.27C6.87001 560.99 5.86 561.54 4.87 562.08C6.64 561.76 8.45002 561.86 9.71002 563.3C11.41 565.13 11.95 567.83 11.55 570.25C11.38 571.36 10.79 572.36 10.09 573.22C8.42 575.17 6.18001 576.91 3.52001 576.98C2.77001 577.05 2.03001 576.89 1.31001 576.71C5.86017e-06 576.36 -1.20999 575.74 -2.29999 574.96C-2.41999 574.99 -2.54999 575 -2.66999 575.03C-2.90999 575.24 -3.1 575.5 -3.32 575.74C-3.8 576.29 -4.29999 576.82 -4.82999 577.32C-6.01999 578.49 -7.44 579.49 -9.07 579.92C-10.49 580.34 -12.02 580.22 -13.41 579.74C-14.46 579.34 -15.29 578.42 -15.75 577.42C-16.52 575.47 -16.37 573.23 -15.55 571.33C-15.15 570.53 -14.61 569.79 -14.02 569.11C-15.84 569.39 -17.7 569.71 -19.55 569.5C-21.02 569.25 -22.42 568.61 -23.43 567.49C-24.51 566.42 -24.95 564.83 -24.82 563.34C-24.48 561.09 -23.32 558.95 -21.6 557.45C-20.21 556.2 -18.15 556.05 -16.44 556.65C-16.79 554.6 -16.38 552.41 -15.25 550.66C-14.5 549.38 -13.53 548.2 -12.26 547.4C-10.75 546.33 -8.69999 546.84 -7.19999 547.67C-5.41999 548.53 -4.11999 550.08 -3.22999 551.8C-2.74999 551.31 -2.26999 550.82 -1.66999 550.48C-0.709989 549.95 0.31001 549.53 1.36001 549.22C2.78001 548.72 4.31001 549.17 5.55001 549.92L5.54 549.91Z" fill="#E7AA00"/>
<path d="M-4.83999 557.54C-5.67999 558.09 -6.62999 558.56 -7.58999 558.87C-8.06999 559.02 -8.57 559.13 -9.07 559.17C-9.32 559.19 -9.57999 559.19 -9.82999 559.17C-10.03 559.15 -10.36 559.02 -10.55 559.08C-10.96 559.19 -10.4 560.01 -10.32 560.22C-9.82 561.48 -10.16 562.9 -10.45 564.17C-10.58 564.76 -10.73 565.34 -10.89 565.93C-11.01 566.38 -11.31 566.92 -11.3 567.39C-11.3 567.92 -10.01 567.39 -9.71999 567.35C-9.07999 567.25 -8.42999 567.25 -7.78999 567.33C-6.74999 567.46 -5.73 567.83 -4.85 568.4C-4.49 568.64 -4.18999 568.88 -3.88999 569.19C-3.72999 569.36 -3.36999 569.79 -3.08999 569.65C-3.01999 569.62 -2.97999 569.55 -2.94999 569.48C-2.70999 568.96 -2.61999 568.33 -2.41999 567.78C-2.15999 567.07 -1.85 566.38 -1.46 565.72C-1.09 565.1 -0.659986 564.51 -0.149986 564C0.120014 563.73 0.400015 563.48 0.710015 563.26C0.910015 563.12 1.42001 562.9 1.45001 562.62C1.49001 562.24 0.990003 562.34 0.760003 562.32C0.0600027 562.26 -0.629997 562.07 -1.24 561.72C-1.99 561.29 -2.58999 560.63 -3.04999 559.9C-3.28999 559.52 -3.49998 559.12 -3.67998 558.71C-3.83998 558.36 -3.89 557.92 -4.07 557.59C-4.23 557.3 -4.6 557.4 -4.82 557.54L-4.83999 557.54Z" fill="#FEF7E7"/>
<path d="M-24.97 661C-25.75 663.53 -28.7 664.43 -29.54 661.38C-30 659.84 -29.84 658.21 -29.85 656.63C-29.79 642.19 -31.64 642.79 -31.97 640.46C-36.84 628.07 -29.35 631.58 -27.42 623.35C-27.23 622.61 -27.26 622.72 -27.4 622.38C-32.15 611.96 -33.78 611.16 -35.06 608.21C-38.47 600.14 -27.4 595.54 -23.86 609.9C-22.58 614.93 -23.22 616.9 -22.63 610.58C-22.45 608.8 -21.66 602.42 -20.25 600.21C-18.54 597.56 -15.84 596.88 -13.13 598.56C-12.06 599.26 -10.97 600.03 -10.31 601.15C-8.34996 604.85 -11.62 611.4 -11.73 611.72C-12.25 613.25 -12.67 614.82 -13.41 616.27C-14.23 617.99 -15.01 618.37 -14.21 617.85C-12.88 616.98 -12.31 615.98 -10.18 615.13C-8.71996 614.51 -7.10997 614.36 -5.65997 613.73C-2.47997 612.25 -0.499971 608.81 4.90003 611.58C7.73003 613.08 6.25003 616.15 4.31003 618.7C2.11003 621.65 -0.149968 623.43 -5.93997 624.43C-2.07997 624.66 5.69004 626.36 7.60004 630.02C8.10004 632.07 1.96003 634.08 0.360034 634.27C-3.45997 634.69 -7.12996 632.75 -11.81 631.57C-9.55996 632.84 -7.38996 634.23 -5.28996 635.74C-0.93996 637.98 6.37004 639.71 3.74004 645.08C3.55004 645.87 2.75003 646.75 1.28003 647.08C-0.669968 647.47 -4.59997 645.53 -6.43997 644.23C-2.77997 648.3 -0.75996 649.6 -0.0399605 653.97C0.370039 656.19 -1.05997 656.77 -2.49997 658.01C-3.14997 658.52 -3.71996 659.35 -4.61996 659.38C-7.32996 659.16 -10.05 653.26 -14.73 646.27C-12.96 649.47 -10.97 653.87 -12.21 656.99C-12.99 659.01 -15.66 659.71 -17.58 659.04C-19.9 657.89 -20.04 654.33 -23.2 647.92C-22.5 650.46 -21.95 653.05 -21.74 655.68C-21.62 658.4 -21.82 660.51 -24.96 661.01L-24.97 661Z" fill="#E7AA00"/>
<path d="M8.90003 496.22C8.59003 496.9 8.11003 499.14 8.04003 500.05C7.66003 504.83 6.13003 509.88 7.84003 514.55C8.19003 515.52 8.77003 516.82 10 516.73C11.6 516.25 11.86 513.92 12.25 512.51C13.18 509.19 13.19 504.19 11.69 498.87C11.59 498.83 9.79003 497.02 8.90003 496.22Z" fill="#6A7F6F"/>
<path d="M11.13 496.45C11.05 496.45 10.75 496.37 10.68 496.4C11.26 496.97 12.06 497.7 12.52 498.38C12.6 498.5 12.62 498.62 12.63 498.73C16.11 500.64 23.52 502.65 27.95 503.01C32.95 503.42 35.75 496.06 11.13 496.45Z" fill="#86A896"/>
<path d="M13.85 482.33C9.30004 479.62 2.66004 479.86 -2.50996 481.12C-4.04996 481.58 -6.37996 482.16 -7.86996 482.6C-7.17996 483.04 -6.31997 483.59 -5.62997 483.97C-5.54997 484.02 -5.55996 483.92 -5.50996 483.99C-2.77996 484.45 0.430033 484.83 3.17003 485.29C17.37 488.06 17.91 484.76 13.85 482.34L13.85 482.33Z" fill="#6A7F6F"/>
<path d="M32.64 518.11C30.08 513.95 25.67 511.61 22.08 508.39C21.8 508.14 21.34 507.76 20.92 507.54C13.03 497.12 1.12004 486.81 -9.72996 481.28C-10.81 480.73 -11.22 482.31 -10.08 482.6C-0.379964 487.78 12.74 498.65 20.08 508.57C20.08 508.59 20.08 508.6 20.09 508.62C20.13 511 26.13 522.54 30.14 525.08C31.53 525.96 34.05 526.22 34.65 524.29C35.16 522.06 33.76 519.92 32.63 518.1L32.64 518.11Z" fill="#6A7F6F"/>
<path d="M26.12 582C25.39 584.01 24.82 586.07 24.17 588.1C23.46 590.5 22.8 592.93 21.56 595.12C19.33 598.93 16.12 602.29 12.26 604.44C8.95002 606.28 5.28002 607.66 1.53002 608.27C0.490021 608.37 -0.559979 608.49 -1.60998 608.61C-3.38998 609.02 -5.17998 609.28 -6.98998 609.75C-7.47998 609.8 -8.02998 609.95 -8.48998 609.83C-8.89998 609.51 -8.50997 609.14 -8.11997 609.13C-6.77997 608.73 -5.47997 608.29 -4.17997 607.85C-4.14997 607.83 -4.13998 607.79 -4.10998 607.78C-0.429979 606.09 1.97002 602.66 4.36002 599.54C8.93002 593.72 11.94 585.84 19.09 582.67C20.12 582.25 21.08 582.01 22.23 581.98C23.32 582.03 24.29 581.66 25.14 580.99C25.9 580.49 26.47 581.32 26.11 582.01L26.12 582Z" fill="#86A896"/>
<path d="M4.08002 659.94C7.34002 657.76 11.62 657.3 15.38 658.06C17.73 658.67 20.06 659.93 22.51 659.82C22.82 659.77 23.11 660.06 23.05 660.37C23 660.63 22.76 660.76 22.56 660.9C21.04 661.82 19.58 662.82 18.25 663.99C16.07 665.52 13.94 667.14 11.79 668.7C8.27001 670.49 4.29001 671.84 0.31001 671.57C-3.34999 671.1 -6.81999 669.71 -9.96999 667.79C-10.54 667.53 -11.09 667.24 -11.61 666.88C-12.78 666 -14.07 665.26 -15.21 664.34C-15.42 664.2 -15.61 664.05 -15.73 663.9C-15.86 663.78 -15.99 663.67 -16.11 663.54C-16.4 663.27 -15.98 662.83 -15.7 663.14C-15.08 663.57 -14.45 663.99 -13.81 664.4C-13.71 664.4 -13.59 664.42 -13.45 664.48C-3.86998 667.03 -3.24999 664.84 4.06001 659.93L4.08002 659.94Z" fill="#6A7F6F"/>
<path d="M42.26 642.98C42.87 643.61 43.74 643.2 43.36 642.3C41.85 639.3 40.73 636.1 39.03 633.19C35.99 628.12 31.32 623.92 25.81 621.76C20.57 619.8 14.86 620.4 9.37003 620.27C9.33003 620.27 9.29003 620.27 9.25003 620.27C8.43003 620.15 7.61003 620.07 6.79003 619.99C6.13003 619.98 5.47003 619.86 4.81003 619.9C4.67003 619.92 4.57003 620.04 4.56003 620.18C4.54003 620.37 4.74003 620.53 4.92003 620.5C5.65003 620.6 6.47004 620.72 7.16004 620.89C8.15004 621.16 9.12004 621.47 10.07 621.81C10.52 622.04 10.96 622.28 11.39 622.47C16.68 625.21 19.06 630.99 22.92 635.22C25.67 638.18 29.64 639.63 33.51 640.41C36.48 641.01 39.72 641.12 42.25 642.97L42.26 642.98Z" fill="#6A7F6F"/>
<path d="M22.51 615.04C23.76 614.77 25.03 614.75 26.3 614.79C29 614.91 31.55 615.79 34.13 616.53C37.17 618.04 39.99 620.07 42.64 622.17C45.46 624.78 48.5 627.33 52.1 628.79C55.47 629.82 59.33 629 62.42 630.99C62.65 631.15 62.9 631.36 63.19 631.31C63.61 631.25 63.81 630.71 63.53 630.4C62.11 628.44 60.65 626.51 59.21 624.57C55.13 619.06 49.16 614.8 42.43 613.37C41.22 613.12 39.98 613.01 38.75 612.98C35.96 612.58 33.06 612.55 30.3 612.88C28.56 612.93 26.83 613.2 25.12 613.55C24.16 613.63 23.2 613.81 22.24 614.12C21.73 614.31 21.96 615.14 22.49 615.03L22.51 615.04Z" fill="#8DA68F"/>
<path d="M16.4 609.17C16.18 609.13 15.92 609.24 15.73 609.1C15.6 608.98 15.63 608.76 15.78 608.67C18.28 608.48 20.84 608.41 23.35 608.14C26.27 607.15 28.53 604.58 29.62 601.68C30.67 599.84 31.75 598.01 32.95 596.27C35.85 592.59 40.32 590.45 44.78 589.33C45.94 589.03 47.07 588.67 48.18 588.23C48.78 587.94 49.7 587.59 49.88 588.53C49.91 588.79 49.8 589.02 49.67 589.23C49.19 590.03 48.66 590.81 48.17 591.61C46.91 594.02 45.89 596.44 44.31 598.65C41.33 603.1 36.62 606.01 31.64 607.76C30.16 608.2 28.66 608.53 27.13 608.74C26.43 608.92 25.72 609.07 25 609.18C22.15 609.46 19.25 609.23 16.4 609.15L16.4 609.17Z" fill="#6A7F6F"/>
<path d="M57.89 605.76C59.33 605.8 60.86 605.26 61.98 604.35C62.85 603.64 63.57 602.55 63.51 601.4C63.45 600.12 62.8 598.98 62.16 597.91C61.57 597.01 60.73 596.3 59.77 595.82C58.71 595.17 57.45 594.89 56.22 595.05C54.92 595.19 53.39 595.87 52.9 597.17C52.39 598.76 52.44 600.65 53.61 601.95C54.05 602.45 54.39 603.09 54.74 603.68C55.43 604.86 56.52 605.63 57.89 605.76Z" fill="#8DA68F"/>
<path d="M61.42 596.78C60.55 596.04 59.79 595.11 58.68 594.72C57.16 594.19 55.49 594.55 54.23 595.51C52.59 596.75 52.31 599.25 52.98 601.09C53.07 601.34 53.28 601.63 53.53 601.54C53.68 601.49 53.75 601.3 53.74 601.14C53.73 600.98 53.65 600.83 53.59 600.68C53.26 599.86 53.39 598.86 53.94 598.17C54.37 597.61 55.02 597.26 55.69 597.05C57.19 596.57 58.87 596.72 60.26 597.45C60.56 597.61 60.87 597.8 61.21 597.75C61.69 597.68 61.78 597.05 61.42 596.78Z" fill="#6A7F6F"/>
<path d="M60.58 601.84C60.06 602.05 59.53 602.24 59 602.44C57.94 602.86 56.86 603.38 55.69 603.22C55.85 603.24 55.54 603.2 55.47 603.25C54.92 603.62 55.53 604 55.93 604.13C57.55 604.69 59.37 604.35 60.94 603.65C61.22 603.53 61.51 603.38 61.68 603.12C61.88 602.83 61.86 602.41 61.65 602.12C61.41 601.8 60.95 601.68 60.58 601.83L60.58 601.84Z" fill="#C1DEC8"/>
<path d="M44.71 602.44C44.01 602.87 41.5 603.79 42 604.8C42.15 605.06 42.49 605.2 42.78 605.08C45.65 603.6 48.59 602.24 51.76 601.56C52.33 601.14 51.77 600.46 51.16 600.61C48.92 600.82 46.73 601.45 44.71 602.44Z" fill="#8DA68F"/>
<path d="M59.43 609.86C59.8 609.81 59.95 610.38 59.59 610.51C58.82 610.86 58.21 611.54 57.38 611.83C54.21 613.05 50.58 612.76 47.46 611.51C46.04 610.94 44.56 610.38 43.07 610.09C42.29 609.88 41.39 610.03 40.65 609.7C40.32 609.3 40.92 609 41.2 608.78C41.93 608.24 42.67 607.68 43.49 607.28C47.67 605.43 51.2 607.26 55.02 608.91C56.19 609.32 57.35 609.99 58.62 609.98C58.9 609.98 59.17 609.9 59.44 609.86L59.43 609.86Z" fill="#8DA68F"/>
<path d="M2.62003 655.46C2.13003 654.2 4.33004 652.89 4.99004 652C8.44004 648.82 14.91 641.56 18.51 644.97C20.92 648.18 12.98 651.92 8.97003 653.58C7.62003 654.24 3.34003 656.73 2.62003 655.46Z" fill="#6A7F6F"/>
</g>
<defs>
<clipPath id="clip0_62_1519">
<rect width="1200" height="480" fill="white" transform="translate(191 -234) rotate(90)"/>
</clipPath>
</defs>
</svg>
