<svg width="26" height="26" viewBox="0 0 26 26" fill="none" xmlns="http://www.w3.org/2000/svg">
<path d="M12.5717 0.000165635C9.27375 0.110097 6.14069 1.46988 3.80818 3.80239C1.36931 6.24117 0 9.54856 0 12.9972C0 16.4455 1.3706 19.7543 3.80818 22.192C6.24706 24.6307 9.55457 26 13.0033 26C16.4518 26 19.7607 24.6295 22.1984 22.192L22.1996 22.1932V22.192C24.5322 19.8595 25.8894 16.7266 25.9996 13.4288V13.43C26.0115 13.0727 25.7749 12.7549 25.4284 12.6641C25.0831 12.5732 24.721 12.7346 24.5561 13.0512C24.151 13.8291 23.63 14.5412 23.011 15.1614C21.3967 16.7744 19.2086 17.6814 16.9251 17.6814C14.6428 17.6814 12.4549 16.7745 10.8404 15.1614C9.22603 13.5471 8.32025 11.3591 8.32025 9.07688C8.32025 6.79462 9.226 4.60567 10.8404 2.99117C11.4605 2.37104 12.1727 1.84885 12.9506 1.44379C13.2673 1.2789 13.4274 0.916832 13.3366 0.571511C13.2469 0.226191 12.929 -0.0105711 12.5717 0.000165635ZM9.64291 2.02669C7.81465 3.91582 6.78942 6.44315 6.78942 9.07657C6.78942 11.7639 7.85769 14.3425 9.75763 16.2436C11.6588 18.1435 14.2363 19.2117 16.9249 19.2117C19.5574 19.2117 22.0834 18.1865 23.9726 16.3595C23.4277 18.1387 22.4539 19.7732 21.1167 21.1103C18.9647 23.2623 16.0467 24.4702 13.0033 24.4702C9.95986 24.4702 7.04185 23.2622 4.88983 21.1103C2.73774 18.9583 1.52979 16.0405 1.52979 12.9971C1.52979 9.95383 2.73786 7.03594 4.88983 4.88399C6.22696 3.54572 7.86403 2.57188 9.64325 2.02703L9.64291 2.02669ZM17.8151 2.36605C17.4853 2.36725 17.1925 2.57874 17.0898 2.89182C16.7552 3.90747 16.0143 4.72955 15.05 5.15972H15.0488C14.774 5.2828 14.5959 5.55643 14.5959 5.85752C14.5959 6.15863 14.7716 6.43226 15.0476 6.55655C16.0107 6.98911 16.7504 7.81357 17.0826 8.82923C17.1854 9.14347 17.4781 9.35618 17.8091 9.35618C18.1389 9.35738 18.4329 9.14469 18.5356 8.83042C18.8702 7.81 19.6171 6.9843 20.5873 6.55416C20.8645 6.43228 21.0426 6.15864 21.0426 5.85514C21.0426 5.55283 20.8645 5.2792 20.5885 5.15611C19.623 4.72836 18.8786 3.90627 18.5428 2.89062C18.4388 2.57757 18.1449 2.36605 17.8151 2.36605ZM17.8175 4.79883C18.1007 5.19435 18.4377 5.54922 18.8176 5.85391C18.4341 6.1598 18.0959 6.51709 17.8103 6.91618C17.5271 6.51947 17.1925 6.16461 16.8137 5.85991C17.1961 5.55402 17.5331 5.19793 17.8175 4.80006L17.8175 4.79883ZM23.1004 7.92932C22.6093 7.92932 22.2078 8.35112 22.2078 8.8458C22.2078 9.34765 22.6225 9.76229 23.1243 9.76229C23.6262 9.76229 24.0408 9.34765 24.0408 8.8458C24.0408 8.34396 23.6262 7.92932 23.1243 7.92932H23.0956H23.1004ZM12.5349 9.17559C12.0437 9.17559 11.6422 9.59738 11.6422 10.0921C11.6422 10.5939 12.0569 11.0085 12.5588 11.0085C13.0606 11.0085 13.4753 10.5939 13.4753 10.0921C13.4753 9.59022 13.0606 9.17559 12.5588 9.17559H12.5301H12.5349ZM17.8417 13.2871C17.3505 13.2871 16.9478 13.7089 16.9478 14.2036C16.9478 14.7054 17.3625 15.12 17.8644 15.12C18.3662 15.12 18.7809 14.7054 18.7809 14.2036C18.7809 13.7017 18.3662 13.2871 17.8644 13.2871H17.8357H17.8417Z" fill="currentColor"/>
</svg>
