<svg width="29" height="29" viewBox="0 0 29 29" fill="none" xmlns="http://www.w3.org/2000/svg">
<path d="M28.6607 5.18677L23.7341 0.252216C23.3197 -0.103988 22.7 -0.0804162 22.3142 0.307217C21.9272 0.693527 21.9037 1.31428 22.2593 1.72942L24.0061 3.47902L23.912 3.54188L13.5882 13.8824L8.73495 13.369C8.03678 13.3022 7.34645 13.5524 6.85222 14.05L1.0785 19.8538C0.412998 20.4877 0.0247033 21.3598 0.00113987 22.2792C-0.0224236 23.1985 0.320157 24.0903 0.952983 24.7569L4.23731 28.0465C4.85311 28.662 5.68857 29.0064 6.55935 28.9999H6.69532C7.61055 28.9711 8.48129 28.5966 9.1324 27.9522L14.8854 22.19C15.3861 21.6975 15.6359 21.0035 15.5652 20.3042L15.0527 15.443L25.3765 5.10257C25.3987 5.07245 25.4196 5.04103 25.4392 5.00829L27.186 6.75789C27.6188 7.16515 28.3012 7.1442 28.7079 6.71075C28.904 6.50253 29.0086 6.2249 28.9994 5.9394C28.9903 5.65261 28.8687 5.38282 28.6608 5.1864L28.6607 5.18677ZM13.4837 20.4511C13.4837 20.5231 13.4536 20.5912 13.4 20.6396L7.64705 26.4019C7.36987 26.6848 6.99594 26.8498 6.60109 26.8629C6.26638 26.8878 5.9382 26.7647 5.70156 26.5276L2.43815 23.2275C1.94392 22.6552 2.00016 21.7922 2.56367 21.2894L8.31664 15.5271C8.35978 15.4786 8.41992 15.4485 8.48399 15.4433L11.6219 15.7785L8.24334 19.1625C8.02238 19.3524 7.89032 19.6261 7.87857 19.9181C7.8668 20.2089 7.97794 20.493 8.18451 20.6986C8.38978 20.9056 8.67349 21.0169 8.96375 21.0051C9.25531 20.9933 9.52857 20.861 9.71815 20.6397L13.0967 17.2557L13.4837 20.4511Z" fill="currentColor"/>
</svg>
