<svg width="36" height="21" viewBox="0 0 36 21" fill="none" xmlns="http://www.w3.org/2000/svg">
<path d="M12.9803 0.000608793C12.5866 -0.0125124 12.2154 0.187217 12.0002 0.526919L0.184597 19.1922C-0.0417907 19.5509 -0.0614738 20.0087 0.133979 20.3862C0.329431 20.7624 0.709101 20.9985 1.12249 21H34.8696C35.3083 21.0015 35.709 20.739 35.8947 20.3265C36.0803 19.9139 36.017 19.4269 35.733 19.0785L23.3619 3.91954C23.1285 3.62942 22.7742 3.47488 22.4114 3.50403C22.0486 3.53319 21.721 3.74167 21.534 4.06531L18.695 8.98133L13.9114 0.577975C13.7173 0.232458 13.3656 0.0152016 12.9803 0.000608793ZM12.8903 3.37706L15.6928 8.29457C15.0994 8.41558 14.5791 8.6153 14.1601 8.90396C13.4823 9.36757 13.0717 9.97696 12.7736 10.4449C12.4755 10.9144 12.266 11.2453 12.0832 11.4086C11.9018 11.5733 11.771 11.6666 11.2536 11.6666C10.2552 11.6666 9.74761 11.289 9.22735 10.7992C9.01924 10.6024 8.81536 10.3822 8.5974 10.1636L12.8903 3.37706ZM22.6559 6.66458L26.648 11.5601C26.4244 11.6228 26.1797 11.6665 25.8774 11.6665C24.6977 11.6665 24.8186 11.4886 24.207 10.8486C23.6797 10.2975 22.7123 9.57443 21.0825 9.38345L22.6559 6.66458ZM16.9486 10.493L19.2842 14.594C19.4304 14.8709 19.6779 15.0751 19.9718 15.1581C20.2671 15.2427 20.5807 15.199 20.8436 15.0386C21.1052 14.8768 21.2936 14.6129 21.3653 14.3053C21.4356 13.9977 21.3836 13.674 21.2191 13.4073L20.2221 11.6622C20.2306 11.6622 20.2362 11.6666 20.246 11.6666C21.9573 11.6666 22.112 11.9581 22.6139 12.4844C23.1159 13.0107 24.1227 14.0021 25.8776 14.0021C26.7831 14.0021 27.5396 13.7484 28.1639 13.416L32.4458 18.6672H3.21664L7.3408 12.1474C7.46876 12.2816 7.54751 12.3676 7.71625 12.5279C8.43479 13.2058 9.61451 14.0018 11.2541 14.0018C12.2018 14.0018 13.0187 13.6563 13.5629 13.165C14.1071 12.6737 14.3996 12.1343 14.6583 11.7275C14.9171 11.3208 15.1167 11.0496 15.3966 10.8572C15.6778 10.6662 16.0743 10.4956 16.8758 10.4956C16.9011 10.4971 16.9236 10.4927 16.9489 10.4927L16.9486 10.493Z" fill="currentColor"/>
</svg>
