<svg width="32" height="26" viewBox="0 0 32 26" fill="none" xmlns="http://www.w3.org/2000/svg">
<path d="M31.6742 24.3691C26.9193 19.3394 22.0298 0.848522 21.9412 0.66623C21.8082 0.212618 21.3633 -0.103994 20.8298 0.0316823L9.23131 3.24961C8.92082 3.34008 8.65343 3.61277 8.60905 3.92939C8.56469 4.06508 5.00849 19.5655 0.253606 24.4596C-0.279924 25.0036 0.0761833 26 0.875868 26H31.0974C31.9858 26.0013 32.2965 24.9132 31.6742 24.3691ZM2.78704 24.1882C6.78664 18.5693 9.63192 7.46533 10.2542 4.83682L19.8541 2.20821C18.5653 6.69504 14.6545 19.7929 10.7434 24.1884L2.78704 24.1882ZM17.9861 24.1882C19.2306 22.0584 20.342 18.8859 21.0973 16.5736C21.8083 18.8843 22.9641 22.1023 24.2086 24.1882H17.9861ZM26.3415 24.1882C24.5634 21.968 22.6079 15.5322 21.9857 13.1749C21.6752 12.2238 20.475 12.3142 20.252 13.1749C19.6297 15.5774 17.6742 22.012 15.8961 24.1882H13.0079C16.4742 19.2488 19.6741 9.23201 21.1415 4.20227C22.6077 9.23333 25.8078 19.2488 29.275 24.1882H26.3415Z" fill="currentColor"/>
</svg>
