<svg width="28" height="29" viewBox="0 0 28 29" fill="none" xmlns="http://www.w3.org/2000/svg">
<path d="M11.6632 0C9.95821 0 8.55949 1.44998 8.55949 3.2145C8.55949 4.98034 9.95949 6.42899 11.6632 6.42899C13.3681 6.42899 14.7669 4.97901 14.7669 3.2145C14.7669 1.44865 13.3669 0 11.6632 0ZM3.91442 1.59925C2.46554 1.59925 1.27399 2.83334 1.27399 4.33395V4.33662C1.27399 4.38859 1.27656 4.43924 1.28042 4.49121C0.555981 4.89635 0.0580092 5.68798 0.0580092 6.59423C0.0580092 7.9083 1.10415 8.99445 2.37417 8.99445H6.63478C7.90483 8.99445 8.95094 7.9083 8.95094 6.59423C8.95094 5.28017 7.90351 4.19538 6.63478 4.19538H6.55629C6.48423 2.7574 5.32099 1.59926 3.91714 1.60059L3.91442 1.59925ZM11.6632 1.70586C12.4777 1.70586 13.1198 2.37221 13.1198 3.2145C13.1198 4.05811 12.4777 4.72313 11.6632 4.72313C10.8486 4.72313 10.2066 4.05678 10.2066 3.2145C10.2066 2.37088 10.8486 1.70586 11.6632 1.70586ZM3.91571 3.30378C4.47545 3.30378 4.91037 3.75423 4.91037 4.33395C4.91037 4.46589 4.88592 4.60183 4.83702 4.72442V4.72309C4.73279 4.98697 4.76239 5.28548 4.91551 5.52137C5.06864 5.75725 5.32471 5.89853 5.59878 5.89853H6.63333C7.01808 5.89853 7.30243 6.19173 7.30243 6.59152C7.30243 6.99001 7.01806 7.28588 6.63333 7.28588H2.37272C1.98797 7.28588 1.70362 6.98869 1.70362 6.59152C1.70362 6.21569 1.95968 5.94118 2.31356 5.90918C2.57605 5.88519 2.81024 5.73326 2.94665 5.49871C3.08176 5.26549 3.10235 4.97897 2.99941 4.72841C2.94794 4.60314 2.9222 4.4672 2.92092 4.33258C2.92221 3.75419 3.35726 3.30378 3.91571 3.30378ZM17.1113 4.11939L17.1126 4.11806C16.836 4.11939 16.5786 4.26599 16.4281 4.50587L10.1152 14.5479L7.71409 10.7845C7.55968 10.5419 7.29719 10.398 7.01666 10.402C6.74387 10.4046 6.49036 10.5486 6.33982 10.7845L0.138971 20.5079H0.140257H0.136397C0.13125 20.5186 0.126103 20.5292 0.120956 20.5399C0.111949 20.5545 0.104228 20.5705 0.0965075 20.5852C0.0913605 20.5959 0.0875001 20.6065 0.0836397 20.6172C0.0759193 20.6332 0.0681984 20.6492 0.0617647 20.6665C0.0579043 20.6772 0.0527573 20.6878 0.0488972 20.6985C0.0437498 20.7145 0.0386031 20.7305 0.0334557 20.7465C0.0308824 20.7584 0.0270221 20.7704 0.0244487 20.7824C0.0205883 20.7984 0.0180149 20.8144 0.0154412 20.8304C0.0128675 20.8437 0.0102942 20.8557 0.00900751 20.8691C0.00643382 20.8837 0.00386038 20.8997 0.00257337 20.9144C0.00128669 20.9357 0 20.957 0 20.9783V28.1471C0 28.6175 0.369304 29 0.82353 29H27.1765C27.6307 29 28 28.6175 28 28.1471V20.9783C27.9987 20.965 27.9987 20.9504 27.9974 20.937C27.9961 20.9224 27.9961 20.909 27.9949 20.8944C27.9923 20.8811 27.991 20.8664 27.9884 20.8531C27.9858 20.8384 27.9846 20.8251 27.982 20.8104C27.9794 20.7971 27.9756 20.7824 27.973 20.7691C27.9691 20.7545 27.964 20.7411 27.9601 20.7278C27.9563 20.7145 27.9524 20.7011 27.9472 20.6891C27.9421 20.6758 27.9369 20.6625 27.9318 20.6505C27.9267 20.6372 27.9202 20.6238 27.9138 20.6119C27.9074 20.5985 27.9009 20.5852 27.8945 20.5719C27.8868 20.5572 27.879 20.5426 27.87 20.5279L17.8075 4.52074C17.6544 4.27686 17.3932 4.13027 17.1126 4.13293L17.1113 4.11939ZM17.1178 6.53558L20.3643 11.6999L19.7453 12.3263L17.6942 10.2486V10.2473C17.5347 10.0873 17.3198 9.99938 17.0972 10.006C16.89 10.0114 16.6918 10.098 16.5426 10.2473L14.4915 12.3249L13.8725 11.6986L17.1178 6.53558ZM17.1178 12.0517L19.1689 14.1293L19.1702 14.128C19.4906 14.4532 20.0014 14.4532 20.3218 14.128L21.2817 13.1551L25.6619 20.1239H8.57634L10.8115 16.5682H10.8153L12.9552 13.1631L13.9152 14.136C14.2356 14.4599 14.7464 14.4599 15.0668 14.136L17.1178 12.0517ZM7.02688 12.8033L9.13459 16.1084L6.60866 20.1264H2.35727L7.02688 12.8033ZM1.64956 21.8324H7.04632L7.04889 21.8311H7.0579H26.3581V24.4752C25.8936 24.4392 25.4896 24.3073 25.2348 24.1527C24.9826 23.9981 24.9195 23.8755 24.9054 23.8222V23.7902C24.9105 23.469 24.7407 23.1731 24.4666 23.0225C24.1925 22.8733 23.8605 22.8959 23.607 23.0812C23.3831 23.2438 23.2519 23.509 23.2557 23.7915V23.8235C23.2429 23.8781 23.1785 24.0007 22.9263 24.1527C22.6291 24.3326 22.1272 24.4845 21.5636 24.4845C20.9988 24.4845 20.4982 24.3326 20.201 24.1527C19.9037 23.9728 19.869 23.8342 19.869 23.8009H19.8677C19.8716 23.5716 19.7841 23.3491 19.6271 23.1865C19.4688 23.0225 19.2552 22.9333 19.0326 22.9359C18.5784 22.9439 18.2142 23.3304 18.2206 23.8009C18.2206 23.8328 18.1859 23.9714 17.8887 24.1527C17.5914 24.3326 17.0896 24.4845 16.526 24.4845C15.9611 24.4845 15.4605 24.3326 15.1633 24.1527C14.8661 23.9728 14.8313 23.8342 14.8313 23.8009H14.83C14.8365 23.3371 14.4826 22.9546 14.0348 22.9386C13.587 22.9226 13.21 23.2798 13.1843 23.7436C13.183 23.7622 13.183 23.7822 13.183 23.8009C13.183 23.8329 13.1482 23.9715 12.851 24.1527C12.5538 24.3326 12.0519 24.4845 11.4883 24.4845C10.9234 24.4845 10.4229 24.3326 10.1256 24.1527C9.8284 23.9728 9.79366 23.8342 9.79366 23.8009H9.79238C9.79624 23.5717 9.70874 23.3491 9.55175 23.1865C9.39348 23.0226 9.17988 22.9333 8.95726 22.9359C8.52362 22.9439 8.16977 23.2958 8.14661 23.7436C8.14533 23.7622 8.14533 23.7822 8.14533 23.8009C8.14533 23.8329 8.11058 23.9715 7.81334 24.1527C7.5161 24.3326 7.01426 24.4845 6.45067 24.4845C5.88579 24.4845 5.38522 24.3326 5.08799 24.1527C4.79075 23.9728 4.75601 23.8342 4.75601 23.8009H4.75472C4.75472 23.7729 4.75472 23.7449 4.75215 23.7169C4.71483 23.2718 4.35066 22.9306 3.91963 22.9373C3.90418 22.9386 3.89003 22.9386 3.87588 22.9399C3.86301 22.9413 3.85014 22.9413 3.83727 22.9426H3.8154H3.75749C3.73047 22.9519 3.70345 22.9626 3.67771 22.9759C3.6597 22.9852 3.64297 22.9959 3.62495 23.0079H3.60051C3.58764 23.0172 3.57477 23.0292 3.56319 23.0399C3.55032 23.0506 3.53874 23.0612 3.52716 23.0719C3.51043 23.0825 3.49499 23.0932 3.47955 23.1039H3.45768C3.44223 23.1159 3.42679 23.1278 3.41135 23.1398H3.39334C3.38562 23.1505 3.3779 23.1612 3.37146 23.1718C3.3586 23.1838 3.34701 23.1958 3.33543 23.2078C3.31613 23.2278 3.29812 23.2491 3.28139 23.2718C3.26466 23.2944 3.24922 23.3184 3.23378 23.3424C3.21962 23.3664 3.20676 23.3917 3.19389 23.417C3.18231 23.4424 3.17202 23.4677 3.16172 23.4943C3.15529 23.5157 3.14885 23.537 3.14371 23.5596C3.14113 23.5703 3.13856 23.581 3.13727 23.5916C3.1347 23.6036 3.13213 23.617 3.13084 23.6303C3.12698 23.6449 3.12441 23.6596 3.12183 23.6756C3.11668 23.7022 3.11411 23.7302 3.11154 23.7595C3.11154 23.7769 3.11025 23.7955 3.11154 23.8142H3.11025C3.11025 23.8462 3.07551 23.9848 2.77827 24.166C2.52349 24.3206 2.11945 24.4525 1.65491 24.4899L1.64956 21.8324ZM3.92843 25.3946C4.03009 25.4786 4.13818 25.5532 4.24755 25.6199C4.86134 25.9944 5.62054 26.1889 6.44664 26.1889C7.27274 26.1889 8.03193 25.9957 8.64572 25.6199C8.75639 25.5519 8.86319 25.4786 8.96484 25.3946C9.0665 25.4786 9.17459 25.5532 9.28396 25.6199C9.89775 25.9944 10.6569 26.1889 11.483 26.1889C12.3091 26.1889 13.0683 25.9957 13.6821 25.6199C13.7928 25.5519 13.8996 25.4786 14.0013 25.3946C14.1029 25.4786 14.211 25.5532 14.3204 25.6199C14.9342 25.9944 15.6934 26.1889 16.5195 26.1889C17.3456 26.1889 18.1048 25.9957 18.7185 25.6199C18.8292 25.5519 18.936 25.4786 19.0377 25.3946C19.1393 25.4786 19.2474 25.5532 19.3568 25.6199C19.9706 25.9944 20.7298 26.1889 21.5559 26.1889C22.382 26.1889 23.1412 25.9957 23.755 25.6199C23.8643 25.5519 23.9698 25.4786 24.0715 25.3973C24.1732 25.4812 24.2812 25.5559 24.3906 25.6225C24.9439 25.961 25.6169 26.1516 26.3504 26.1849V27.2937H1.64447V26.1822C2.37794 26.1503 3.04961 25.957 3.60421 25.6199C3.71487 25.5519 3.82167 25.4786 3.92332 25.3946L3.92843 25.3946Z" fill="currentColor"/>
</svg>
