<svg width="23" height="23" viewBox="0 0 23 23" fill="none" xmlns="http://www.w3.org/2000/svg">
<g clip-path="url(#clip0_401_996)">
<path d="M11.5 0C6.44005 0 2.30005 4.14 2.30005 9.2C2.30005 14.03 9.89005 21.39 10.695 22.195L11.5 23L12.305 22.195C13.1101 21.39 20.7001 14.03 20.7001 9.2C20.7001 4.14 16.5601 0 11.5 0ZM11.5 19.78C8.97005 17.25 4.60005 12.075 4.60005 9.2C4.60005 5.405 7.70505 2.3 11.5 2.3C15.295 2.3 18.4001 5.405 18.4001 9.2C18.4001 12.075 14.0301 17.25 11.5 19.78Z" fill="CurrentColor"/>
<path d="M11.5 4.60001C8.97002 4.60001 6.90002 6.67001 6.90002 9.20001C6.90002 11.73 8.97002 13.8 11.5 13.8C14.03 13.8 16.1 11.73 16.1 9.20001C16.1 6.67001 14.03 4.60001 11.5 4.60001ZM11.5 11.5C10.235 11.5 9.20002 10.465 9.20002 9.20001C9.20002 7.93501 10.235 6.90001 11.5 6.90001C12.765 6.90001 13.8 7.93501 13.8 9.20001C13.8 10.465 12.765 11.5 11.5 11.5Z" fill="currentColor"/>
</g>
<defs>
<clipPath id="clip0_401_996">
<rect width="23" height="23" fill="currentColor"/>
</clipPath>
</defs>
</svg>
