<svg width="27" height="27" viewBox="0 0 27 27" fill="none" xmlns="http://www.w3.org/2000/svg">
<path d="M16.8043 17.877L16.5881 18.3041C16.4826 18.5119 16.3392 18.6975 16.1609 18.8557L16.1567 18.8599C15.9584 19.0424 15.7116 19.132 15.4036 19.132C15.2465 19.132 15.0472 19.111 14.7951 19.0667H14.794C14.1148 18.9475 13.617 18.8652 13.3111 18.8241C13.8016 17.5943 14.0494 16.5375 14.0494 15.6875C14.0494 15.4017 14.0083 15.0125 13.9271 14.5263H16.9025V11.5827H13.0677L12.7354 10.7284C12.5287 10.1958 12.4243 9.77816 12.4243 9.48178C12.4243 8.98079 12.572 8.57158 12.8641 8.26257C13.1595 7.95039 13.5159 7.79849 13.9557 7.79849C14.365 7.79849 14.6898 7.93243 14.9493 8.2056C15.1739 8.44395 15.3469 8.80043 15.4629 9.25185L15.5314 9.53135H18.8052L18.782 9.14112C18.7345 8.37329 18.5362 7.66773 18.1914 7.05072C17.799 6.34829 17.2232 5.78931 16.4807 5.39171C15.7392 4.99513 14.9071 4.79263 14.0053 4.79263C13.0888 4.79263 12.2282 4.99935 11.4477 5.40964C10.6641 5.8199 10.0776 6.3673 9.70323 7.03596C9.32988 7.70358 9.14109 8.49987 9.14109 9.41638C9.14109 10.142 9.30351 10.8814 9.62415 11.5838L7.9377 11.5827V14.5252H10.6314C10.6904 14.9027 10.721 15.2297 10.721 15.5145C10.721 16.0671 10.6472 16.5997 10.5006 17.0944C10.3561 17.5827 10.0819 18.185 9.68639 18.8832C9.22339 18.9485 8.72557 19.0793 8.2056 19.2692L7.85754 19.3989L8.96392 22.198L9.2856 22.0957C9.90998 21.8974 10.5491 21.7961 11.184 21.7961C11.7472 21.7961 12.611 21.8816 13.7511 22.0514H13.7543C14.5021 22.1547 15.0442 22.2075 15.3659 22.2075C16.0999 22.2075 16.8129 22.0187 17.4869 21.6453C18.0849 21.3141 18.5827 20.8628 18.9676 20.3027L19.1448 20.0454L16.8043 17.877Z" fill="currentColor"/>
</svg>
