<svg width="33" height="11" viewBox="0 0 33 11" fill="none" xmlns="http://www.w3.org/2000/svg">
<path d="M5.7554 8.61429L2.6396 10.2604L3.23568 6.83009L0.750122 4.38009L4.21456 3.88929L5.75537 0.739288L7.29481 3.88929L10.7251 4.38009L8.23953 6.83009L8.83561 10.2604L5.7554 8.61429Z" fill="currentColor"/>
<path d="M27.2447 8.61429L24.1644 10.2604L24.7605 6.83009L22.2749 4.38009L25.7052 3.88929L27.2446 0.739288L28.7854 3.88929L32.2499 4.38009L29.7643 6.83009L30.3604 10.2604L27.2447 8.61429Z" fill="currentColor"/>
<path d="M16.5 8.61429L13.4198 10.2604L14.0145 6.83009L11.4948 4.38009L14.9606 3.88929L16.5 0.739288L18.0394 3.88929L21.5052 4.38009L18.9855 6.83009L19.5802 10.2604L16.5 8.61429Z" fill="currentColor"/>
</svg>
