<svg width="27" height="27" viewBox="0 0 27 27" fill="none" xmlns="http://www.w3.org/2000/svg">
<path d="M14.2177 8.66919H10.8413V18.4522H13.1878V14.5494H14.2319C16.1114 14.5494 17.2982 13.3899 17.2982 11.5807C17.2982 9.77275 16.2652 8.66919 14.2177 8.66919ZM14.0176 12.516H13.1988V10.7058H14.0176C14.2528 10.6959 14.4803 10.7882 14.6419 10.9586C14.8035 11.129 14.8837 11.362 14.8617 11.595C14.8672 12.1467 14.5551 12.516 14.0176 12.516Z" fill="currentColor"/>
<path d="M13.4999 3C10.6984 3 8.0122 4.11336 6.03169 6.095C4.05114 8.07664 2.94006 10.7639 2.94006 13.5644C2.94116 16.3659 4.05452 19.0521 6.03619 21.0326C8.01783 23.0131 10.704 24.1253 13.5055 24.1242C16.3071 24.1231 18.9933 23.0098 20.9738 21.0292C22.9543 19.0476 24.0654 16.3603 24.0654 13.5587C24.061 10.7583 22.9465 8.07439 20.9659 6.095C18.9854 4.11445 16.3003 3.00225 13.4999 3ZM13.4999 22.4141C11.1523 22.4119 8.90244 21.4788 7.24408 19.8181C5.58449 18.1574 4.65357 15.9065 4.65357 13.5588C4.65467 11.2123 5.58778 8.96136 7.2474 7.30188C8.907 5.64228 11.1589 4.71027 13.5055 4.71027C15.8531 4.71027 18.1041 5.64228 19.7636 7.30188C21.4232 8.96147 22.3563 11.2123 22.3574 13.5588C22.3552 15.9076 21.421 18.1586 19.7603 19.8181C18.0996 21.4776 15.8476 22.4097 13.4999 22.4108L13.4999 22.4141Z" fill="currentColor"/>
</svg>
