<svg width="19" height="19" viewBox="0 0 19 19" fill="none" xmlns="http://www.w3.org/2000/svg">
<path d="M18.1953 7.05539H11.9116L9.96914 1.0769C9.90352 0.876741 9.71319 0.738922 9.49992 0.738922C9.28664 0.738922 9.09632 0.876735 9.03069 1.0769L7.08819 7.05539H0.804574C0.591298 7.05539 0.400975 7.1932 0.33535 7.39664C0.269725 7.59679 0.341913 7.81991 0.51582 7.94461L5.59845 11.6394L3.65923 17.6178C3.59032 17.8213 3.66251 18.0411 3.83641 18.1691C4.01032 18.2938 4.24329 18.2938 4.41391 18.1691L9.4999 14.4744L14.5859 18.1691C14.6712 18.2314 14.7729 18.261 14.8746 18.261C14.9764 18.261 15.0781 18.2314 15.1634 18.1691C15.3373 18.0411 15.4062 17.8213 15.3406 17.6178L13.4014 11.6394L18.484 7.94461C18.6579 7.81992 18.7301 7.59681 18.6645 7.39664C18.5988 7.1932 18.4085 7.05539 18.1953 7.05539Z" fill="currentColor"/>
</svg>
